Cuprum-Regular.ufo
<glyph name="exclam" format="2">
  <advance width="230"/>
  <unicode hex="0021"/>
  <outline>
    <contour>
      <point x="73" y="185" type="line"/>
      <point x="153" y="185" type="line"/>
      <point x="170" y="700" type="line"/>
      <point x="60" y="700" type="line"/>
    </contour>
    <contour>
      <point x="68" y="-5" type="line"/>
      <point x="158" y="-5" type="line"/>
      <point x="158" y="105" type="line"/>
      <point x="68" y="105" type="line"/>
    </contour>
  </outline>
</glyph>
<glyph name="numbersign" format="2">
  <advance width="570"/>
  <unicode hex="0023"/>
  <outline>
    <contour>
      <point x="85" y="0" type="line"/>
      <point x="175" y="0" type="line"/>
      <point x="205" y="200" type="line"/>
      <point x="315" y="200" type="line"/>
      <point x="285" y="0" type="line"/>
      <point x="375" y="0" type="line"/>
      <point x="405" y="200" type="line"/>
      <point x="520" y="200" type="line"/>
      <point x="520" y="270" type="line"/>
      <point x="415" y="270" type="line"/>
      <point x="440" y="430" type="line"/>
      <point x="550" y="430" type="line"/>
      <point x="550" y="500" type="line"/>
      <point x="455" y="500" type="line"/>
      <point x="485" y="700" type="line"/>
      <point x="395" y="700" type="line"/>
      <point x="365" y="500" type="line"/>
      <point x="255" y="500" type="line"/>
      <point x="285" y="700" type="line"/>
      <point x="195" y="700" type="line"/>
      <point x="165" y="500" type="line"/>
      <point x="50" y="500" type="line"/>
      <point x="50" y="430" type="line"/>
      <point x="150" y="430" type="line"/>
      <point x="125" y="270" type="line"/>
      <point x="20" y="270" type="line"/>
      <point x="20" y="200" type="line"/>
      <point x="115" y="200" type="line"/>
    </contour>
    <contour>
      <point x="210" y="270" type="line"/>
      <point x="235" y="430" type="line"/>
      <point x="355" y="430" type="line"/>
      <point x="330" y="270" type="line"/>
    </contour>
  </outline>
</glyph>
<glyph name="dollar" format="2">
  <advance width="445"/>
  <unicode hex="0024"/>
  <outline>
    <contour>
      <point x="190" y="-90" type="line"/>
      <point x="250" y="-90" type="line"/>
      <point x="250" y="-6" type="line"/>
      <point x="366" y="9"/>
      <point x="410" y="68"/>
      <point x="410" y="180" type="curve" smooth="yes"/>
      <point x="410" y="312"/>
      <point x="326" y="350"/>
      <point x="250" y="385" type="curve"/>
      <point x="250" y="645" type="line"/>
      <point x="375" y="645" type="line"/>
      <point x="375" y="690" type="line"/>
      <point x="349" y="698"/>
      <point x="301" y="707"/>
      <point x="250" y="709" type="curve"/>
      <point x="250" y="790" type="line"/>
      <point x="190" y="790" type="line"/>
      <point x="190" y="708" type="line"/>
      <point x="84" y="697"/>
      <point x="35" y="638"/>
      <point x="35" y="530" type="curve" smooth="yes"/>
      <point x="35" y="395"/>
      <point x="115" y="354"/>
      <point x="190" y="319" type="curve"/>
      <point x="190" y="55" type="line"/>
      <point x="35" y="55" type="line"/>
      <point x="35" y="10" type="line"/>
      <point x="65" y="0"/>
      <point x="125" y="-10"/>
      <point x="185" y="-10" type="curve" smooth="yes"/>
      <point x="190" y="-10" type="line"/>
    </contour>
    <contour>
      <point x="250" y="66" type="curve"/>
      <point x="250" y="289" type="line"/>
      <point x="290" y="266"/>
      <point x="320" y="236"/>
      <point x="320" y="180" type="curve" smooth="yes"/>
      <point x="320" y="121"/>
      <point x="300" y="84"/>
    </contour>
    <contour>
      <point x="190" y="417" type="line"/>
      <point x="152" y="441"/>
      <point x="125" y="472"/>
      <point x="125" y="530" type="curve" smooth="yes"/>
      <point x="125" y="585"/>
      <point x="146" y="621"/>
      <point x="190" y="636" type="curve"/>
    </contour>
  </outline>
</glyph>
<glyph name="percent" format="2">
  <advance width="680"/>
  <unicode hex="0025"/>
  <outline>
    <contour>
      <point x="100" y="0" type="line"/>
      <point x="190" y="0" type="line"/>
      <point x="580" y="700" type="line"/>
      <point x="490" y="700" type="line"/>
    </contour>
    <contour>
      <point x="510" y="-10" type="curve" smooth="yes"/>
      <point x="600" y="-10"/>
      <point x="650" y="40"/>
      <point x="650" y="140" type="curve" smooth="yes"/>
      <point x="650" y="240"/>
      <point x="600" y="290"/>
      <point x="510" y="290" type="curve" smooth="yes"/>
      <point x="420" y="290"/>
      <point x="370" y="240"/>
      <point x="370" y="140" type="curve" smooth="yes"/>
      <point x="370" y="40"/>
      <point x="420" y="-10"/>
    </contour>
    <contour>
      <point x="510" y="50" type="curve" smooth="yes"/>
      <point x="470" y="50"/>
      <point x="445" y="75"/>
      <point x="445" y="140" type="curve" smooth="yes"/>
      <point x="445" y="205"/>
      <point x="470" y="230"/>
      <point x="510" y="230" type="curve" smooth="yes"/>
      <point x="550" y="230"/>
      <point x="575" y="205"/>
      <point x="575" y="140" type="curve" smooth="yes"/>
      <point x="575" y="75"/>
      <point x="550" y="50"/>
    </contour>
    <contour>
      <point x="170" y="410" type="curve" smooth="yes"/>
      <point x="260" y="410"/>
      <point x="310" y="460"/>
      <point x="310" y="560" type="curve" smooth="yes"/>
      <point x="310" y="660"/>
      <point x="260" y="710"/>
      <point x="170" y="710" type="curve" smooth="yes"/>
      <point x="80" y="710"/>
      <point x="30" y="660"/>
      <point x="30" y="560" type="curve" smooth="yes"/>
      <point x="30" y="460"/>
      <point x="80" y="410"/>
    </contour>
    <contour>
      <point x="170" y="470" type="curve" smooth="yes"/>
      <point x="130" y="470"/>
      <point x="105" y="495"/>
      <point x="105" y="560" type="curve" smooth="yes"/>
      <point x="105" y="625"/>
      <point x="130" y="650"/>
      <point x="170" y="650" type="curve" smooth="yes"/>
      <point x="210" y="650"/>
      <point x="235" y="625"/>
      <point x="235" y="560" type="curve" smooth="yes"/>
      <point x="235" y="495"/>
      <point x="210" y="470"/>
    </contour>
  </outline>
</glyph>
<glyph name="ampersand" format="2">
  <advance width="515"/>
  <unicode hex="0026"/>
  <outline>
    <contour>
      <point x="195" y="-10" type="curve" smooth="yes"/>
      <point x="285" y="-10"/>
      <point x="315" y="20"/>
      <point x="350" y="80" type="curve"/>
      <point x="405" y="0" type="line"/>
      <point x="505" y="0" type="line"/>
      <point x="385" y="170" type="line"/>
      <point x="475" y="390" type="line"/>
      <point x="385" y="390" type="line"/>
      <point x="330" y="255" type="line"/>
      <point x="220" y="405"/>
      <point x="210" y="466"/>
      <point x="210" y="530" type="curve" smooth="yes"/>
      <point x="210" y="605"/>
      <point x="250" y="645"/>
      <point x="310" y="645" type="curve" smooth="yes"/>
      <point x="440" y="645" type="line"/>
      <point x="440" y="690" type="line"/>
      <point x="410" y="700"/>
      <point x="350" y="710"/>
      <point x="290" y="710" type="curve" smooth="yes"/>
      <point x="180" y="710"/>
      <point x="120" y="650"/>
      <point x="120" y="530" type="curve" smooth="yes"/>
      <point x="120" y="440"/>
      <point x="150" y="365"/>
      <point x="295" y="160" type="curve"/>
      <point x="255" y="75"/>
      <point x="235" y="55"/>
      <point x="195" y="55" type="curve" smooth="yes"/>
      <point x="165" y="55"/>
      <point x="125" y="75"/>
      <point x="125" y="180" type="curve" smooth="yes"/>
      <point x="125" y="330" type="line"/>
      <point x="55" y="330" type="line"/>
      <point x="45" y="300"/>
      <point x="35" y="240"/>
      <point x="35" y="180" type="curve" smooth="yes"/>
      <point x="35" y="50"/>
      <point x="95" y="-10"/>
    </contour>
  </outline>
</glyph>
<glyph name="parenleft" format="2">
  <advance width="246"/>
  <unicode hex="0028"/>
  <outline>
    <contour>
      <point x="190" y="-190" type="curve"/>
      <point x="246" y="-160" type="line"/>
      <point x="180" y="-20"/>
      <point x="150" y="110"/>
      <point x="150" y="280" type="curve" smooth="yes"/>
      <point x="150" y="450"/>
      <point x="180" y="580"/>
      <point x="246" y="720" type="curve"/>
      <point x="190" y="750" type="line"/>
      <point x="80" y="570"/>
      <point x="50" y="410"/>
      <point x="50" y="280" type="curve" smooth="yes"/>
      <point x="50" y="150"/>
      <point x="80" y="-10"/>
    </contour>
  </outline>
</glyph>
<glyph name="parenright" format="2">
  <advance width="246"/>
  <unicode hex="0029"/>
  <outline>
    <contour>
      <point x="56" y="-190" type="line"/>
      <point x="166" y="-10"/>
      <point x="196" y="150"/>
      <point x="196" y="280" type="curve" smooth="yes"/>
      <point x="196" y="410"/>
      <point x="166" y="570"/>
      <point x="56" y="750" type="curve"/>
      <point x="0" y="720" type="line"/>
      <point x="66" y="580"/>
      <point x="96" y="450"/>
      <point x="96" y="280" type="curve" smooth="yes"/>
      <point x="96" y="110"/>
      <point x="66" y="-20"/>
      <point x="0" y="-160" type="curve"/>
    </contour>
  </outline>
</glyph>
<glyph name="asterisk" format="2">
  <advance width="430"/>
  <unicode hex="002A"/>
  <outline>
    <contour>
      <point x="145" y="325" type="line"/>
      <point x="215" y="455" type="line"/>
      <point x="285" y="325" type="line"/>
      <point x="350" y="360" type="line"/>
      <point x="280" y="490" type="line"/>
      <point x="410" y="515" type="line"/>
      <point x="394" y="585" type="line"/>
      <point x="255" y="555" type="line"/>
      <point x="255" y="700" type="line"/>
      <point x="175" y="700" type="line"/>
      <point x="175" y="555" type="line"/>
      <point x="36" y="585" type="line"/>
      <point x="20" y="515" type="line"/>
      <point x="150" y="490" type="line"/>
      <point x="80" y="360" type="line"/>
    </contour>
  </outline>
</glyph>
<glyph name="plus" format="2">
  <advance width="430"/>
  <unicode hex="002B"/>
  <outline>
    <contour>
      <point x="175" y="100" type="line"/>
      <point x="255" y="100" type="line"/>
      <point x="255" y="265" type="line"/>
      <point x="400" y="265" type="line"/>
      <point x="400" y="335" type="line"/>
      <point x="255" y="335" type="line"/>
      <point x="255" y="500" type="line"/>
      <point x="175" y="500" type="line"/>
      <point x="175" y="335" type="line"/>
      <point x="30" y="335" type="line"/>
      <point x="30" y="265" type="line"/>
      <point x="175" y="265" type="line"/>
    </contour>
  </outline>
</glyph>
<glyph name="hyphen" format="2">
  <advance width="360"/>
  <unicode hex="002D"/>
  <outline>
    <contour>
      <point x="30" y="265" type="line"/>
      <point x="330" y="265" type="line"/>
      <point x="330" y="335" type="line"/>
      <point x="30" y="335" type="line"/>
    </contour>
  </outline>
</glyph>
<glyph name="period" format="2">
  <advance width="170"/>
  <unicode hex="002E"/>
  <outline>
    <contour>
      <point x="40" y="-5" type="line"/>
      <point x="130" y="-5" type="line"/>
      <point x="130" y="105" type="line"/>
      <point x="40" y="105" type="line"/>
    </contour>
  </outline>
</glyph>
<glyph name="zero" format="2">
  <advance width="510"/>
  <unicode hex="0030"/>
  <outline>
    <contour>
      <point x="255" y="-10" type="curve" smooth="yes"/>
      <point x="380" y="-10"/>
      <point x="460" y="70"/>
      <point x="460" y="350" type="curve" smooth="yes"/>
      <point x="460" y="630"/>
      <point x="380" y="710"/>
      <point x="255" y="710" type="curve" smooth="yes"/>
      <point x="130" y="710"/>
      <point x="50" y="630"/>
      <point x="50" y="350" type="curve" smooth="yes"/>
      <point x="50" y="70"/>
      <point x="130" y="-10"/>
    </contour>
    <contour>
      <point x="255" y="50" type="curve" smooth="yes"/>
      <point x="200" y="50"/>
      <point x="140" y="110"/>
      <point x="140" y="350" type="curve" smooth="yes"/>
      <point x="140" y="590"/>
      <point x="200" y="650"/>
      <point x="255" y="650" type="curve" smooth="yes"/>
      <point x="310" y="650"/>
      <point x="370" y="590"/>
      <point x="370" y="350" type="curve" smooth="yes"/>
      <point x="370" y="110"/>
      <point x="310" y="50"/>
    </contour>
  </outline>
</glyph>
<glyph name="one" format="2">
  <advance width="280"/>
  <unicode hex="0031"/>
  <outline>
    <contour>
      <point x="120" y="0" type="line"/>
      <point x="210" y="0" type="line"/>
      <point x="210" y="700" type="line"/>
      <point x="160" y="700" type="line"/>
      <point x="100" y="700"/>
      <point x="40" y="690"/>
      <point x="10" y="680" type="curve"/>
      <point x="10" y="630" type="line"/>
      <point x="120" y="630" type="line"/>
    </contour>
  </outline>
</glyph>
<glyph name="two" format="2">
  <advance width="390"/>
  <unicode hex="0032"/>
  <outline>
    <contour>
      <point x="10" y="0" type="line"/>
      <point x="360" y="0" type="line"/>
      <point x="360" y="70" type="line"/>
      <point x="105" y="70" type="line"/>
      <point x="280" y="290"/>
      <point x="360" y="370"/>
      <point x="360" y="500" type="curve" smooth="yes"/>
      <point x="360" y="650"/>
      <point x="300" y="710"/>
      <point x="170" y="710" type="curve" smooth="yes"/>
      <point x="110" y="710"/>
      <point x="50" y="700"/>
      <point x="20" y="690" type="curve"/>
      <point x="20" y="645" type="line"/>
      <point x="160" y="645" type="line" smooth="yes"/>
      <point x="230" y="645"/>
      <point x="270" y="605"/>
      <point x="270" y="500" type="curve" smooth="yes"/>
      <point x="270" y="390"/>
      <point x="210" y="330"/>
      <point x="10" y="80" type="curve"/>
    </contour>
  </outline>
</glyph>
<glyph name="four" format="2">
  <advance width="470"/>
  <unicode hex="0034"/>
  <outline>
    <contour>
      <point x="290" y="0" type="line"/>
      <point x="380" y="0" type="line"/>
      <point x="380" y="180" type="line"/>
      <point x="440" y="180" type="line"/>
      <point x="440" y="250" type="line"/>
      <point x="380" y="250" type="line"/>
      <point x="380" y="700" type="line"/>
      <point x="280" y="700" type="line"/>
      <point x="30" y="260" type="line"/>
      <point x="30" y="180" type="line"/>
      <point x="290" y="180" type="line"/>
    </contour>
    <contour>
      <point x="115" y="250" type="line"/>
      <point x="286" y="555" type="line"/>
      <point x="290" y="555" type="line"/>
      <point x="290" y="250" type="line"/>
    </contour>
  </outline>
</glyph>
<glyph name="five" format="2">
  <advance width="445"/>
  <unicode hex="0035"/>
  <outline>
    <contour>
      <point x="195" y="-10" type="curve" smooth="yes"/>
      <point x="345" y="-10"/>
      <point x="405" y="50"/>
      <point x="405" y="200" type="curve" smooth="yes"/>
      <point x="405" y="350"/>
      <point x="345" y="410"/>
      <point x="195" y="410" type="curve" smooth="yes"/>
      <point x="150" y="410" type="line"/>
      <point x="150" y="635" type="line"/>
      <point x="385" y="635" type="line"/>
      <point x="385" y="700" type="line"/>
      <point x="60" y="700" type="line"/>
      <point x="60" y="345" type="line"/>
      <point x="175" y="345" type="line" smooth="yes"/>
      <point x="275" y="345"/>
      <point x="315" y="305"/>
      <point x="315" y="200" type="curve" smooth="yes"/>
      <point x="315" y="95"/>
      <point x="275" y="55"/>
      <point x="175" y="55" type="curve" smooth="yes"/>
      <point x="45" y="55" type="line"/>
      <point x="45" y="10" type="line"/>
      <point x="75" y="0"/>
      <point x="135" y="-10"/>
    </contour>
  </outline>
</glyph>
<glyph name="six" format="2">
  <advance width="455"/>
  <unicode hex="0036"/>
  <outline>
    <contour>
      <point x="235" y="-10" type="curve" smooth="yes"/>
      <point x="360" y="-10"/>
      <point x="420" y="50"/>
      <point x="420" y="200" type="curve" smooth="yes"/>
      <point x="420" y="360"/>
      <point x="360" y="420"/>
      <point x="260" y="420" type="curve" smooth="yes"/>
      <point x="220" y="420"/>
      <point x="170" y="410"/>
      <point x="140" y="400" type="curve"/>
      <point x="140" y="585"/>
      <point x="190" y="645"/>
      <point x="265" y="645" type="curve" smooth="yes"/>
      <point x="395" y="645" type="line"/>
      <point x="395" y="690" type="line"/>
      <point x="365" y="700"/>
      <point x="305" y="710"/>
      <point x="245" y="710" type="curve" smooth="yes"/>
      <point x="120" y="710"/>
      <point x="50" y="630"/>
      <point x="50" y="420" type="curve" smooth="yes"/>
      <point x="50" y="200" type="line" smooth="yes"/>
      <point x="50" y="50"/>
      <point x="110" y="-10"/>
    </contour>
    <contour>
      <point x="235" y="50" type="curve" smooth="yes"/>
      <point x="180" y="50"/>
      <point x="140" y="90"/>
      <point x="140" y="200" type="curve" smooth="yes"/>
      <point x="140" y="360" type="line"/>
      <point x="205" y="360" type="line"/>
      <point x="290" y="360"/>
      <point x="330" y="320"/>
      <point x="330" y="200" type="curve" smooth="yes"/>
      <point x="330" y="90"/>
      <point x="290" y="50"/>
    </contour>
  </outline>
</glyph>
<glyph name="seven" format="2">
  <advance width="410"/>
  <unicode hex="0037"/>
  <outline>
    <contour>
      <point x="110" y="0" type="curve"/>
      <point x="200" y="0" type="line"/>
      <point x="230" y="190"/>
      <point x="290" y="400"/>
      <point x="380" y="620" type="curve"/>
      <point x="380" y="700" type="line"/>
      <point x="20" y="700" type="line"/>
      <point x="20" y="630" type="line"/>
      <point x="290" y="630" type="line"/>
      <point x="200" y="400"/>
      <point x="140" y="190"/>
    </contour>
  </outline>
</glyph>
<glyph name="eight" format="2">
  <advance width="480"/>
  <unicode hex="0038"/>
  <outline>
    <contour>
      <point x="240" y="-10" type="curve" smooth="yes"/>
      <point x="380" y="-10"/>
      <point x="440" y="50"/>
      <point x="440" y="180" type="curve" smooth="yes"/>
      <point x="440" y="277"/>
      <point x="378" y="337"/>
      <point x="320" y="363" type="curve"/>
      <point x="320" y="367" type="line"/>
      <point x="369" y="385"/>
      <point x="425" y="443"/>
      <point x="425" y="535" type="curve" smooth="yes"/>
      <point x="425" y="650"/>
      <point x="365" y="710"/>
      <point x="240" y="710" type="curve" smooth="yes"/>
      <point x="115" y="710"/>
      <point x="55" y="650"/>
      <point x="55" y="535" type="curve" smooth="yes"/>
      <point x="55" y="443"/>
      <point x="111" y="385"/>
      <point x="160" y="367" type="curve"/>
      <point x="160" y="363" type="line"/>
      <point x="101" y="337"/>
      <point x="40" y="277"/>
      <point x="40" y="180" type="curve" smooth="yes"/>
      <point x="40" y="50"/>
      <point x="100" y="-10"/>
    </contour>
    <contour>
      <point x="240" y="50" type="curve" smooth="yes"/>
      <point x="170" y="50"/>
      <point x="130" y="90"/>
      <point x="130" y="180" type="curve" smooth="yes"/>
      <point x="130" y="255"/>
      <point x="175" y="295"/>
      <point x="240" y="325" type="curve"/>
      <point x="305" y="295"/>
      <point x="350" y="255"/>
      <point x="350" y="180" type="curve" smooth="yes"/>
      <point x="350" y="90"/>
      <point x="310" y="50"/>
    </contour>
    <contour>
      <point x="240" y="405" type="curve"/>
      <point x="185" y="425"/>
      <point x="145" y="465"/>
      <point x="145" y="535" type="curve" smooth="yes"/>
      <point x="145" y="610"/>
      <point x="185" y="650"/>
      <point x="240" y="650" type="curve" smooth="yes"/>
      <point x="295" y="650"/>
      <point x="335" y="610"/>
      <point x="335" y="535" type="curve" smooth="yes"/>
      <point x="335" y="465"/>
      <point x="295" y="425"/>
    </contour>
  </outline>
</glyph>
<glyph name="nine" format="2">
  <advance width="455"/>
  <unicode hex="0039"/>
  <outline>
    <contour>
      <point x="210" y="-10" type="curve" smooth="yes"/>
      <point x="335" y="-10"/>
      <point x="405" y="70"/>
      <point x="405" y="280" type="curve" smooth="yes"/>
      <point x="405" y="500" type="line" smooth="yes"/>
      <point x="405" y="650"/>
      <point x="345" y="710"/>
      <point x="220" y="710" type="curve" smooth="yes"/>
      <point x="95" y="710"/>
      <point x="35" y="650"/>
      <point x="35" y="500" type="curve" smooth="yes"/>
      <point x="35" y="340"/>
      <point x="95" y="280"/>
      <point x="195" y="280" type="curve" smooth="yes"/>
      <point x="235" y="280"/>
      <point x="285" y="290"/>
      <point x="315" y="300" type="curve"/>
      <point x="315" y="115"/>
      <point x="265" y="55"/>
      <point x="190" y="55" type="curve" smooth="yes"/>
      <point x="60" y="55" type="line"/>
      <point x="60" y="10" type="line"/>
      <point x="90" y="0"/>
      <point x="150" y="-10"/>
    </contour>
    <contour>
      <point x="250" y="340" type="line"/>
      <point x="165" y="340"/>
      <point x="125" y="380"/>
      <point x="125" y="500" type="curve" smooth="yes"/>
      <point x="125" y="610"/>
      <point x="165" y="650"/>
      <point x="220" y="650" type="curve" smooth="yes"/>
      <point x="275" y="650"/>
      <point x="315" y="610"/>
      <point x="315" y="500" type="curve" smooth="yes"/>
      <point x="315" y="340" type="line"/>
    </contour>
  </outline>
</glyph>
<glyph name="colon" format="2">
  <advance width="170"/>
  <unicode hex="003A"/>
  <outline>
    <contour>
      <point x="40" y="390" type="line"/>
      <point x="130" y="390" type="line"/>
      <point x="130" y="500" type="line"/>
      <point x="40" y="500" type="line"/>
    </contour>
    <contour>
      <point x="40" y="-5" type="line"/>
      <point x="130" y="-5" type="line"/>
      <point x="130" y="105" type="line"/>
      <point x="40" y="105" type="line"/>
    </contour>
  </outline>
</glyph>
<glyph name="semicolon" format="2">
  <advance width="165"/>
  <unicode hex="003B"/>
  <outline>
    <contour>
      <point x="40" y="-115" type="line"/>
      <point x="105" y="-115" type="line"/>
      <point x="135" y="105" type="line"/>
      <point x="40" y="105" type="line"/>
    </contour>
    <contour>
      <point x="40" y="390" type="line"/>
      <point x="130" y="390" type="line"/>
      <point x="130" y="500" type="line"/>
      <point x="40" y="500" type="line"/>
    </contour>
  </outline>
</glyph>
<glyph name="less" format="2">
  <advance width="400"/>
  <unicode hex="003C"/>
  <outline>
    <contour>
      <point x="360" y="10" type="line"/>
      <point x="360" y="105" type="line"/>
      <point x="130" y="249" type="line"/>
      <point x="130" y="256" type="line"/>
      <point x="360" y="400" type="line"/>
      <point x="360" y="495" type="line"/>
      <point x="40" y="295" type="line"/>
      <point x="40" y="210" type="line"/>
    </contour>
  </outline>
</glyph>
<glyph name="equal" format="2">
  <advance width="430"/>
  <unicode hex="003D"/>
  <outline>
    <contour>
      <point x="30" y="350" type="line"/>
      <point x="400" y="350" type="line"/>
      <point x="400" y="425" type="line"/>
      <point x="30" y="425" type="line"/>
    </contour>
    <contour>
      <point x="30" y="175" type="line"/>
      <point x="400" y="175" type="line"/>
      <point x="400" y="250" type="line"/>
      <point x="30" y="250" type="line"/>
    </contour>
  </outline>
</glyph>
<glyph name="greater" format="2">
  <advance width="400"/>
  <unicode hex="003E"/>
  <outline>
    <contour>
      <point x="40" y="10" type="line"/>
      <point x="360" y="210" type="line"/>
      <point x="360" y="295" type="line"/>
      <point x="40" y="495" type="line"/>
      <point x="40" y="400" type="line"/>
      <point x="270" y="256" type="line"/>
      <point x="270" y="249" type="line"/>
      <point x="40" y="105" type="line"/>
    </contour>
  </outline>
</glyph>
<glyph name="question" format="2">
  <advance width="370"/>
  <unicode hex="003F"/>
  <outline>
    <contour>
      <point x="105" y="185" type="curve"/>
      <point x="185" y="185" type="line"/>
      <point x="185" y="330"/>
      <point x="340" y="350"/>
      <point x="340" y="520" type="curve" smooth="yes"/>
      <point x="340" y="650"/>
      <point x="280" y="710"/>
      <point x="160" y="710" type="curve" smooth="yes"/>
      <point x="100" y="710"/>
      <point x="40" y="700"/>
      <point x="10" y="690" type="curve"/>
      <point x="10" y="645" type="line"/>
      <point x="140" y="645" type="line" smooth="yes"/>
      <point x="210" y="645"/>
      <point x="250" y="605"/>
      <point x="250" y="520" type="curve" smooth="yes"/>
      <point x="250" y="380"/>
      <point x="105" y="360"/>
    </contour>
    <contour>
      <point x="100" y="-5" type="line"/>
      <point x="190" y="-5" type="line"/>
      <point x="190" y="105" type="line"/>
      <point x="100" y="105" type="line"/>
    </contour>
  </outline>
</glyph>
<glyph name="at" format="2">
  <advance width="830"/>
  <unicode hex="0040"/>
  <outline>
    <contour>
      <point x="430" y="-90" type="curve" smooth="yes"/>
      <point x="490" y="-90"/>
      <point x="550" y="-80"/>
      <point x="580" y="-70" type="curve"/>
      <point x="580" y="-25" type="line"/>
      <point x="450" y="-25" type="line" smooth="yes"/>
      <point x="240" y="-25"/>
      <point x="140" y="65"/>
      <point x="140" y="310" type="curve" smooth="yes"/>
      <point x="140" y="560"/>
      <point x="240" y="650"/>
      <point x="410" y="650" type="curve" smooth="yes"/>
      <point x="590" y="650"/>
      <point x="690" y="550"/>
      <point x="690" y="365" type="curve" smooth="yes"/>
      <point x="690" y="195"/>
      <point x="650" y="155"/>
      <point x="580" y="155" type="curve"/>
      <point x="580" y="520" type="line"/>
      <point x="550" y="530"/>
      <point x="490" y="540"/>
      <point x="450" y="540" type="curve" smooth="yes"/>
      <point x="300" y="540"/>
      <point x="240" y="480"/>
      <point x="240" y="290" type="curve" smooth="yes"/>
      <point x="240" y="140"/>
      <point x="310" y="80"/>
      <point x="390" y="80" type="curve" smooth="yes"/>
      <point x="430" y="80"/>
      <point x="470" y="95"/>
      <point x="495" y="120" type="curve"/>
      <point x="500" y="120" type="line"/>
      <point x="505" y="90" type="line"/>
      <point x="715" y="90"/>
      <point x="780" y="160"/>
      <point x="780" y="365" type="curve" smooth="yes"/>
      <point x="780" y="580"/>
      <point x="650" y="710"/>
      <point x="410" y="710" type="curve" smooth="yes"/>
      <point x="180" y="710"/>
      <point x="50" y="580"/>
      <point x="50" y="310" type="curve" smooth="yes"/>
      <point x="50" y="40"/>
      <point x="180" y="-90"/>
    </contour>
    <contour>
      <point x="420" y="140" type="curve" smooth="yes"/>
      <point x="370" y="140"/>
      <point x="330" y="180"/>
      <point x="330" y="290" type="curve" smooth="yes"/>
      <point x="330" y="440"/>
      <point x="370" y="480"/>
      <point x="450" y="480" type="curve" smooth="yes"/>
      <point x="490" y="480" type="line"/>
      <point x="490" y="160" type="line"/>
      <point x="475" y="150"/>
      <point x="445" y="140"/>
    </contour>
  </outline>
</glyph>
<glyph name="A" format="2">
  <advance width="510"/>
  <unicode hex="0041"/>
  <anchor x="255" y="0" name="bottom"/>
  <anchor x="429" y="0" name="ogonek"/>
  <anchor x="255" y="700" name="top"/>
  <outline>
    <contour>
      <point x="20" y="0" type="line"/>
      <point x="110" y="0" type="line"/>
      <point x="155" y="180" type="line"/>
      <point x="355" y="180" type="line"/>
      <point x="400" y="0" type="line"/>
      <point x="490" y="0" type="line"/>
      <point x="320" y="700" type="line"/>
      <point x="190" y="700" type="line"/>
    </contour>
    <contour>
      <point x="170" y="250" type="line"/>
      <point x="253" y="600" type="line"/>
      <point x="257" y="600" type="line"/>
      <point x="340" y="250" type="line"/>
    </contour>
  </outline>
</glyph>
<glyph name="B" format="2">
  <advance width="500"/>
  <unicode hex="0042"/>
  <outline>
    <contour>
      <point x="230" y="-10" type="curve" smooth="yes"/>
      <point x="400" y="-10"/>
      <point x="460" y="50"/>
      <point x="460" y="190" type="curve" smooth="yes"/>
      <point x="460" y="280"/>
      <point x="430" y="350"/>
      <point x="350" y="373" type="curve"/>
      <point x="350" y="377" type="line"/>
      <point x="410" y="410"/>
      <point x="430" y="465"/>
      <point x="430" y="525" type="curve" smooth="yes"/>
      <point x="430" y="650"/>
      <point x="370" y="710"/>
      <point x="230" y="710" type="curve" smooth="yes"/>
      <point x="170" y="710"/>
      <point x="120" y="705"/>
      <point x="70" y="690" type="curve"/>
      <point x="70" y="10" type="line"/>
      <point x="120" y="-5"/>
      <point x="170" y="-10"/>
    </contour>
    <contour>
      <point x="160" y="55" type="line"/>
      <point x="160" y="335" type="line"/>
      <point x="230" y="335" type="line"/>
      <point x="330" y="335"/>
      <point x="370" y="295"/>
      <point x="370" y="190" type="curve" smooth="yes"/>
      <point x="370" y="94"/>
      <point x="330" y="55"/>
      <point x="230" y="55" type="curve" smooth="yes"/>
    </contour>
    <contour>
      <point x="160" y="400" type="line"/>
      <point x="160" y="645" type="line"/>
      <point x="220" y="645" type="line" smooth="yes"/>
      <point x="300" y="645"/>
      <point x="340" y="605"/>
      <point x="340" y="525" type="curve" smooth="yes"/>
      <point x="340" y="440"/>
      <point x="300" y="400"/>
      <point x="220" y="400" type="curve" smooth="yes"/>
    </contour>
  </outline>
</glyph>
<glyph name="E" format="2">
  <advance width="450"/>
  <unicode hex="0045"/>
  <anchor x="225" y="0" name="bottom"/>
  <anchor x="345" y="0" name="ogonek"/>
  <anchor x="225" y="700" name="top"/>
  <anchor x="20" y="700" name="topleft"/>
  <outline>
    <contour>
      <point x="70" y="0" type="line"/>
      <point x="410" y="0" type="line"/>
      <point x="410" y="70" type="line"/>
      <point x="160" y="70" type="line"/>
      <point x="160" y="330" type="line"/>
      <point x="380" y="330" type="line"/>
      <point x="380" y="400" type="line"/>
      <point x="160" y="400" type="line"/>
      <point x="160" y="630" type="line"/>
      <point x="410" y="630" type="line"/>
      <point x="410" y="700" type="line"/>
      <point x="70" y="700" type="line"/>
    </contour>
  </outline>
</glyph>
<glyph name="F" format="2">
  <advance width="430"/>
  <unicode hex="0046"/>
  <outline>
    <contour>
      <point x="70" y="0" type="line"/>
      <point x="160" y="0" type="line"/>
      <point x="160" y="315" type="line"/>
      <point x="370" y="315" type="line"/>
      <point x="370" y="385" type="line"/>
      <point x="160" y="385" type="line"/>
      <point x="160" y="630" type="line"/>
      <point x="410" y="630" type="line"/>
      <point x="410" y="700" type="line"/>
      <point x="70" y="700" type="line"/>
    </contour>
  </outline>
</glyph>
<glyph name="G" format="2">
  <advance width="500"/>
  <unicode hex="0047"/>
  <anchor x="276" y="0" name="bottom"/>
  <anchor x="273" y="700" name="top"/>
  <outline>
    <contour>
      <point x="290" y="-10" type="curve" smooth="yes"/>
      <point x="350" y="-10"/>
      <point x="410" y="0"/>
      <point x="440" y="10" type="curve"/>
      <point x="440" y="380" type="line"/>
      <point x="350" y="380" type="line"/>
      <point x="350" y="55" type="line"/>
      <point x="310" y="55" type="line" smooth="yes"/>
      <point x="200" y="55"/>
      <point x="140" y="115"/>
      <point x="140" y="350" type="curve" smooth="yes"/>
      <point x="140" y="585"/>
      <point x="200" y="645"/>
      <point x="290" y="645" type="curve" smooth="yes"/>
      <point x="420" y="645" type="line"/>
      <point x="420" y="690" type="line"/>
      <point x="390" y="700"/>
      <point x="330" y="710"/>
      <point x="270" y="710" type="curve" smooth="yes"/>
      <point x="130" y="710"/>
      <point x="50" y="630"/>
      <point x="50" y="350" type="curve" smooth="yes"/>
      <point x="50" y="70"/>
      <point x="130" y="-10"/>
    </contour>
  </outline>
</glyph>
<glyph name="I" format="2">
  <advance width="230"/>
  <unicode hex="0049"/>
  <anchor x="115" y="0" name="bottom"/>
  <anchor x="207" y="10" name="ogonek"/>
  <anchor x="115" y="700" name="top"/>
  <anchor x="20" y="700" name="topleft"/>
  <outline>
    <contour>
      <point x="70" y="0" type="line"/>
      <point x="160" y="0" type="line"/>
      <point x="160" y="700" type="line"/>
      <point x="70" y="700" type="line"/>
    </contour>
  </outline>
</glyph>
<glyph name="J" format="2">
  <advance width="350"/>
  <unicode hex="004A"/>
  <outline>
    <contour>
      <point x="90" y="-10" type="curve" smooth="yes"/>
      <point x="230" y="-10"/>
      <point x="290" y="50"/>
      <point x="290" y="240" type="curve" smooth="yes"/>
      <point x="290" y="700" type="line"/>
      <point x="200" y="700" type="line"/>
      <point x="200" y="240" type="line" smooth="yes"/>
      <point x="200" y="95"/>
      <point x="160" y="55"/>
      <point x="90" y="55" type="curve" smooth="yes"/>
      <point x="0" y="55" type="line"/>
      <point x="0" y="10" type="line"/>
      <point x="25" y="0"/>
      <point x="60" y="-10"/>
    </contour>
  </outline>
</glyph>
<glyph name="K" format="2">
  <advance width="490"/>
  <unicode hex="004B"/>
  <outline>
    <contour>
      <point x="70" y="0" type="line"/>
      <point x="160" y="0" type="line"/>
      <point x="160" y="350" type="line"/>
      <point x="375" y="0" type="line"/>
      <point x="480" y="0" type="line"/>
      <point x="255" y="355" type="line"/>
      <point x="460" y="700" type="line"/>
      <point x="355" y="700" type="line"/>
      <point x="160" y="360" type="line"/>
      <point x="160" y="700" type="line"/>
      <point x="70" y="700" type="line"/>
    </contour>
  </outline>
</glyph>
<glyph name="N" format="2">
  <advance width="540"/>
  <unicode hex="004E"/>
  <anchor x="265" y="0" name="bottom"/>
  <anchor x="275" y="700" name="top"/>
  <outline>
    <contour>
      <point x="70" y="0" type="line"/>
      <point x="160" y="0" type="line"/>
      <point x="160" y="495" type="line"/>
      <point x="165" y="495" type="line"/>
      <point x="370" y="0" type="line"/>
      <point x="470" y="0" type="line"/>
      <point x="470" y="700" type="line"/>
      <point x="380" y="700" type="line"/>
      <point x="380" y="205" type="line"/>
      <point x="375" y="205" type="line"/>
      <point x="170" y="700" type="line"/>
      <point x="70" y="700" type="line"/>
    </contour>
  </outline>
</glyph>
<glyph name="O" format="2">
  <advance width="530"/>
  <unicode hex="004F"/>
  <anchor x="265" y="0" name="bottom"/>
  <anchor x="265" y="350" name="center"/>
  <anchor x="477" y="10" name="ogonek"/>
  <anchor x="265" y="700" name="top"/>
  <anchor x="20" y="700" name="topleft"/>
  <anchor x="397" y="700" name="topright"/>
  <outline>
    <contour>
      <point x="265" y="-10" type="curve" smooth="yes"/>
      <point x="400" y="-10"/>
      <point x="480" y="70"/>
      <point x="480" y="350" type="curve" smooth="yes"/>
      <point x="480" y="630"/>
      <point x="400" y="710"/>
      <point x="265" y="710" type="curve" smooth="yes"/>
      <point x="130" y="710"/>
      <point x="50" y="630"/>
      <point x="50" y="350" type="curve" smooth="yes"/>
      <point x="50" y="70"/>
      <point x="130" y="-10"/>
    </contour>
    <contour>
      <point x="265" y="50" type="curve" smooth="yes"/>
      <point x="200" y="50"/>
      <point x="140" y="110"/>
      <point x="140" y="350" type="curve" smooth="yes"/>
      <point x="140" y="590"/>
      <point x="200" y="650"/>
      <point x="265" y="650" type="curve" smooth="yes"/>
      <point x="330" y="650"/>
      <point x="390" y="590"/>
      <point x="390" y="350" type="curve" smooth="yes"/>
      <point x="390" y="110"/>
      <point x="330" y="50"/>
    </contour>
  </outline>
</glyph>
<glyph name="P" format="2">
  <advance width="490"/>
  <unicode hex="0050"/>
  <outline>
    <contour>
      <point x="70" y="0" type="line"/>
      <point x="160" y="0" type="line"/>
      <point x="160" y="215" type="line"/>
      <point x="185" y="210"/>
      <point x="230" y="205"/>
      <point x="260" y="205" type="curve" smooth="yes"/>
      <point x="390" y="205"/>
      <point x="450" y="265"/>
      <point x="450" y="460" type="curve" smooth="yes"/>
      <point x="450" y="650"/>
      <point x="390" y="710"/>
      <point x="230" y="710" type="curve" smooth="yes"/>
      <point x="170" y="710"/>
      <point x="120" y="705"/>
      <point x="70" y="690" type="curve"/>
    </contour>
    <contour>
      <point x="160" y="275" type="line"/>
      <point x="160" y="645" type="line"/>
      <point x="230" y="645" type="line" smooth="yes"/>
      <point x="320" y="645"/>
      <point x="360" y="605"/>
      <point x="360" y="460" type="curve" smooth="yes"/>
      <point x="360" y="315"/>
      <point x="320" y="275"/>
      <point x="230" y="275" type="curve" smooth="yes"/>
    </contour>
  </outline>
</glyph>
<glyph name="Q" format="2">
  <advance width="540"/>
  <unicode hex="0051"/>
  <outline>
    <contour>
      <point x="265" y="-10" type="curve" smooth="yes"/>
      <point x="530" y="-10" type="line"/>
      <point x="530" y="30" type="line"/>
      <point x="500" y="40"/>
      <point x="460" y="50"/>
      <point x="410" y="50" type="curve"/>
      <point x="455" y="105"/>
      <point x="480" y="195"/>
      <point x="480" y="350" type="curve" smooth="yes"/>
      <point x="480" y="630"/>
      <point x="400" y="710"/>
      <point x="265" y="710" type="curve" smooth="yes"/>
      <point x="130" y="710"/>
      <point x="50" y="630"/>
      <point x="50" y="350" type="curve" smooth="yes"/>
      <point x="50" y="70"/>
      <point x="130" y="-10"/>
    </contour>
    <contour>
      <point x="265" y="50" type="curve" smooth="yes"/>
      <point x="200" y="50"/>
      <point x="140" y="110"/>
      <point x="140" y="350" type="curve" smooth="yes"/>
      <point x="140" y="590"/>
      <point x="200" y="650"/>
      <point x="265" y="650" type="curve" smooth="yes"/>
      <point x="330" y="650"/>
      <point x="390" y="590"/>
      <point x="390" y="350" type="curve" smooth="yes"/>
      <point x="390" y="110"/>
      <point x="330" y="50"/>
    </contour>
  </outline>
</glyph>
<glyph name="R" format="2">
  <advance width="505"/>
  <unicode hex="0052"/>
  <anchor x="266" y="0" name="bottom"/>
  <anchor x="235" y="700" name="top"/>
  <outline>
    <contour>
      <point x="70" y="0" type="line"/>
      <point x="160" y="0" type="line"/>
      <point x="160" y="230" type="line"/>
      <point x="260" y="230" type="line"/>
      <point x="370" y="0" type="line"/>
      <point x="470" y="0" type="line"/>
      <point x="350" y="250" type="line"/>
      <point x="415" y="275"/>
      <point x="450" y="335"/>
      <point x="450" y="470" type="curve" smooth="yes"/>
      <point x="450" y="650"/>
      <point x="390" y="710"/>
      <point x="230" y="710" type="curve" smooth="yes"/>
      <point x="170" y="710"/>
      <point x="120" y="705"/>
      <point x="70" y="690" type="curve"/>
    </contour>
    <contour>
      <point x="160" y="300" type="line"/>
      <point x="160" y="645" type="line"/>
      <point x="230" y="645" type="line" smooth="yes"/>
      <point x="320" y="645"/>
      <point x="360" y="605"/>
      <point x="360" y="470" type="curve" smooth="yes"/>
      <point x="360" y="340"/>
      <point x="320" y="300"/>
      <point x="230" y="300" type="curve" smooth="yes"/>
    </contour>
  </outline>
</glyph>
<glyph name="S" format="2">
  <advance width="445"/>
  <unicode hex="0053"/>
  <outline>
    <contour>
      <point x="185" y="-10" type="curve" smooth="yes"/>
      <point x="350" y="-10"/>
      <point x="410" y="50"/>
      <point x="410" y="180" type="curve" smooth="yes"/>
      <point x="410" y="425"/>
      <point x="125" y="345"/>
      <point x="125" y="530" type="curve" smooth="yes"/>
      <point x="125" y="605"/>
      <point x="165" y="645"/>
      <point x="245" y="645" type="curve" smooth="yes"/>
      <point x="375" y="645" type="line"/>
      <point x="375" y="690" type="line"/>
      <point x="345" y="700"/>
      <point x="285" y="710"/>
      <point x="225" y="710" type="curve" smooth="yes"/>
      <point x="95" y="710"/>
      <point x="35" y="650"/>
      <point x="35" y="530" type="curve" smooth="yes"/>
      <point x="35" y="275"/>
      <point x="320" y="355"/>
      <point x="320" y="180" type="curve" smooth="yes"/>
      <point x="320" y="95"/>
      <point x="280" y="55"/>
      <point x="165" y="55" type="curve" smooth="yes"/>
      <point x="35" y="55" type="line"/>
      <point x="35" y="10" type="line"/>
      <point x="65" y="0"/>
      <point x="125" y="-10"/>
    </contour>
  </outline>
</glyph>
<glyph name="U" format="2">
  <advance width="520"/>
  <unicode hex="0055"/>
  <anchor x="260" y="0" name="bottom"/>
  <anchor x="260" y="0" name="ogonek"/>
  <anchor x="260" y="700" name="top"/>
  <anchor x="482" y="700" name="topright"/>
  <outline>
    <contour>
      <point x="260" y="-10" type="curve" smooth="yes"/>
      <point x="400" y="-10"/>
      <point x="460" y="50"/>
      <point x="460" y="240" type="curve" smooth="yes"/>
      <point x="460" y="700" type="line"/>
      <point x="370" y="700" type="line"/>
      <point x="370" y="240" type="line" smooth="yes"/>
      <point x="370" y="90"/>
      <point x="330" y="50"/>
      <point x="260" y="50" type="curve" smooth="yes"/>
      <point x="190" y="50"/>
      <point x="150" y="90"/>
      <point x="150" y="240" type="curve" smooth="yes"/>
      <point x="150" y="700" type="line"/>
      <point x="60" y="700" type="line"/>
      <point x="60" y="240" type="line" smooth="yes"/>
      <point x="60" y="50"/>
      <point x="120" y="-10"/>
    </contour>
  </outline>
</glyph>
<glyph name="V" format="2">
  <advance width="490"/>
  <unicode hex="0056"/>
  <outline>
    <contour>
      <point x="180" y="0" type="line"/>
      <point x="310" y="0" type="line"/>
      <point x="470" y="700" type="line"/>
      <point x="380" y="700" type="line"/>
      <point x="247" y="95" type="line"/>
      <point x="243" y="95" type="line"/>
      <point x="110" y="700" type="line"/>
      <point x="20" y="700" type="line"/>
    </contour>
  </outline>
</glyph>
<glyph name="W" format="2">
  <advance width="720"/>
  <unicode hex="0057"/>
  <outline>
    <contour>
      <point x="135" y="0" type="line"/>
      <point x="245" y="0" type="line"/>
      <point x="358" y="420" type="line"/>
      <point x="362" y="420" type="line"/>
      <point x="475" y="0" type="line"/>
      <point x="585" y="0" type="line"/>
      <point x="700" y="700" type="line"/>
      <point x="610" y="700" type="line"/>
      <point x="520" y="160" type="line"/>
      <point x="515" y="160" type="line"/>
      <point x="405" y="570" type="line"/>
      <point x="315" y="570" type="line"/>
      <point x="205" y="160" type="line"/>
      <point x="200" y="160" type="line"/>
      <point x="110" y="700" type="line"/>
      <point x="20" y="700" type="line"/>
    </contour>
  </outline>
</glyph>
<glyph name="Z" format="2">
  <advance width="405"/>
  <unicode hex="005A"/>
  <outline>
    <contour>
      <point x="20" y="0" type="line"/>
      <point x="380" y="0" type="line"/>
      <point x="380" y="70" type="line"/>
      <point x="125" y="70" type="line"/>
      <point x="385" y="635" type="line"/>
      <point x="385" y="700" type="line"/>
      <point x="25" y="700" type="line"/>
      <point x="25" y="630" type="line"/>
      <point x="280" y="630" type="line"/>
      <point x="20" y="65" type="line"/>
    </contour>
  </outline>
</glyph>
<glyph name="bracketleft" format="2">
  <advance width="260"/>
  <unicode hex="005B"/>
  <outline>
    <contour>
      <point x="70" y="-180" type="line"/>
      <point x="260" y="-180" type="line"/>
      <point x="260" y="-120" type="line"/>
      <point x="160" y="-120" type="line"/>
      <point x="160" y="680" type="line"/>
      <point x="260" y="680" type="line"/>
      <point x="260" y="740" type="line"/>
      <point x="70" y="740" type="line"/>
    </contour>
  </outline>
</glyph>
<glyph name="backslash" format="2">
  <advance width="390"/>
  <unicode hex="005C"/>
  <outline>
    <contour>
      <point x="300" y="0" type="line"/>
      <point x="390" y="0" type="line"/>
      <point x="90" y="700" type="line"/>
      <point x="0" y="700" type="line"/>
    </contour>
  </outline>
</glyph>
<glyph name="bracketright" format="2">
  <advance width="260"/>
  <unicode hex="005D"/>
  <outline>
    <contour>
      <point x="0" y="-180" type="line"/>
      <point x="190" y="-180" type="line"/>
      <point x="190" y="740" type="line"/>
      <point x="0" y="740" type="line"/>
      <point x="0" y="680" type="line"/>
      <point x="100" y="680" type="line"/>
      <point x="100" y="-120" type="line"/>
      <point x="0" y="-120" type="line"/>
    </contour>
  </outline>
</glyph>
<glyph name="asciicircum" format="2">
  <advance width="445"/>
  <unicode hex="005E"/>
  <outline>
    <contour>
      <point x="95" y="410" type="line"/>
      <point x="220" y="610" type="line"/>
      <point x="225" y="610" type="line"/>
      <point x="350" y="410" type="line"/>
      <point x="415" y="450" type="line"/>
      <point x="265" y="700" type="line"/>
      <point x="180" y="700" type="line"/>
      <point x="30" y="450" type="line"/>
    </contour>
  </outline>
</glyph>
<glyph name="underscore" format="2">
  <advance width="300"/>
  <unicode hex="005F"/>
  <outline>
    <contour>
      <point x="0" y="-70" type="line"/>
      <point x="300" y="-70" type="line"/>
      <point x="300" y="0" type="line"/>
      <point x="0" y="0" type="line"/>
    </contour>
  </outline>
</glyph>
<glyph name="grave" format="2">
  <advance width="170"/>
  <unicode hex="0060"/>
  <outline>
    <contour>
      <point x="85" y="560" type="line"/>
      <point x="145" y="560" type="line"/>
      <point x="117" y="690" type="line"/>
      <point x="22" y="690" type="line"/>
    </contour>
  </outline>
</glyph>
<glyph name="b" format="2">
  <advance width="470"/>
  <unicode hex="0062"/>
  <outline>
    <contour>
      <point x="230" y="-10" type="curve" smooth="yes"/>
      <point x="365" y="-10"/>
      <point x="425" y="50"/>
      <point x="425" y="250" type="curve" smooth="yes"/>
      <point x="425" y="450"/>
      <point x="365" y="510"/>
      <point x="260" y="510" type="curve" smooth="yes"/>
      <point x="220" y="510"/>
      <point x="190" y="500"/>
      <point x="160" y="485" type="curve"/>
      <point x="160" y="700" type="line"/>
      <point x="70" y="700" type="line"/>
      <point x="70" y="20" type="line"/>
      <point x="120" y="0"/>
      <point x="170" y="-10"/>
    </contour>
    <contour>
      <point x="160" y="50" type="line"/>
      <point x="160" y="430" type="line"/>
      <point x="175" y="440"/>
      <point x="205" y="450"/>
      <point x="230" y="450" type="curve" smooth="yes"/>
      <point x="295" y="450"/>
      <point x="335" y="410"/>
      <point x="335" y="250" type="curve" smooth="yes"/>
      <point x="335" y="90"/>
      <point x="295" y="50"/>
      <point x="230" y="50" type="curve" smooth="yes"/>
    </contour>
  </outline>
</glyph>
<glyph name="d" format="2">
  <advance width="470"/>
  <unicode hex="0064"/>
  <anchor x="235" y="0" name="bottom"/>
  <anchor x="300" y="609" name="center"/>
  <anchor x="235" y="500" name="top"/>
  <anchor x="450" y="500" name="topright"/>
  <outline>
    <contour>
      <point x="210" y="-10" type="curve" smooth="yes"/>
      <point x="250" y="-10"/>
      <point x="290" y="5"/>
      <point x="315" y="30" type="curve"/>
      <point x="320" y="30" type="line"/>
      <point x="325" y="0" type="line"/>
      <point x="400" y="0" type="line"/>
      <point x="400" y="700" type="line"/>
      <point x="310" y="700" type="line"/>
      <point x="310" y="485" type="line"/>
      <point x="280" y="500"/>
      <point x="250" y="510"/>
      <point x="210" y="510" type="curve" smooth="yes"/>
      <point x="105" y="510"/>
      <point x="45" y="450"/>
      <point x="45" y="250" type="curve" smooth="yes"/>
      <point x="45" y="50"/>
      <point x="105" y="-10"/>
    </contour>
    <contour>
      <point x="240" y="50" type="curve" smooth="yes"/>
      <point x="175" y="50"/>
      <point x="135" y="90"/>
      <point x="135" y="250" type="curve"/>
      <point x="135" y="410"/>
      <point x="175" y="450"/>
      <point x="240" y="450" type="curve" smooth="yes"/>
      <point x="265" y="450"/>
      <point x="295" y="440"/>
      <point x="310" y="430" type="curve"/>
      <point x="310" y="70" type="line"/>
      <point x="295" y="60"/>
      <point x="265" y="50"/>
    </contour>
  </outline>
</glyph>
<glyph name="f" format="2">
  <advance width="320"/>
  <unicode hex="0066"/>
  <outline>
    <contour>
      <point x="80" y="0" type="line"/>
      <point x="170" y="0" type="line"/>
      <point x="170" y="425" type="line"/>
      <point x="190" y="425" type="line" smooth="yes"/>
      <point x="230" y="425"/>
      <point x="280" y="435"/>
      <point x="310" y="445" type="curve"/>
      <point x="310" y="490" type="line"/>
      <point x="170" y="490" type="line"/>
      <point x="170" y="530" type="line" smooth="yes"/>
      <point x="170" y="620"/>
      <point x="210" y="640"/>
      <point x="240" y="640" type="curve" smooth="yes"/>
      <point x="330" y="640" type="line"/>
      <point x="330" y="680" type="line"/>
      <point x="305" y="690"/>
      <point x="250" y="700"/>
      <point x="220" y="700" type="curve" smooth="yes"/>
      <point x="140" y="700"/>
      <point x="80" y="670"/>
      <point x="80" y="530" type="curve" smooth="yes"/>
      <point x="80" y="490" type="line"/>
      <point x="20" y="490" type="line"/>
      <point x="20" y="425" type="line"/>
      <point x="80" y="425" type="line"/>
    </contour>
  </outline>
</glyph>
<glyph name="g" format="2">
  <advance width="465"/>
  <unicode hex="0067"/>
  <outline>
    <contour>
      <point x="200" y="-210" type="curve" smooth="yes"/>
      <point x="340" y="-210"/>
      <point x="400" y="-150"/>
      <point x="400" y="40" type="curve" smooth="yes"/>
      <point x="400" y="480" type="line"/>
      <point x="350" y="500"/>
      <point x="300" y="510"/>
      <point x="240" y="510" type="curve" smooth="yes"/>
      <point x="105" y="510"/>
      <point x="45" y="450"/>
      <point x="45" y="250" type="curve" smooth="yes"/>
      <point x="45" y="50"/>
      <point x="105" y="-10"/>
      <point x="210" y="-10" type="curve" smooth="yes"/>
      <point x="250" y="-10"/>
      <point x="280" y="0"/>
      <point x="310" y="15" type="curve"/>
      <point x="310" y="-110"/>
      <point x="270" y="-150"/>
      <point x="180" y="-150" type="curve" smooth="yes"/>
      <point x="80" y="-150" type="line"/>
      <point x="80" y="-190" type="line"/>
      <point x="110" y="-200"/>
      <point x="160" y="-210"/>
    </contour>
    <contour>
      <point x="240" y="50" type="curve" smooth="yes"/>
      <point x="175" y="50"/>
      <point x="135" y="90"/>
      <point x="135" y="250" type="curve" smooth="yes"/>
      <point x="135" y="410"/>
      <point x="175" y="450"/>
      <point x="240" y="450" type="curve" smooth="yes"/>
      <point x="310" y="450" type="line"/>
      <point x="310" y="70" type="line"/>
      <point x="295" y="60"/>
      <point x="265" y="50"/>
    </contour>
  </outline>
</glyph>
<glyph name="h" format="2">
  <advance width="480"/>
  <unicode hex="0068"/>
  <outline>
    <contour>
      <point x="70" y="0" type="line"/>
      <point x="160" y="0" type="line"/>
      <point x="160" y="430" type="line"/>
      <point x="175" y="440"/>
      <point x="205" y="450"/>
      <point x="230" y="450" type="curve" smooth="yes"/>
      <point x="285" y="450"/>
      <point x="325" y="430"/>
      <point x="325" y="360" type="curve" smooth="yes"/>
      <point x="325" y="0" type="line"/>
      <point x="415" y="0" type="line"/>
      <point x="415" y="360" type="line" smooth="yes"/>
      <point x="415" y="480"/>
      <point x="355" y="510"/>
      <point x="270" y="510" type="curve" smooth="yes"/>
      <point x="225" y="510"/>
      <point x="190" y="500"/>
      <point x="160" y="485" type="curve"/>
      <point x="160" y="700" type="line"/>
      <point x="70" y="700" type="line"/>
    </contour>
  </outline>
</glyph>
<glyph name="i" format="2">
  <advance width="230"/>
  <unicode hex="0069"/>
  <anchor x="115" y="0" name="bottom"/>
  <outline>
    <contour>
      <point x="70" y="0" type="line"/>
      <point x="160" y="0" type="line"/>
      <point x="160" y="500" type="line"/>
      <point x="70" y="500" type="line"/>
    </contour>
    <contour>
      <point x="70" y="570" type="line"/>
      <point x="160" y="570" type="line"/>
      <point x="160" y="680" type="line"/>
      <point x="70" y="680" type="line"/>
    </contour>
  </outline>
</glyph>
<glyph name="k" format="2">
  <advance width="435"/>
  <unicode hex="006B"/>
  <outline>
    <contour>
      <point x="70" y="0" type="line"/>
      <point x="160" y="0" type="line"/>
      <point x="160" y="260" type="line"/>
      <point x="325" y="0" type="line"/>
      <point x="425" y="0" type="line"/>
      <point x="250" y="265" type="line"/>
      <point x="405" y="500" type="line"/>
      <point x="305" y="500" type="line"/>
      <point x="160" y="270" type="line"/>
      <point x="160" y="700" type="line"/>
      <point x="70" y="700" type="line"/>
    </contour>
  </outline>
</glyph>
<glyph name="m" format="2">
  <advance width="690"/>
  <unicode hex="006D"/>
  <outline>
    <contour>
      <point x="65" y="0" type="line"/>
      <point x="155" y="0" type="line"/>
      <point x="155" y="430" type="line"/>
      <point x="170" y="440"/>
      <point x="195" y="450"/>
      <point x="220" y="450" type="curve" smooth="yes"/>
      <point x="260" y="450"/>
      <point x="300" y="430"/>
      <point x="300" y="360" type="curve" smooth="yes"/>
      <point x="300" y="0" type="line"/>
      <point x="390" y="0" type="line"/>
      <point x="390" y="360" type="line"/>
      <point x="390" y="390"/>
      <point x="385" y="415"/>
      <point x="380" y="430" type="curve"/>
      <point x="395" y="440"/>
      <point x="425" y="450"/>
      <point x="455" y="450" type="curve" smooth="yes"/>
      <point x="495" y="450"/>
      <point x="535" y="430"/>
      <point x="535" y="360" type="curve" smooth="yes"/>
      <point x="535" y="0" type="line"/>
      <point x="625" y="0" type="line"/>
      <point x="625" y="360" type="line" smooth="yes"/>
      <point x="625" y="480"/>
      <point x="565" y="510"/>
      <point x="485" y="510" type="curve" smooth="yes"/>
      <point x="450" y="510"/>
      <point x="395" y="495"/>
      <point x="362" y="466" type="curve"/>
      <point x="336" y="499"/>
      <point x="295" y="510"/>
      <point x="250" y="510" type="curve" smooth="yes"/>
      <point x="205" y="510"/>
      <point x="175" y="495"/>
      <point x="150" y="470" type="curve"/>
      <point x="145" y="470" type="line"/>
      <point x="140" y="500" type="line"/>
      <point x="65" y="500" type="line"/>
    </contour>
  </outline>
</glyph>
<glyph name="n" format="2">
  <advance width="475"/>
  <unicode hex="006E"/>
  <outline>
    <contour>
      <point x="65" y="0" type="line"/>
      <point x="155" y="0" type="line"/>
      <point x="155" y="430" type="line"/>
      <point x="170" y="440"/>
      <point x="200" y="450"/>
      <point x="225" y="450" type="curve" smooth="yes"/>
      <point x="280" y="450"/>
      <point x="320" y="430"/>
      <point x="320" y="360" type="curve" smooth="yes"/>
      <point x="320" y="0" type="line"/>
      <point x="410" y="0" type="line"/>
      <point x="410" y="360" type="line" smooth="yes"/>
      <point x="410" y="480"/>
      <point x="350" y="510"/>
      <point x="255" y="510" type="curve" smooth="yes"/>
      <point x="215" y="510"/>
      <point x="175" y="495"/>
      <point x="150" y="470" type="curve"/>
      <point x="145" y="470" type="line"/>
      <point x="140" y="500" type="line"/>
      <point x="65" y="500" type="line"/>
    </contour>
  </outline>
</glyph>
<glyph name="o" format="2">
  <advance width="460"/>
  <unicode hex="006F"/>
  <anchor x="230" y="0" name="bottom"/>
  <anchor x="230" y="250" name="center"/>
  <anchor x="414" y="10" name="ogonek"/>
  <anchor x="230" y="500" name="top"/>
  <anchor x="368" y="500" name="topright"/>
  <outline>
    <contour>
      <point x="230" y="-10" type="curve" smooth="yes"/>
      <point x="350" y="-10"/>
      <point x="415" y="55"/>
      <point x="415" y="250" type="curve" smooth="yes"/>
      <point x="415" y="445"/>
      <point x="350" y="510"/>
      <point x="230" y="510" type="curve" smooth="yes"/>
      <point x="110" y="510"/>
      <point x="45" y="445"/>
      <point x="45" y="250" type="curve" smooth="yes"/>
      <point x="45" y="55"/>
      <point x="110" y="-10"/>
    </contour>
    <contour>
      <point x="230" y="45" type="curve" smooth="yes"/>
      <point x="180" y="45"/>
      <point x="135" y="90"/>
      <point x="135" y="250" type="curve" smooth="yes"/>
      <point x="135" y="410"/>
      <point x="180" y="455"/>
      <point x="230" y="455" type="curve" smooth="yes"/>
      <point x="280" y="455"/>
      <point x="325" y="410"/>
      <point x="325" y="250" type="curve" smooth="yes"/>
      <point x="325" y="90"/>
      <point x="280" y="45"/>
    </contour>
  </outline>
</glyph>
<glyph name="s" format="2">
  <advance width="395"/>
  <unicode hex="0073"/>
  <outline>
    <contour>
      <point x="160" y="-10" type="curve" smooth="yes"/>
      <point x="300" y="-10"/>
      <point x="360" y="20"/>
      <point x="360" y="130" type="curve" smooth="yes"/>
      <point x="360" y="310"/>
      <point x="125" y="260"/>
      <point x="125" y="380" type="curve" smooth="yes"/>
      <point x="125" y="430"/>
      <point x="165" y="450"/>
      <point x="235" y="450" type="curve" smooth="yes"/>
      <point x="335" y="450" type="line"/>
      <point x="335" y="490" type="line"/>
      <point x="305" y="500"/>
      <point x="255" y="510"/>
      <point x="215" y="510" type="curve" smooth="yes"/>
      <point x="95" y="510"/>
      <point x="35" y="480"/>
      <point x="35" y="380" type="curve" smooth="yes"/>
      <point x="35" y="200"/>
      <point x="270" y="250"/>
      <point x="270" y="130" type="curve" smooth="yes"/>
      <point x="270" y="70"/>
      <point x="230" y="50"/>
      <point x="140" y="50" type="curve" smooth="yes"/>
      <point x="40" y="50" type="line"/>
      <point x="40" y="10" type="line"/>
      <point x="70" y="0"/>
      <point x="120" y="-10"/>
    </contour>
  </outline>
</glyph>
<glyph name="t" format="2">
  <advance width="345"/>
  <unicode hex="0074"/>
  <outline>
    <contour>
      <point x="220" y="-10" type="curve" smooth="yes"/>
      <point x="250" y="-10"/>
      <point x="305" y="0"/>
      <point x="330" y="10" type="curve"/>
      <point x="330" y="50" type="line"/>
      <point x="240" y="50" type="line" smooth="yes"/>
      <point x="210" y="50"/>
      <point x="170" y="70"/>
      <point x="170" y="160" type="curve" smooth="yes"/>
      <point x="170" y="425" type="line"/>
      <point x="190" y="425" type="line"/>
      <point x="230" y="425"/>
      <point x="280" y="435"/>
      <point x="310" y="445" type="curve"/>
      <point x="310" y="490" type="line"/>
      <point x="170" y="490" type="line"/>
      <point x="170" y="610" type="line"/>
      <point x="80" y="610" type="line"/>
      <point x="80" y="490" type="line"/>
      <point x="20" y="490" type="line"/>
      <point x="20" y="425" type="line"/>
      <point x="80" y="425" type="line"/>
      <point x="80" y="160" type="line" smooth="yes"/>
      <point x="80" y="20"/>
      <point x="140" y="-10"/>
    </contour>
  </outline>
</glyph>
<glyph name="v" format="2">
  <advance width="430"/>
  <unicode hex="0076"/>
  <outline>
    <contour>
      <point x="150" y="0" type="line"/>
      <point x="280" y="0" type="line"/>
      <point x="415" y="500" type="line"/>
      <point x="330" y="500" type="line"/>
      <point x="217" y="85" type="line"/>
      <point x="213" y="85" type="line"/>
      <point x="100" y="500" type="line"/>
      <point x="15" y="500" type="line"/>
    </contour>
  </outline>
</glyph>
<glyph name="w" format="2">
  <advance width="610"/>
  <unicode hex="0077"/>
  <outline>
    <contour>
      <point x="105" y="0" type="line"/>
      <point x="215" y="0" type="line"/>
      <point x="303" y="270" type="line"/>
      <point x="307" y="270" type="line"/>
      <point x="395" y="0" type="line"/>
      <point x="505" y="0" type="line"/>
      <point x="595" y="500" type="line"/>
      <point x="510" y="500" type="line"/>
      <point x="441" y="120" type="line"/>
      <point x="436" y="120" type="line"/>
      <point x="345" y="400" type="line"/>
      <point x="265" y="400" type="line"/>
      <point x="174" y="120" type="line"/>
      <point x="169" y="120" type="line"/>
      <point x="100" y="500" type="line"/>
      <point x="15" y="500" type="line"/>
    </contour>
  </outline>
</glyph>
<glyph name="x" format="2">
  <advance width="400"/>
  <unicode hex="0078"/>
  <outline>
    <contour>
      <point x="15" y="0" type="line"/>
      <point x="105" y="0" type="line"/>
      <point x="200" y="195" type="line"/>
      <point x="295" y="0" type="line"/>
      <point x="385" y="0" type="line"/>
      <point x="260" y="255" type="line"/>
      <point x="381" y="500" type="line"/>
      <point x="291" y="500" type="line"/>
      <point x="200" y="315" type="line"/>
      <point x="109" y="500" type="line"/>
      <point x="19" y="500" type="line"/>
      <point x="140" y="255" type="line"/>
    </contour>
  </outline>
</glyph>
<glyph name="y" format="2">
  <advance width="475"/>
  <unicode hex="0079"/>
  <anchor x="481" y="0" name="bottom"/>
  <anchor x="238" y="500" name="top"/>
  <outline>
    <contour>
      <point x="210" y="-210" type="curve" smooth="yes"/>
      <point x="350" y="-210"/>
      <point x="410" y="-150"/>
      <point x="410" y="40" type="curve" smooth="yes"/>
      <point x="410" y="500" type="line"/>
      <point x="320" y="500" type="line"/>
      <point x="320" y="70" type="line"/>
      <point x="305" y="60"/>
      <point x="275" y="50"/>
      <point x="250" y="50" type="curve" smooth="yes"/>
      <point x="195" y="50"/>
      <point x="155" y="70"/>
      <point x="155" y="140" type="curve" smooth="yes"/>
      <point x="155" y="500" type="line"/>
      <point x="65" y="500" type="line"/>
      <point x="65" y="140" type="line" smooth="yes"/>
      <point x="65" y="20"/>
      <point x="125" y="-10"/>
      <point x="220" y="-10" type="curve" smooth="yes"/>
      <point x="260" y="-10"/>
      <point x="290" y="0"/>
      <point x="320" y="15" type="curve"/>
      <point x="320" y="-110"/>
      <point x="280" y="-150"/>
      <point x="190" y="-150" type="curve" smooth="yes"/>
      <point x="90" y="-150" type="line"/>
      <point x="90" y="-190" type="line"/>
      <point x="120" y="-200"/>
      <point x="170" y="-210"/>
    </contour>
  </outline>
</glyph>
<glyph name="z" format="2">
  <advance width="370"/>
  <unicode hex="007A"/>
  <outline>
    <contour>
      <point x="20" y="0" type="line"/>
      <point x="345" y="0" type="line"/>
      <point x="345" y="65" type="line"/>
      <point x="126" y="65" type="line"/>
      <point x="350" y="440" type="line"/>
      <point x="350" y="500" type="line"/>
      <point x="30" y="500" type="line"/>
      <point x="30" y="435" type="line"/>
      <point x="245" y="435" type="line"/>
      <point x="20" y="60" type="line"/>
    </contour>
  </outline>
</glyph>
<glyph name="braceleft" format="2">
  <advance width="290"/>
  <unicode hex="007B"/>
  <outline>
    <contour>
      <point x="290" y="-180" type="curve"/>
      <point x="290" y="-120" type="line"/>
      <point x="230" y="-120"/>
      <point x="190" y="-100"/>
      <point x="190" y="-10" type="curve" smooth="yes"/>
      <point x="190" y="100" type="line" smooth="yes"/>
      <point x="190" y="210"/>
      <point x="160" y="240"/>
      <point x="110" y="278" type="curve"/>
      <point x="110" y="282" type="line"/>
      <point x="160" y="320"/>
      <point x="190" y="350"/>
      <point x="190" y="460" type="curve" smooth="yes"/>
      <point x="190" y="570" type="line"/>
      <point x="190" y="660"/>
      <point x="230" y="680"/>
      <point x="290" y="680" type="curve"/>
      <point x="290" y="740" type="line"/>
      <point x="160" y="740"/>
      <point x="100" y="710"/>
      <point x="100" y="570" type="curve" smooth="yes"/>
      <point x="100" y="440" type="line" smooth="yes"/>
      <point x="100" y="355"/>
      <point x="70" y="325"/>
      <point x="20" y="310" type="curve"/>
      <point x="20" y="250" type="line"/>
      <point x="70" y="235"/>
      <point x="100" y="205"/>
      <point x="100" y="120" type="curve" smooth="yes"/>
      <point x="100" y="-10" type="line" smooth="yes"/>
      <point x="100" y="-150"/>
      <point x="160" y="-180"/>
    </contour>
  </outline>
</glyph>
<glyph name="braceright" format="2">
  <advance width="290"/>
  <unicode hex="007D"/>
  <outline>
    <contour>
      <point x="0" y="-180" type="line"/>
      <point x="130" y="-180"/>
      <point x="190" y="-150"/>
      <point x="190" y="-10" type="curve" smooth="yes"/>
      <point x="190" y="120" type="line" smooth="yes"/>
      <point x="190" y="205"/>
      <point x="220" y="235"/>
      <point x="270" y="250" type="curve"/>
      <point x="270" y="310" type="line"/>
      <point x="220" y="325"/>
      <point x="190" y="355"/>
      <point x="190" y="440" type="curve" smooth="yes"/>
      <point x="190" y="570" type="line" smooth="yes"/>
      <point x="190" y="710"/>
      <point x="130" y="740"/>
      <point x="0" y="740" type="curve"/>
      <point x="0" y="680" type="line"/>
      <point x="60" y="680"/>
      <point x="100" y="660"/>
      <point x="100" y="570" type="curve" smooth="yes"/>
      <point x="100" y="460" type="line"/>
      <point x="100" y="350"/>
      <point x="130" y="320"/>
      <point x="180" y="282" type="curve"/>
      <point x="180" y="278" type="line"/>
      <point x="130" y="240"/>
      <point x="100" y="210"/>
      <point x="100" y="100" type="curve" smooth="yes"/>
      <point x="100" y="-10" type="line" smooth="yes"/>
      <point x="100" y="-100"/>
      <point x="60" y="-120"/>
      <point x="0" y="-120" type="curve"/>
    </contour>
  </outline>
</glyph>
<glyph name="asciitilde" format="2">
  <advance width="450"/>
  <unicode hex="007E"/>
  <outline>
    <contour>
      <point x="30" y="196" type="curve"/>
      <point x="100" y="196" type="line"/>
      <point x="100" y="241"/>
      <point x="115" y="271"/>
      <point x="150" y="271" type="curve" smooth="yes"/>
      <point x="195" y="271"/>
      <point x="210" y="191"/>
      <point x="300" y="191" type="curve" smooth="yes"/>
      <point x="390" y="191"/>
      <point x="420" y="251"/>
      <point x="420" y="356" type="curve"/>
      <point x="350" y="356" type="line"/>
      <point x="350" y="311"/>
      <point x="335" y="281"/>
      <point x="300" y="281" type="curve" smooth="yes"/>
      <point x="255" y="281"/>
      <point x="240" y="361"/>
      <point x="150" y="361" type="curve" smooth="yes"/>
      <point x="60" y="361"/>
      <point x="30" y="301"/>
    </contour>
  </outline>
</glyph>
<glyph name="exclamdown" format="2">
  <advance width="230"/>
  <unicode hex="00A1"/>
  <outline>
    <contour>
      <point x="60" y="0" type="line"/>
      <point x="170" y="0" type="line"/>
      <point x="153" y="515" type="line"/>
      <point x="73" y="515" type="line"/>
    </contour>
    <contour>
      <point x="68" y="595" type="line"/>
      <point x="158" y="595" type="line"/>
      <point x="158" y="705" type="line"/>
      <point x="68" y="705" type="line"/>
    </contour>
  </outline>
</glyph>
<glyph name="cent" format="2">
  <advance width="375"/>
  <unicode hex="00A2"/>
  <outline>
    <contour>
      <point x="205" y="-60" type="line"/>
      <point x="265" y="-60" type="line"/>
      <point x="265" y="-9" type="line"/>
      <point x="299" y="-6"/>
      <point x="336" y="2"/>
      <point x="360" y="10" type="curve"/>
      <point x="360" y="50" type="line"/>
      <point x="265" y="50" type="line"/>
      <point x="265" y="450" type="line"/>
      <point x="350" y="450" type="line"/>
      <point x="350" y="490" type="line"/>
      <point x="328" y="497"/>
      <point x="296" y="504"/>
      <point x="265" y="508" type="curve"/>
      <point x="265" y="570" type="line"/>
      <point x="205" y="570" type="line"/>
      <point x="205" y="509" type="line"/>
      <point x="97" y="501"/>
      <point x="45" y="436"/>
      <point x="45" y="250" type="curve" smooth="yes"/>
      <point x="45" y="68"/>
      <point x="94" y="2"/>
      <point x="205" y="-8" type="curve"/>
    </contour>
    <contour>
      <point x="205" y="58" type="line"/>
      <point x="157" y="77"/>
      <point x="135" y="129"/>
      <point x="135" y="250" type="curve" smooth="yes"/>
      <point x="135" y="374"/>
      <point x="159" y="426"/>
      <point x="205" y="443" type="curve"/>
    </contour>
  </outline>
</glyph>
<glyph name="sterling" format="2">
  <advance width="415"/>
  <unicode hex="00A3"/>
  <outline>
    <contour>
      <point x="45" y="0" type="line"/>
      <point x="395" y="0" type="line"/>
      <point x="395" y="70" type="line"/>
      <point x="135" y="70" type="line"/>
      <point x="135" y="74" type="line"/>
      <point x="165" y="94"/>
      <point x="185" y="134"/>
      <point x="185" y="234" type="curve" smooth="yes"/>
      <point x="185" y="320" type="line"/>
      <point x="335" y="320" type="line"/>
      <point x="335" y="390" type="line"/>
      <point x="185" y="390" type="line"/>
      <point x="185" y="500" type="line" smooth="yes"/>
      <point x="185" y="625"/>
      <point x="225" y="645"/>
      <point x="295" y="645" type="curve" smooth="yes"/>
      <point x="385" y="645" type="line"/>
      <point x="385" y="690" type="line"/>
      <point x="360" y="700"/>
      <point x="325" y="710"/>
      <point x="295" y="710" type="curve" smooth="yes"/>
      <point x="155" y="710"/>
      <point x="95" y="680"/>
      <point x="95" y="500" type="curve" smooth="yes"/>
      <point x="95" y="390" type="line"/>
      <point x="35" y="390" type="line"/>
      <point x="35" y="320" type="line"/>
      <point x="95" y="320" type="line"/>
      <point x="95" y="210" type="line" smooth="yes"/>
      <point x="95" y="110"/>
      <point x="75" y="70"/>
      <point x="45" y="50" type="curve"/>
    </contour>
  </outline>
</glyph>
<glyph name="currency" format="2">
  <advance width="520"/>
  <unicode hex="00A4"/>
  <outline>
    <contour>
      <point x="80" y="135" type="line"/>
      <point x="150" y="200" type="line"/>
      <point x="175" y="175"/>
      <point x="220" y="160"/>
      <point x="259" y="160" type="curve" smooth="yes"/>
      <point x="300" y="160"/>
      <point x="345" y="175"/>
      <point x="370" y="200" type="curve"/>
      <point x="440" y="135" type="line"/>
      <point x="490" y="185" type="line"/>
      <point x="420" y="255" type="line"/>
      <point x="435" y="280"/>
      <point x="445" y="315"/>
      <point x="445" y="350" type="curve"/>
      <point x="445" y="385"/>
      <point x="435" y="420"/>
      <point x="420" y="445" type="curve"/>
      <point x="490" y="515" type="line"/>
      <point x="440" y="565" type="line"/>
      <point x="370" y="500" type="line"/>
      <point x="345" y="525"/>
      <point x="300" y="540"/>
      <point x="259" y="540" type="curve"/>
      <point x="220" y="540"/>
      <point x="175" y="525"/>
      <point x="150" y="500" type="curve"/>
      <point x="80" y="565" type="line"/>
      <point x="30" y="515" type="line"/>
      <point x="100" y="445" type="line"/>
      <point x="85" y="420"/>
      <point x="75" y="385"/>
      <point x="75" y="350" type="curve"/>
      <point x="75" y="315"/>
      <point x="85" y="280"/>
      <point x="100" y="255" type="curve"/>
      <point x="30" y="185" type="line"/>
    </contour>
    <contour>
      <point x="260" y="225" type="curve" smooth="yes"/>
      <point x="210" y="225"/>
      <point x="170" y="265"/>
      <point x="170" y="350" type="curve"/>
      <point x="170" y="435"/>
      <point x="210" y="475"/>
      <point x="260" y="475" type="curve"/>
      <point x="310" y="475"/>
      <point x="350" y="435"/>
      <point x="350" y="350" type="curve"/>
      <point x="350" y="265"/>
      <point x="310" y="225"/>
    </contour>
  </outline>
</glyph>
<glyph name="yen" format="2">
  <advance width="450"/>
  <unicode hex="00A5"/>
  <outline>
    <contour>
      <point x="180" y="0" type="line"/>
      <point x="270" y="0" type="line"/>
      <point x="270" y="205" type="line"/>
      <point x="390" y="205" type="line"/>
      <point x="390" y="275" type="line"/>
      <point x="289" y="275" type="line"/>
      <point x="310" y="335" type="line"/>
      <point x="390" y="335" type="line"/>
      <point x="390" y="405" type="line"/>
      <point x="335" y="405" type="line"/>
      <point x="440" y="700" type="line"/>
      <point x="350" y="700" type="line"/>
      <point x="225" y="345" type="line"/>
      <point x="100" y="700" type="line"/>
      <point x="10" y="700" type="line"/>
      <point x="114" y="405" type="line"/>
      <point x="60" y="405" type="line"/>
      <point x="60" y="335" type="line"/>
      <point x="139" y="335" type="line"/>
      <point x="160" y="275" type="line"/>
      <point x="60" y="275" type="line"/>
      <point x="60" y="205" type="line"/>
      <point x="180" y="205" type="line"/>
    </contour>
  </outline>
</glyph>
<glyph name="brokenbar" format="2">
  <advance width="230"/>
  <unicode hex="00A6"/>
  <outline>
    <contour>
      <point x="70" y="320" type="line"/>
      <point x="160" y="320" type="line"/>
      <point x="160" y="680" type="line"/>
      <point x="70" y="680" type="line"/>
    </contour>
    <contour>
      <point x="70" y="-200" type="line"/>
      <point x="160" y="-200" type="line"/>
      <point x="160" y="160" type="line"/>
      <point x="70" y="160" type="line"/>
    </contour>
  </outline>
</glyph>
<glyph name="dieresis" format="2">
  <advance width="290"/>
  <unicode hex="00A8"/>
  <outline>
    <contour>
      <point x="180" y="580" type="line"/>
      <point x="270" y="580" type="line"/>
      <point x="270" y="690" type="line"/>
      <point x="180" y="690" type="line"/>
    </contour>
    <contour>
      <point x="20" y="580" type="line"/>
      <point x="110" y="580" type="line"/>
      <point x="110" y="690" type="line"/>
      <point x="20" y="690" type="line"/>
    </contour>
  </outline>
</glyph>
<glyph name="copyright" format="2">
  <advance width="810"/>
  <unicode hex="00A9"/>
  <outline>
    <contour>
      <point x="405" y="-20" type="curve"/>
      <point x="625" y="-20"/>
      <point x="765" y="120"/>
      <point x="765" y="350" type="curve"/>
      <point x="765" y="580"/>
      <point x="625" y="720"/>
      <point x="405" y="720" type="curve"/>
      <point x="185" y="720"/>
      <point x="45" y="580"/>
      <point x="45" y="350" type="curve" smooth="yes"/>
      <point x="45" y="120"/>
      <point x="185" y="-20"/>
    </contour>
    <contour>
      <point x="415" y="130" type="curve" smooth="yes"/>
      <point x="460" y="130"/>
      <point x="510" y="140"/>
      <point x="540" y="150" type="curve"/>
      <point x="540" y="190" type="line"/>
      <point x="435" y="190" type="line" smooth="yes"/>
      <point x="365" y="190"/>
      <point x="325" y="210"/>
      <point x="325" y="350" type="curve" smooth="yes"/>
      <point x="325" y="490"/>
      <point x="365" y="510"/>
      <point x="435" y="510" type="curve" smooth="yes"/>
      <point x="530" y="510" type="line"/>
      <point x="530" y="550" type="line"/>
      <point x="500" y="560"/>
      <point x="460" y="570"/>
      <point x="415" y="570" type="curve" smooth="yes"/>
      <point x="305" y="570"/>
      <point x="245" y="540"/>
      <point x="245" y="350" type="curve" smooth="yes"/>
      <point x="245" y="160"/>
      <point x="305" y="130"/>
    </contour>
    <contour>
      <point x="405" y="40" type="curve"/>
      <point x="245" y="40"/>
      <point x="135" y="150"/>
      <point x="135" y="350" type="curve" smooth="yes"/>
      <point x="135" y="550"/>
      <point x="245" y="660"/>
      <point x="405" y="660" type="curve"/>
      <point x="565" y="660"/>
      <point x="675" y="550"/>
      <point x="675" y="350" type="curve"/>
      <point x="675" y="150"/>
      <point x="565" y="40"/>
    </contour>
  </outline>
</glyph>
<glyph name="ordfeminine" format="2">
  <advance width="285"/>
  <unicode hex="00AA"/>
  <outline>
    <contour>
      <point x="115" y="395" type="curve" smooth="yes"/>
      <point x="145" y="395"/>
      <point x="170" y="405"/>
      <point x="190" y="420" type="curve"/>
      <point x="195" y="400" type="line"/>
      <point x="255" y="400" type="line"/>
      <point x="255" y="600" type="line" smooth="yes"/>
      <point x="255" y="685"/>
      <point x="210" y="705"/>
      <point x="135" y="705" type="curve" smooth="yes"/>
      <point x="110" y="705"/>
      <point x="75" y="700"/>
      <point x="55" y="693" type="curve"/>
      <point x="55" y="655" type="line"/>
      <point x="125" y="655" type="line" smooth="yes"/>
      <point x="170" y="655"/>
      <point x="190" y="640"/>
      <point x="190" y="600" type="curve" smooth="yes"/>
      <point x="190" y="580" type="line"/>
      <point x="190" y="580"/>
      <point x="150" y="585"/>
      <point x="125" y="585" type="curve" smooth="yes"/>
      <point x="75" y="585"/>
      <point x="30" y="560"/>
      <point x="30" y="490" type="curve" smooth="yes"/>
      <point x="30" y="420"/>
      <point x="75" y="395"/>
    </contour>
    <contour>
      <point x="145" y="445" type="curve" smooth="yes"/>
      <point x="115" y="445"/>
      <point x="95" y="460"/>
      <point x="95" y="490" type="curve" smooth="yes"/>
      <point x="95" y="520"/>
      <point x="115" y="535"/>
      <point x="145" y="535" type="curve" smooth="yes"/>
      <point x="190" y="535" type="line"/>
      <point x="190" y="460" type="line"/>
      <point x="175" y="450"/>
      <point x="160" y="445"/>
    </contour>
  </outline>
</glyph>
<glyph name="guillemetleft" format="2">
  <advance width="435"/>
  <unicode hex="00AB"/>
  <outline>
    <contour>
      <point x="340" y="45" type="line"/>
      <point x="405" y="85" type="line"/>
      <point x="285" y="248" type="line"/>
      <point x="285" y="252" type="line"/>
      <point x="405" y="415" type="line"/>
      <point x="340" y="455" type="line"/>
      <point x="185" y="250" type="line"/>
    </contour>
    <contour>
      <point x="175" y="45" type="line"/>
      <point x="240" y="85" type="line"/>
      <point x="120" y="248" type="line"/>
      <point x="120" y="252" type="line"/>
      <point x="240" y="415" type="line"/>
      <point x="175" y="455" type="line"/>
      <point x="20" y="250" type="line"/>
    </contour>
  </outline>
</glyph>
<glyph name="logicalnot" format="2">
  <advance width="420"/>
  <unicode hex="00AC"/>
  <outline>
    <contour>
      <point x="325" y="240" type="line"/>
      <point x="390" y="240" type="line"/>
      <point x="390" y="410" type="line"/>
      <point x="30" y="410" type="line"/>
      <point x="30" y="340" type="line"/>
      <point x="317" y="340" type="line"/>
    </contour>
  </outline>
</glyph>
<glyph name="registered" format="2">
  <advance width="810"/>
  <unicode hex="00AE"/>
  <outline>
    <contour>
      <point x="405" y="-20" type="curve" smooth="yes"/>
      <point x="625" y="-20"/>
      <point x="765" y="120"/>
      <point x="765" y="350" type="curve" smooth="yes"/>
      <point x="765" y="580"/>
      <point x="625" y="720"/>
      <point x="405" y="720" type="curve" smooth="yes"/>
      <point x="185" y="720"/>
      <point x="45" y="580"/>
      <point x="45" y="350" type="curve" smooth="yes"/>
      <point x="45" y="120"/>
      <point x="185" y="-20"/>
    </contour>
    <contour>
      <point x="405" y="40" type="curve" smooth="yes"/>
      <point x="245" y="40"/>
      <point x="135" y="150"/>
      <point x="135" y="350" type="curve" smooth="yes"/>
      <point x="135" y="550"/>
      <point x="245" y="660"/>
      <point x="405" y="660" type="curve" smooth="yes"/>
      <point x="565" y="660"/>
      <point x="675" y="550"/>
      <point x="675" y="350" type="curve" smooth="yes"/>
      <point x="675" y="150"/>
      <point x="565" y="40"/>
    </contour>
    <contour>
      <point x="265" y="140" type="line"/>
      <point x="345" y="140" type="line"/>
      <point x="345" y="290" type="line"/>
      <point x="415" y="290" type="line"/>
      <point x="485" y="140" type="line"/>
      <point x="570" y="140" type="line"/>
      <point x="490" y="310" type="line"/>
      <point x="520" y="325"/>
      <point x="560" y="350"/>
      <point x="560" y="430" type="curve" smooth="yes"/>
      <point x="560" y="540"/>
      <point x="500" y="570"/>
      <point x="400" y="570" type="curve" smooth="yes"/>
      <point x="340" y="570"/>
      <point x="300" y="560"/>
      <point x="265" y="550" type="curve"/>
    </contour>
    <contour>
      <point x="345" y="350" type="line"/>
      <point x="345" y="510" type="line"/>
      <point x="400" y="510" type="line" smooth="yes"/>
      <point x="440" y="510"/>
      <point x="480" y="490"/>
      <point x="480" y="430" type="curve" smooth="yes"/>
      <point x="480" y="370"/>
      <point x="440" y="350"/>
      <point x="400" y="350" type="curve" smooth="yes"/>
    </contour>
  </outline>
</glyph>
<glyph name="plusminus" format="2">
  <advance width="430"/>
  <unicode hex="00B1"/>
  <outline>
    <contour>
      <point x="175" y="150" type="line"/>
      <point x="255" y="150" type="line"/>
      <point x="255" y="305" type="line"/>
      <point x="400" y="305" type="line"/>
      <point x="400" y="375" type="line"/>
      <point x="255" y="375" type="line"/>
      <point x="255" y="530" type="line"/>
      <point x="175" y="530" type="line"/>
      <point x="175" y="375" type="line"/>
      <point x="30" y="375" type="line"/>
      <point x="30" y="305" type="line"/>
      <point x="175" y="305" type="line"/>
    </contour>
    <contour>
      <point x="30" y="50" type="line"/>
      <point x="400" y="50" type="line"/>
      <point x="400" y="120" type="line"/>
      <point x="30" y="120" type="line"/>
    </contour>
  </outline>
</glyph>
<glyph name="twosuperior" format="2">
  <advance width="255"/>
  <unicode hex="00B2"/>
  <outline>
    <contour>
      <point x="30" y="400" type="line"/>
      <point x="225" y="400" type="line"/>
      <point x="225" y="450" type="line"/>
      <point x="105" y="450" type="line"/>
      <point x="185" y="510"/>
      <point x="225" y="555"/>
      <point x="225" y="610" type="curve" smooth="yes"/>
      <point x="225" y="670"/>
      <point x="190" y="705"/>
      <point x="120" y="705" type="curve" smooth="yes"/>
      <point x="90" y="705"/>
      <point x="60" y="700"/>
      <point x="40" y="694" type="curve"/>
      <point x="40" y="655" type="line"/>
      <point x="105" y="655" type="line" smooth="yes"/>
      <point x="140" y="655"/>
      <point x="160" y="635"/>
      <point x="160" y="610" type="curve" smooth="yes"/>
      <point x="160" y="560"/>
      <point x="100" y="510"/>
      <point x="30" y="455" type="curve"/>
    </contour>
  </outline>
</glyph>
<glyph name="threesuperior" format="2">
  <advance width="255"/>
  <unicode hex="00B3"/>
  <outline>
    <contour>
      <point x="105" y="395" type="curve" smooth="yes"/>
      <point x="180" y="395"/>
      <point x="225" y="415"/>
      <point x="225" y="485" type="curve" smooth="yes"/>
      <point x="225" y="530"/>
      <point x="200" y="555"/>
      <point x="174" y="560" type="curve"/>
      <point x="190" y="565"/>
      <point x="215" y="590"/>
      <point x="215" y="620" type="curve" smooth="yes"/>
      <point x="215" y="685"/>
      <point x="175" y="705"/>
      <point x="110" y="705" type="curve" smooth="yes"/>
      <point x="80" y="705"/>
      <point x="49" y="700"/>
      <point x="30" y="694" type="curve"/>
      <point x="30" y="655" type="line"/>
      <point x="99" y="655" type="line" smooth="yes"/>
      <point x="135" y="655"/>
      <point x="150" y="640"/>
      <point x="150" y="620" type="curve" smooth="yes"/>
      <point x="150" y="600"/>
      <point x="140" y="580"/>
      <point x="105" y="580" type="curve" smooth="yes"/>
      <point x="65" y="580" type="line"/>
      <point x="65" y="530" type="line"/>
      <point x="110" y="530" type="line" smooth="yes"/>
      <point x="140" y="530"/>
      <point x="160" y="515"/>
      <point x="160" y="485" type="curve" smooth="yes"/>
      <point x="160" y="460"/>
      <point x="140" y="445"/>
      <point x="105" y="445" type="curve" smooth="yes"/>
      <point x="30" y="445" type="line"/>
      <point x="30" y="406" type="line"/>
      <point x="50" y="400"/>
      <point x="75" y="395"/>
    </contour>
  </outline>
</glyph>
<glyph name="acute" format="2">
  <advance width="170"/>
  <unicode hex="00B4"/>
  <outline>
    <contour>
      <point x="20" y="560" type="line"/>
      <point x="80" y="560" type="line"/>
      <point x="150" y="690" type="line"/>
      <point x="55" y="690" type="line"/>
    </contour>
  </outline>
</glyph>
<glyph name="micro" format="2">
  <advance width="475"/>
  <unicode hex="00B5"/>
  <outline>
    <contour>
      <point x="65" y="-200" type="line"/>
      <point x="155" y="-200" type="line"/>
      <point x="155" y="20" type="line"/>
      <point x="158" y="17"/>
      <point x="187" y="-10"/>
      <point x="230" y="-10" type="curve" smooth="yes"/>
      <point x="270" y="-10"/>
      <point x="300" y="5"/>
      <point x="325" y="30" type="curve"/>
      <point x="330" y="30" type="line"/>
      <point x="335" y="0" type="line"/>
      <point x="410" y="0" type="line"/>
      <point x="410" y="500" type="line"/>
      <point x="320" y="500" type="line"/>
      <point x="320" y="70" type="line"/>
      <point x="305" y="60"/>
      <point x="275" y="50"/>
      <point x="250" y="50" type="curve" smooth="yes"/>
      <point x="195" y="50"/>
      <point x="155" y="90"/>
      <point x="155" y="160" type="curve" smooth="yes"/>
      <point x="155" y="500" type="line"/>
      <point x="65" y="500" type="line"/>
    </contour>
  </outline>
</glyph>
<glyph name="paragraph" format="2">
  <advance width="530"/>
  <unicode hex="00B6"/>
  <outline>
    <contour>
      <point x="210" y="-200" type="line"/>
      <point x="290" y="-200" type="line"/>
      <point x="290" y="630" type="line"/>
      <point x="360" y="630" type="line"/>
      <point x="360" y="-200" type="line"/>
      <point x="440" y="-200" type="line"/>
      <point x="440" y="630" type="line"/>
      <point x="510" y="630" type="line"/>
      <point x="510" y="700" type="line"/>
      <point x="210" y="700" type="line" smooth="yes"/>
      <point x="100" y="700"/>
      <point x="30" y="610"/>
      <point x="30" y="515" type="curve" smooth="yes"/>
      <point x="30" y="400"/>
      <point x="100" y="330"/>
      <point x="210" y="330" type="curve"/>
    </contour>
  </outline>
</glyph>
<glyph name="periodcentered" format="2">
  <advance width="250"/>
  <unicode hex="00B7"/>
  <outline>
    <contour>
      <point x="80" y="295" type="line"/>
      <point x="170" y="295" type="line"/>
      <point x="170" y="405" type="line"/>
      <point x="80" y="405" type="line"/>
    </contour>
  </outline>
</glyph>
<glyph name="cedilla" format="2">
  <advance width="200"/>
  <unicode hex="00B8"/>
  <outline>
    <contour>
      <point x="95" y="-165" type="curve" smooth="yes"/>
      <point x="150" y="-165"/>
      <point x="180" y="-135"/>
      <point x="180" y="-95" type="curve" smooth="yes"/>
      <point x="180" y="-55"/>
      <point x="150" y="-25"/>
      <point x="95" y="-25" type="curve"/>
      <point x="80" y="-25" type="line"/>
      <point x="80" y="15" type="line"/>
      <point x="30" y="15" type="line"/>
      <point x="30" y="-70" type="line"/>
      <point x="85" y="-70" type="line"/>
      <point x="105" y="-70"/>
      <point x="115" y="-80"/>
      <point x="115" y="-95" type="curve"/>
      <point x="115" y="-110"/>
      <point x="105" y="-120"/>
      <point x="85" y="-120" type="curve" smooth="yes"/>
      <point x="20" y="-120" type="line"/>
      <point x="20" y="-150" type="line"/>
      <point x="20" y="-150"/>
      <point x="50" y="-165"/>
    </contour>
  </outline>
</glyph>
<glyph name="onesuperior" format="2">
  <advance width="185"/>
  <unicode hex="00B9"/>
  <outline>
    <contour>
      <point x="90" y="400" type="line"/>
      <point x="155" y="400" type="line"/>
      <point x="155" y="700" type="line"/>
      <point x="125" y="700" type="line"/>
      <point x="90" y="700"/>
      <point x="50" y="695"/>
      <point x="30" y="688" type="curve"/>
      <point x="30" y="650" type="line"/>
      <point x="90" y="650" type="line"/>
    </contour>
  </outline>
</glyph>
<glyph name="ordmasculine" format="2">
  <advance width="300"/>
  <unicode hex="00BA"/>
  <outline>
    <contour>
      <point x="150" y="395" type="curve" smooth="yes"/>
      <point x="220" y="395"/>
      <point x="270" y="445"/>
      <point x="270" y="550" type="curve"/>
      <point x="270" y="655"/>
      <point x="220" y="705"/>
      <point x="150" y="705" type="curve" smooth="yes"/>
      <point x="80" y="705"/>
      <point x="30" y="655"/>
      <point x="30" y="550" type="curve"/>
      <point x="30" y="445"/>
      <point x="80" y="395"/>
    </contour>
    <contour>
      <point x="150" y="445" type="curve"/>
      <point x="120" y="445"/>
      <point x="95" y="470"/>
      <point x="95" y="550" type="curve" smooth="yes"/>
      <point x="95" y="630"/>
      <point x="120" y="655"/>
      <point x="150" y="655" type="curve" smooth="yes"/>
      <point x="180" y="655"/>
      <point x="205" y="630"/>
      <point x="205" y="550" type="curve"/>
      <point x="205" y="470"/>
      <point x="180" y="445"/>
    </contour>
  </outline>
</glyph>
<glyph name="guillemetright" format="2">
  <advance width="435"/>
  <unicode hex="00BB"/>
  <outline>
    <contour>
      <point x="260" y="45" type="line"/>
      <point x="415" y="250" type="line"/>
      <point x="260" y="455" type="line"/>
      <point x="195" y="415" type="line"/>
      <point x="315" y="252" type="line"/>
      <point x="315" y="248" type="line"/>
      <point x="195" y="85" type="line"/>
    </contour>
    <contour>
      <point x="95" y="45" type="line"/>
      <point x="250" y="250" type="line"/>
      <point x="95" y="455" type="line"/>
      <point x="30" y="415" type="line"/>
      <point x="150" y="252" type="line"/>
      <point x="150" y="248" type="line"/>
      <point x="30" y="85" type="line"/>
    </contour>
  </outline>
</glyph>
<glyph name="onequarter" format="2">
  <advance width="560"/>
  <unicode hex="00BC"/>
  <outline>
    <contour>
      <point x="40" y="0" type="line"/>
      <point x="120" y="0" type="line"/>
      <point x="510" y="700" type="line"/>
      <point x="430" y="700" type="line"/>
    </contour>
    <contour>
      <point x="410" y="0" type="line"/>
      <point x="475" y="0" type="line"/>
      <point x="475" y="65" type="line"/>
      <point x="505" y="65" type="line"/>
      <point x="505" y="115" type="line"/>
      <point x="475" y="115" type="line"/>
      <point x="475" y="300" type="line"/>
      <point x="405" y="300" type="line"/>
      <point x="265" y="115" type="line"/>
      <point x="265" y="65" type="line"/>
      <point x="410" y="65" type="line"/>
    </contour>
    <contour>
      <point x="335" y="115" type="line"/>
      <point x="410" y="213" type="line"/>
      <point x="410" y="115" type="line"/>
    </contour>
    <contour>
      <point x="105" y="400" type="line"/>
      <point x="175" y="400" type="line"/>
      <point x="175" y="700" type="line"/>
      <point x="140" y="700" type="line"/>
      <point x="105" y="700"/>
      <point x="65" y="695"/>
      <point x="45" y="688" type="curve"/>
      <point x="45" y="650" type="line"/>
      <point x="105" y="650" type="line"/>
    </contour>
  </outline>
</glyph>
<glyph name="onehalf" format="2">
  <advance width="590"/>
  <unicode hex="00BD"/>
  <outline>
    <contour>
      <point x="50" y="0" type="line"/>
      <point x="130" y="0" type="line"/>
      <point x="520" y="700" type="line"/>
      <point x="440" y="700" type="line"/>
    </contour>
    <contour>
      <point x="335" y="0" type="line"/>
      <point x="530" y="0" type="line"/>
      <point x="530" y="50" type="line"/>
      <point x="410" y="50" type="line"/>
      <point x="490" y="110"/>
      <point x="530" y="155"/>
      <point x="530" y="210" type="curve" smooth="yes"/>
      <point x="530" y="270"/>
      <point x="495" y="305"/>
      <point x="425" y="305" type="curve" smooth="yes"/>
      <point x="395" y="305"/>
      <point x="365" y="300"/>
      <point x="345" y="294" type="curve"/>
      <point x="345" y="255" type="line"/>
      <point x="410" y="255" type="line" smooth="yes"/>
      <point x="445" y="255"/>
      <point x="465" y="235"/>
      <point x="465" y="210" type="curve" smooth="yes"/>
      <point x="465" y="160"/>
      <point x="405" y="110"/>
      <point x="335" y="55" type="curve"/>
    </contour>
    <contour>
      <point x="115" y="400" type="line"/>
      <point x="185" y="400" type="line"/>
      <point x="185" y="700" type="line"/>
      <point x="150" y="700" type="line"/>
      <point x="115" y="700"/>
      <point x="75" y="695"/>
      <point x="55" y="688" type="curve"/>
      <point x="55" y="650" type="line"/>
      <point x="115" y="650" type="line"/>
    </contour>
  </outline>
</glyph>
<glyph name="threequarters" format="2">
  <advance width="565"/>
  <unicode hex="00BE"/>
  <outline>
    <contour>
      <point x="45" y="0" type="line"/>
      <point x="125" y="0" type="line"/>
      <point x="515" y="700" type="line"/>
      <point x="435" y="700" type="line"/>
    </contour>
    <contour>
      <point x="415" y="0" type="line"/>
      <point x="480" y="0" type="line"/>
      <point x="480" y="65" type="line"/>
      <point x="510" y="65" type="line"/>
      <point x="510" y="115" type="line"/>
      <point x="480" y="115" type="line"/>
      <point x="480" y="300" type="line"/>
      <point x="410" y="300" type="line"/>
      <point x="270" y="115" type="line"/>
      <point x="270" y="65" type="line"/>
      <point x="415" y="65" type="line"/>
    </contour>
    <contour>
      <point x="340" y="115" type="line"/>
      <point x="415" y="213" type="line"/>
      <point x="415" y="115" type="line"/>
    </contour>
    <contour>
      <point x="115" y="395" type="curve" smooth="yes"/>
      <point x="190" y="395"/>
      <point x="235" y="415"/>
      <point x="235" y="485" type="curve" smooth="yes"/>
      <point x="235" y="530"/>
      <point x="210" y="555"/>
      <point x="184" y="560" type="curve"/>
      <point x="200" y="565"/>
      <point x="225" y="590"/>
      <point x="225" y="620" type="curve" smooth="yes"/>
      <point x="225" y="685"/>
      <point x="185" y="705"/>
      <point x="120" y="705" type="curve" smooth="yes"/>
      <point x="90" y="705"/>
      <point x="59" y="700"/>
      <point x="40" y="694" type="curve"/>
      <point x="40" y="655" type="line"/>
      <point x="109" y="655" type="line" smooth="yes"/>
      <point x="145" y="655"/>
      <point x="160" y="640"/>
      <point x="160" y="620" type="curve" smooth="yes"/>
      <point x="160" y="600"/>
      <point x="150" y="580"/>
      <point x="115" y="580" type="curve" smooth="yes"/>
      <point x="75" y="580" type="line"/>
      <point x="75" y="530" type="line"/>
      <point x="120" y="530" type="line" smooth="yes"/>
      <point x="150" y="530"/>
      <point x="170" y="515"/>
      <point x="170" y="485" type="curve" smooth="yes"/>
      <point x="170" y="460"/>
      <point x="150" y="445"/>
      <point x="115" y="445" type="curve" smooth="yes"/>
      <point x="40" y="445" type="line"/>
      <point x="40" y="406" type="line"/>
      <point x="60" y="400"/>
      <point x="85" y="395"/>
    </contour>
  </outline>
</glyph>
<glyph name="questiondown" format="2">
  <advance width="370"/>
  <unicode hex="00BF"/>
  <outline>
    <contour>
      <point x="210" y="-10" type="curve" smooth="yes"/>
      <point x="270" y="-10"/>
      <point x="330" y="0"/>
      <point x="360" y="10" type="curve"/>
      <point x="360" y="55" type="line"/>
      <point x="230" y="55" type="line" smooth="yes"/>
      <point x="160" y="55"/>
      <point x="120" y="95"/>
      <point x="120" y="180" type="curve" smooth="yes"/>
      <point x="120" y="320"/>
      <point x="265" y="340"/>
      <point x="265" y="515" type="curve"/>
      <point x="185" y="515" type="line"/>
      <point x="185" y="370"/>
      <point x="30" y="350"/>
      <point x="30" y="180" type="curve" smooth="yes"/>
      <point x="30" y="50"/>
      <point x="90" y="-10"/>
    </contour>
    <contour>
      <point x="180" y="595" type="line"/>
      <point x="270" y="595" type="line"/>
      <point x="270" y="705" type="line"/>
      <point x="180" y="705" type="line"/>
    </contour>
  </outline>
</glyph>
<glyph name="Acircumflex" format="2">
  <advance width="510"/>
  <unicode hex="00C2"/>
  <outline>
    <contour>
      <point x="20" y="0" type="line"/>
      <point x="110" y="0" type="line"/>
      <point x="155" y="180" type="line"/>
      <point x="355" y="180" type="line"/>
      <point x="400" y="0" type="line"/>
      <point x="490" y="0" type="line"/>
      <point x="320" y="700" type="line"/>
      <point x="190" y="700" type="line"/>
    </contour>
    <contour>
      <point x="170" y="250" type="line"/>
      <point x="253" y="600" type="line"/>
      <point x="257" y="600" type="line"/>
      <point x="340" y="250" type="line"/>
    </contour>
    <contour>
      <point x="133" y="750" type="line"/>
      <point x="193" y="750" type="line"/>
      <point x="255" y="824" type="line"/>
      <point x="318" y="750" type="line"/>
      <point x="378" y="750" type="line"/>
      <point x="303" y="880" type="line"/>
      <point x="208" y="880" type="line"/>
    </contour>
  </outline>
</glyph>
<glyph name="Adieresis" format="2">
  <advance width="510"/>
  <unicode hex="00C4"/>
  <outline>
    <contour>
      <point x="20" y="0" type="line"/>
      <point x="110" y="0" type="line"/>
      <point x="155" y="180" type="line"/>
      <point x="355" y="180" type="line"/>
      <point x="400" y="0" type="line"/>
      <point x="490" y="0" type="line"/>
      <point x="320" y="700" type="line"/>
      <point x="190" y="700" type="line"/>
    </contour>
    <contour>
      <point x="170" y="250" type="line"/>
      <point x="253" y="600" type="line"/>
      <point x="257" y="600" type="line"/>
      <point x="340" y="250" type="line"/>
    </contour>
    <contour>
      <point x="130" y="760" type="line"/>
      <point x="220" y="760" type="line"/>
      <point x="220" y="870" type="line"/>
      <point x="130" y="870" type="line"/>
    </contour>
    <contour>
      <point x="290" y="760" type="line"/>
      <point x="380" y="760" type="line"/>
      <point x="380" y="870" type="line"/>
      <point x="290" y="870" type="line"/>
    </contour>
  </outline>
</glyph>
<glyph name="Aring" format="2">
  <advance width="510"/>
  <unicode hex="00C5"/>
  <outline>
    <contour>
      <point x="20" y="0" type="line"/>
      <point x="110" y="0" type="line"/>
      <point x="155" y="180" type="line"/>
      <point x="355" y="180" type="line"/>
      <point x="400" y="0" type="line"/>
      <point x="490" y="0" type="line"/>
      <point x="320" y="700" type="line"/>
      <point x="190" y="700" type="line"/>
    </contour>
    <contour>
      <point x="170" y="250" type="line"/>
      <point x="253" y="600" type="line"/>
      <point x="257" y="600" type="line"/>
      <point x="340" y="250" type="line"/>
    </contour>
    <contour>
      <point x="255" y="730" type="curve"/>
      <point x="305" y="730"/>
      <point x="340" y="760"/>
      <point x="340" y="810" type="curve"/>
      <point x="340" y="860"/>
      <point x="305" y="890"/>
      <point x="255" y="890" type="curve" smooth="yes"/>
      <point x="205" y="890"/>
      <point x="170" y="860"/>
      <point x="170" y="810" type="curve"/>
      <point x="170" y="760"/>
      <point x="205" y="730"/>
    </contour>
    <contour>
      <point x="255" y="775" type="curve"/>
      <point x="235" y="775"/>
      <point x="220" y="785"/>
      <point x="220" y="810" type="curve"/>
      <point x="220" y="835"/>
      <point x="235" y="845"/>
      <point x="255" y="845" type="curve" smooth="yes"/>
      <point x="275" y="845"/>
      <point x="290" y="835"/>
      <point x="290" y="810" type="curve"/>
      <point x="290" y="785"/>
      <point x="275" y="775"/>
    </contour>
  </outline>
</glyph>
<glyph name="AE" format="2">
  <advance width="731"/>
  <unicode hex="00C6"/>
  <outline>
    <contour>
      <point x="0" y="0" type="line"/>
      <point x="90" y="0" type="line"/>
      <point x="152" y="180" type="line"/>
      <point x="351" y="180" type="line"/>
      <point x="351" y="0" type="line"/>
      <point x="691" y="0" type="line"/>
      <point x="691" y="70" type="line"/>
      <point x="441" y="70" type="line"/>
      <point x="441" y="330" type="line"/>
      <point x="661" y="330" type="line"/>
      <point x="661" y="400" type="line"/>
      <point x="441" y="400" type="line"/>
      <point x="441" y="630" type="line"/>
      <point x="691" y="630" type="line"/>
      <point x="691" y="700" type="line"/>
      <point x="240" y="700" type="line"/>
    </contour>
    <contour>
      <point x="176" y="250" type="line"/>
      <point x="306" y="630" type="line"/>
      <point x="351" y="630" type="line"/>
      <point x="351" y="250" type="line"/>
    </contour>
  </outline>
</glyph>
<glyph name="Egrave" format="2">
  <advance width="450"/>
  <unicode hex="00C8"/>
  <outline>
    <contour>
      <point x="70" y="0" type="line"/>
      <point x="410" y="0" type="line"/>
      <point x="410" y="70" type="line"/>
      <point x="160" y="70" type="line"/>
      <point x="160" y="330" type="line"/>
      <point x="380" y="330" type="line"/>
      <point x="380" y="400" type="line"/>
      <point x="160" y="400" type="line"/>
      <point x="160" y="630" type="line"/>
      <point x="410" y="630" type="line"/>
      <point x="410" y="700" type="line"/>
      <point x="70" y="700" type="line"/>
    </contour>
    <contour>
      <point x="220" y="750" type="line"/>
      <point x="280" y="750" type="line"/>
      <point x="245" y="880" type="line"/>
      <point x="150" y="880" type="line"/>
    </contour>
  </outline>
</glyph>
<glyph name="Igrave" format="2">
  <advance width="225"/>
  <unicode hex="00CC"/>
  <outline>
    <contour>
      <point x="65" y="0" type="line"/>
      <point x="155" y="0" type="line"/>
      <point x="155" y="700" type="line"/>
      <point x="65" y="700" type="line"/>
    </contour>
    <contour>
      <point x="85" y="750" type="line"/>
      <point x="145" y="750" type="line"/>
      <point x="110" y="880" type="line"/>
      <point x="15" y="880" type="line"/>
    </contour>
  </outline>
</glyph>
<glyph name="Iacute" format="2">
  <advance width="230"/>
  <unicode hex="00CD"/>
  <outline>
    <contour>
      <point x="70" y="0" type="line"/>
      <point x="160" y="0" type="line"/>
      <point x="160" y="700" type="line"/>
      <point x="70" y="700" type="line"/>
    </contour>
    <contour>
      <point x="85" y="750" type="line"/>
      <point x="145" y="750" type="line"/>
      <point x="215" y="880" type="line"/>
      <point x="120" y="880" type="line"/>
    </contour>
  </outline>
</glyph>
<glyph name="Icircumflex" format="2">
  <advance width="215"/>
  <unicode hex="00CE"/>
  <outline>
    <contour>
      <point x="60" y="0" type="line"/>
      <point x="150" y="0" type="line"/>
      <point x="150" y="700" type="line"/>
      <point x="60" y="700" type="line"/>
    </contour>
    <contour>
      <point x="-15" y="750" type="line"/>
      <point x="45" y="750" type="line"/>
      <point x="107" y="824" type="line"/>
      <point x="170" y="750" type="line"/>
      <point x="230" y="750" type="line"/>
      <point x="155" y="880" type="line"/>
      <point x="60" y="880" type="line"/>
    </contour>
  </outline>
</glyph>
<glyph name="Idieresis" format="2">
  <advance width="230"/>
  <unicode hex="00CF"/>
  <anchor x="115" y="0" name="bottom"/>
  <anchor x="207" y="10" name="ogonek"/>
  <anchor x="115" y="700" name="top"/>
  <anchor x="20" y="700" name="topleft"/>
  <outline>
    <contour>
      <point x="-10" y="770" type="line"/>
      <point x="80" y="770" type="line"/>
      <point x="80" y="880" type="line"/>
      <point x="-10" y="880" type="line"/>
    </contour>
    <contour>
      <point x="150" y="770" type="line"/>
      <point x="240" y="770" type="line"/>
      <point x="240" y="880" type="line"/>
      <point x="150" y="880" type="line"/>
    </contour>
    <contour>
      <point x="70" y="0" type="line"/>
      <point x="160" y="0" type="line"/>
      <point x="160" y="700" type="line"/>
      <point x="70" y="700" type="line"/>
    </contour>
  </outline>
</glyph>
<glyph name="Eth" format="2">
  <advance width="540"/>
  <unicode hex="00D0"/>
  <outline>
    <contour>
      <point x="250" y="-10" type="curve" smooth="yes"/>
      <point x="410" y="-10"/>
      <point x="490" y="70"/>
      <point x="490" y="350" type="curve" smooth="yes"/>
      <point x="490" y="630"/>
      <point x="410" y="710"/>
      <point x="250" y="710" type="curve" smooth="yes"/>
      <point x="190" y="710"/>
      <point x="140" y="705"/>
      <point x="90" y="690" type="curve"/>
      <point x="90" y="390" type="line"/>
      <point x="10" y="390" type="line"/>
      <point x="10" y="320" type="line"/>
      <point x="90" y="320" type="line"/>
      <point x="90" y="10" type="line"/>
      <point x="140" y="-5"/>
      <point x="190" y="-10"/>
    </contour>
    <contour>
      <point x="180" y="55" type="line"/>
      <point x="180" y="320" type="line"/>
      <point x="290" y="320" type="line"/>
      <point x="290" y="390" type="line"/>
      <point x="180" y="390" type="line"/>
      <point x="180" y="645" type="line"/>
      <point x="250" y="645" type="line" smooth="yes"/>
      <point x="340" y="645"/>
      <point x="400" y="585"/>
      <point x="400" y="350" type="curve" smooth="yes"/>
      <point x="400" y="115"/>
      <point x="340" y="55"/>
      <point x="250" y="55" type="curve" smooth="yes"/>
    </contour>
  </outline>
</glyph>
<glyph name="Ntilde" format="2">
  <advance width="540"/>
  <unicode hex="00D1"/>
  <outline>
    <contour>
      <point x="70" y="0" type="line"/>
      <point x="160" y="0" type="line"/>
      <point x="160" y="495" type="line"/>
      <point x="165" y="495" type="line"/>
      <point x="370" y="0" type="line"/>
      <point x="470" y="0" type="line"/>
      <point x="470" y="700" type="line"/>
      <point x="380" y="700" type="line"/>
      <point x="380" y="205" type="line"/>
      <point x="375" y="205" type="line"/>
      <point x="170" y="700" type="line"/>
      <point x="70" y="700" type="line"/>
    </contour>
    <contour>
      <point x="215" y="750" type="curve" smooth="yes"/>
      <point x="265" y="750"/>
      <point x="280" y="810"/>
      <point x="305" y="810" type="curve" smooth="yes"/>
      <point x="320" y="810"/>
      <point x="330" y="795"/>
      <point x="330" y="765" type="curve"/>
      <point x="380" y="765" type="line"/>
      <point x="380" y="840"/>
      <point x="355" y="870"/>
      <point x="305" y="870" type="curve" smooth="yes"/>
      <point x="255" y="870"/>
      <point x="240" y="810"/>
      <point x="215" y="810" type="curve" smooth="yes"/>
      <point x="200" y="810"/>
      <point x="190" y="825"/>
      <point x="190" y="855" type="curve"/>
      <point x="140" y="855" type="line"/>
      <point x="140" y="780"/>
      <point x="165" y="750"/>
    </contour>
  </outline>
</glyph>
<glyph name="Oacute" format="2">
  <advance width="530"/>
  <unicode hex="00D3"/>
  <outline>
    <contour>
      <point x="265" y="-10" type="curve" smooth="yes"/>
      <point x="400" y="-10"/>
      <point x="480" y="70"/>
      <point x="480" y="350" type="curve" smooth="yes"/>
      <point x="480" y="630"/>
      <point x="400" y="710"/>
      <point x="265" y="710" type="curve" smooth="yes"/>
      <point x="130" y="710"/>
      <point x="50" y="630"/>
      <point x="50" y="350" type="curve" smooth="yes"/>
      <point x="50" y="70"/>
      <point x="130" y="-10"/>
    </contour>
    <contour>
      <point x="265" y="50" type="curve" smooth="yes"/>
      <point x="200" y="50"/>
      <point x="140" y="110"/>
      <point x="140" y="350" type="curve" smooth="yes"/>
      <point x="140" y="590"/>
      <point x="200" y="650"/>
      <point x="265" y="650" type="curve" smooth="yes"/>
      <point x="330" y="650"/>
      <point x="390" y="590"/>
      <point x="390" y="350" type="curve" smooth="yes"/>
      <point x="390" y="110"/>
      <point x="330" y="50"/>
    </contour>
    <contour>
      <point x="230" y="760" type="line"/>
      <point x="290" y="760" type="line"/>
      <point x="360" y="890" type="line"/>
      <point x="265" y="890" type="line"/>
    </contour>
  </outline>
</glyph>
<glyph name="multiply" format="2">
  <advance width="400"/>
  <unicode hex="00D7"/>
  <outline>
    <contour>
      <point x="95" y="170" type="line"/>
      <point x="200" y="275" type="line"/>
      <point x="305" y="170" type="line"/>
      <point x="360" y="225" type="line"/>
      <point x="255" y="330" type="line"/>
      <point x="360" y="435" type="line"/>
      <point x="305" y="490" type="line"/>
      <point x="200" y="385" type="line"/>
      <point x="95" y="490" type="line"/>
      <point x="40" y="435" type="line"/>
      <point x="145" y="330" type="line"/>
      <point x="40" y="225" type="line"/>
    </contour>
  </outline>
</glyph>
<glyph name="Oslash" format="2">
  <advance width="540"/>
  <unicode hex="00D8"/>
  <outline>
    <contour>
      <point x="270" y="-10" type="curve" smooth="yes"/>
      <point x="405" y="-10"/>
      <point x="485" y="70"/>
      <point x="485" y="350" type="curve" smooth="yes"/>
      <point x="485" y="447"/>
      <point x="475" y="520"/>
      <point x="457" y="574" type="curve"/>
      <point x="510" y="650" type="line"/>
      <point x="470" y="680" type="line"/>
      <point x="433" y="627" type="line"/>
      <point x="396" y="688"/>
      <point x="340" y="710"/>
      <point x="270" y="710" type="curve" smooth="yes"/>
      <point x="135" y="710"/>
      <point x="55" y="630"/>
      <point x="55" y="350" type="curve" smooth="yes"/>
      <point x="55" y="253"/>
      <point x="65" y="180"/>
      <point x="83" y="126" type="curve"/>
      <point x="30" y="50" type="line"/>
      <point x="70" y="20" type="line"/>
      <point x="107" y="73" type="line"/>
      <point x="144" y="12"/>
      <point x="199" y="-10"/>
    </contour>
    <contour>
      <point x="270" y="50" type="curve" smooth="yes"/>
      <point x="228" y="50"/>
      <point x="188" y="75"/>
      <point x="165" y="156" type="curve"/>
      <point x="388" y="475" type="line"/>
      <point x="392" y="440"/>
      <point x="395" y="399"/>
      <point x="395" y="350" type="curve" smooth="yes"/>
      <point x="395" y="110"/>
      <point x="335" y="50"/>
    </contour>
    <contour>
      <point x="152" y="225" type="line"/>
      <point x="147" y="260"/>
      <point x="145" y="301"/>
      <point x="145" y="350" type="curve" smooth="yes"/>
      <point x="145" y="590"/>
      <point x="205" y="650"/>
      <point x="270" y="650" type="curve" smooth="yes"/>
      <point x="312" y="650"/>
      <point x="351" y="625"/>
      <point x="374" y="543" type="curve"/>
    </contour>
  </outline>
</glyph>
<glyph name="Ugrave" format="2">
  <advance width="520"/>
  <unicode hex="00D9"/>
  <outline>
    <contour>
      <point x="260" y="-10" type="curve" smooth="yes"/>
      <point x="400" y="-10"/>
      <point x="460" y="50"/>
      <point x="460" y="240" type="curve" smooth="yes"/>
      <point x="460" y="700" type="line"/>
      <point x="370" y="700" type="line"/>
      <point x="370" y="240" type="line" smooth="yes"/>
      <point x="370" y="90"/>
      <point x="330" y="50"/>
      <point x="260" y="50" type="curve" smooth="yes"/>
      <point x="190" y="50"/>
      <point x="150" y="90"/>
      <point x="150" y="240" type="curve" smooth="yes"/>
      <point x="150" y="700" type="line"/>
      <point x="60" y="700" type="line"/>
      <point x="60" y="240" type="line" smooth="yes"/>
      <point x="60" y="50"/>
      <point x="120" y="-10"/>
    </contour>
    <contour>
      <point x="235" y="740" type="line"/>
      <point x="295" y="740" type="line"/>
      <point x="260" y="870" type="line"/>
      <point x="165" y="870" type="line"/>
    </contour>
  </outline>
</glyph>
<glyph name="Yacute" format="2">
  <advance width="450"/>
  <unicode hex="00DD"/>
  <outline>
    <contour>
      <point x="180" y="0" type="line"/>
      <point x="270" y="0" type="line"/>
      <point x="270" y="220" type="line"/>
      <point x="440" y="700" type="line"/>
      <point x="350" y="700" type="line"/>
      <point x="225" y="345" type="line"/>
      <point x="100" y="700" type="line"/>
      <point x="10" y="700" type="line"/>
      <point x="180" y="220" type="line"/>
    </contour>
    <contour>
      <point x="190" y="740" type="line"/>
      <point x="250" y="740" type="line"/>
      <point x="320" y="870" type="line"/>
      <point x="225" y="870" type="line"/>
    </contour>
  </outline>
</glyph>
<glyph name="Thorn" format="2">
  <advance width="500"/>
  <unicode hex="00DE"/>
  <outline>
    <contour>
      <point x="70" y="-10" type="line"/>
      <point x="160" y="-10" type="line"/>
      <point x="160" y="70" type="line"/>
      <point x="365" y="80"/>
      <point x="460" y="175"/>
      <point x="460" y="350" type="curve"/>
      <point x="460" y="525"/>
      <point x="365" y="620"/>
      <point x="160" y="630" type="curve"/>
      <point x="160" y="710" type="line"/>
      <point x="70" y="710" type="line"/>
    </contour>
    <contour>
      <point x="160" y="135" type="curve"/>
      <point x="160" y="565" type="line"/>
      <point x="300" y="560"/>
      <point x="370" y="490"/>
      <point x="370" y="350" type="curve"/>
      <point x="370" y="210"/>
      <point x="300" y="140"/>
    </contour>
  </outline>
</glyph>
<glyph name="germandbls" format="2">
  <advance width="530"/>
  <unicode hex="00DF"/>
  <outline>
    <contour>
      <point x="325" y="-10" type="curve" smooth="yes"/>
      <point x="435" y="-10"/>
      <point x="495" y="20"/>
      <point x="495" y="135" type="curve" smooth="yes"/>
      <point x="495" y="275"/>
      <point x="330" y="285"/>
      <point x="330" y="365" type="curve" smooth="yes"/>
      <point x="330" y="435"/>
      <point x="435" y="455"/>
      <point x="435" y="550" type="curve" smooth="yes"/>
      <point x="435" y="650"/>
      <point x="375" y="710"/>
      <point x="255" y="710" type="curve" smooth="yes"/>
      <point x="125" y="710"/>
      <point x="65" y="650"/>
      <point x="65" y="495" type="curve" smooth="yes"/>
      <point x="65" y="0" type="line"/>
      <point x="155" y="0" type="line"/>
      <point x="155" y="495" type="line" smooth="yes"/>
      <point x="155" y="605"/>
      <point x="195" y="645"/>
      <point x="255" y="645" type="curve" smooth="yes"/>
      <point x="305" y="645"/>
      <point x="345" y="605"/>
      <point x="345" y="550" type="curve" smooth="yes"/>
      <point x="345" y="475"/>
      <point x="240" y="455"/>
      <point x="240" y="365" type="curve" smooth="yes"/>
      <point x="240" y="245"/>
      <point x="405" y="235"/>
      <point x="405" y="135" type="curve" smooth="yes"/>
      <point x="405" y="70"/>
      <point x="365" y="50"/>
      <point x="305" y="50" type="curve" smooth="yes"/>
      <point x="225" y="50" type="line"/>
      <point x="225" y="10" type="line"/>
      <point x="255" y="0"/>
      <point x="295" y="-10"/>
    </contour>
  </outline>
</glyph>
<glyph name="adieresis" format="2">
  <advance width="450"/>
  <unicode hex="00E4"/>
  <outline>
    <contour>
      <point x="195" y="-10" type="curve" smooth="yes"/>
      <point x="235" y="-10"/>
      <point x="275" y="5"/>
      <point x="300" y="30" type="curve"/>
      <point x="305" y="30" type="line"/>
      <point x="310" y="0" type="line"/>
      <point x="385" y="0" type="line"/>
      <point x="385" y="340" type="line" smooth="yes"/>
      <point x="385" y="480"/>
      <point x="325" y="510"/>
      <point x="205" y="510" type="curve" smooth="yes"/>
      <point x="165" y="510"/>
      <point x="115" y="500"/>
      <point x="85" y="490" type="curve"/>
      <point x="85" y="450" type="line"/>
      <point x="185" y="450" type="line" smooth="yes"/>
      <point x="255" y="450"/>
      <point x="295" y="430"/>
      <point x="295" y="340" type="curve" smooth="yes"/>
      <point x="295" y="295" type="line"/>
      <point x="265" y="300"/>
      <point x="225" y="305"/>
      <point x="195" y="305" type="curve" smooth="yes"/>
      <point x="105" y="305"/>
      <point x="45" y="275"/>
      <point x="45" y="150" type="curve" smooth="yes"/>
      <point x="45" y="20"/>
      <point x="105" y="-10"/>
    </contour>
    <contour>
      <point x="225" y="50" type="curve" smooth="yes"/>
      <point x="175" y="50"/>
      <point x="135" y="70"/>
      <point x="135" y="150" type="curve" smooth="yes"/>
      <point x="135" y="225"/>
      <point x="175" y="245"/>
      <point x="225" y="245" type="curve" smooth="yes"/>
      <point x="295" y="245" type="line"/>
      <point x="295" y="70" type="line"/>
      <point x="280" y="60"/>
      <point x="250" y="50"/>
    </contour>
    <contour>
      <point x="105" y="570" type="line"/>
      <point x="195" y="570" type="line"/>
      <point x="195" y="680" type="line"/>
      <point x="105" y="680" type="line"/>
    </contour>
    <contour>
      <point x="265" y="570" type="line"/>
      <point x="355" y="570" type="line"/>
      <point x="355" y="680" type="line"/>
      <point x="265" y="680" type="line"/>
    </contour>
  </outline>
</glyph>
<glyph name="aring" format="2">
  <advance width="450"/>
  <unicode hex="00E5"/>
  <outline>
    <contour>
      <point x="195" y="-10" type="curve" smooth="yes"/>
      <point x="235" y="-10"/>
      <point x="275" y="5"/>
      <point x="300" y="30" type="curve"/>
      <point x="305" y="30" type="line"/>
      <point x="310" y="0" type="line"/>
      <point x="385" y="0" type="line"/>
      <point x="385" y="340" type="line" smooth="yes"/>
      <point x="385" y="480"/>
      <point x="325" y="510"/>
      <point x="205" y="510" type="curve" smooth="yes"/>
      <point x="165" y="510"/>
      <point x="115" y="500"/>
      <point x="85" y="490" type="curve"/>
      <point x="85" y="450" type="line"/>
      <point x="185" y="450" type="line" smooth="yes"/>
      <point x="255" y="450"/>
      <point x="295" y="430"/>
      <point x="295" y="340" type="curve" smooth="yes"/>
      <point x="295" y="295" type="line"/>
      <point x="265" y="300"/>
      <point x="225" y="305"/>
      <point x="195" y="305" type="curve" smooth="yes"/>
      <point x="105" y="305"/>
      <point x="45" y="275"/>
      <point x="45" y="150" type="curve" smooth="yes"/>
      <point x="45" y="20"/>
      <point x="105" y="-10"/>
    </contour>
    <contour>
      <point x="225" y="50" type="curve" smooth="yes"/>
      <point x="175" y="50"/>
      <point x="135" y="70"/>
      <point x="135" y="150" type="curve" smooth="yes"/>
      <point x="135" y="225"/>
      <point x="175" y="245"/>
      <point x="225" y="245" type="curve" smooth="yes"/>
      <point x="295" y="245" type="line"/>
      <point x="295" y="70" type="line"/>
      <point x="280" y="60"/>
      <point x="250" y="50"/>
    </contour>
    <contour>
      <point x="230" y="540" type="curve" smooth="yes"/>
      <point x="280" y="540"/>
      <point x="315" y="570"/>
      <point x="315" y="620" type="curve" smooth="yes"/>
      <point x="315" y="670"/>
      <point x="280" y="700"/>
      <point x="230" y="700" type="curve" smooth="yes"/>
      <point x="180" y="700"/>
      <point x="145" y="670"/>
      <point x="145" y="620" type="curve" smooth="yes"/>
      <point x="145" y="570"/>
      <point x="180" y="540"/>
    </contour>
    <contour>
      <point x="230" y="585" type="curve" smooth="yes"/>
      <point x="210" y="585"/>
      <point x="195" y="595"/>
      <point x="195" y="620" type="curve" smooth="yes"/>
      <point x="195" y="645"/>
      <point x="210" y="655"/>
      <point x="230" y="655" type="curve" smooth="yes"/>
      <point x="250" y="655"/>
      <point x="265" y="645"/>
      <point x="265" y="620" type="curve" smooth="yes"/>
      <point x="265" y="595"/>
      <point x="250" y="585"/>
    </contour>
  </outline>
</glyph>
<glyph name="ae" format="2">
  <advance width="690"/>
  <unicode hex="00E6"/>
  <outline>
    <contour>
      <point x="195" y="-10" type="curve" smooth="yes"/>
      <point x="265" y="-10"/>
      <point x="315" y="15"/>
      <point x="345" y="60" type="curve"/>
      <point x="380" y="10"/>
      <point x="425" y="-10"/>
      <point x="505" y="-10" type="curve" smooth="yes"/>
      <point x="545" y="-10"/>
      <point x="595" y="0"/>
      <point x="625" y="10" type="curve"/>
      <point x="625" y="50" type="line"/>
      <point x="525" y="50" type="line" smooth="yes"/>
      <point x="427" y="50"/>
      <point x="387" y="88"/>
      <point x="385" y="210" type="curve" smooth="yes"/>
      <point x="385" y="225" type="line"/>
      <point x="645" y="225" type="line"/>
      <point x="645" y="255" type="line" smooth="yes"/>
      <point x="645" y="450"/>
      <point x="585" y="510"/>
      <point x="470" y="510" type="curve" smooth="yes"/>
      <point x="415" y="510"/>
      <point x="370" y="485"/>
      <point x="345" y="440" type="curve"/>
      <point x="320" y="485"/>
      <point x="265" y="510"/>
      <point x="205" y="510" type="curve" smooth="yes"/>
      <point x="165" y="510"/>
      <point x="115" y="500"/>
      <point x="85" y="490" type="curve"/>
      <point x="85" y="450" type="line"/>
      <point x="185" y="450" type="line" smooth="yes"/>
      <point x="255" y="450"/>
      <point x="295" y="430"/>
      <point x="295" y="340" type="curve" smooth="yes"/>
      <point x="295" y="275" type="line"/>
      <point x="265" y="280"/>
      <point x="225" y="285"/>
      <point x="195" y="285" type="curve" smooth="yes"/>
      <point x="105" y="285"/>
      <point x="45" y="255"/>
      <point x="45" y="140" type="curve"/>
      <point x="45" y="20"/>
      <point x="105" y="-10"/>
    </contour>
    <contour>
      <point x="215" y="50" type="curve" smooth="yes"/>
      <point x="175" y="50"/>
      <point x="135" y="70"/>
      <point x="135" y="140" type="curve" smooth="yes"/>
      <point x="135" y="205"/>
      <point x="175" y="225"/>
      <point x="225" y="225" type="curve" smooth="yes"/>
      <point x="295" y="225" type="line"/>
      <point x="295" y="80" type="line"/>
      <point x="295" y="80"/>
      <point x="265" y="50"/>
    </contour>
    <contour>
      <point x="385" y="285" type="line"/>
      <point x="385.0" y="417.0157470552372"/>
      <point x="426" y="455"/>
      <point x="470" y="455" type="curve" smooth="yes"/>
      <point x="515" y="455"/>
      <point x="555" y="415"/>
      <point x="555" y="285" type="curve"/>
    </contour>
  </outline>
</glyph>
<glyph name="ccedilla" format="2">
  <advance width="375"/>
  <unicode hex="00E7"/>
  <outline>
    <contour>
      <point x="235" y="-165" type="curve" smooth="yes"/>
      <point x="300" y="-165"/>
      <point x="330" y="-135"/>
      <point x="330" y="-95" type="curve" smooth="yes"/>
      <point x="330" y="-55"/>
      <point x="300" y="-25"/>
      <point x="245" y="-25" type="curve" smooth="yes"/>
      <point x="230" y="-25" type="line"/>
      <point x="230" y="-10" type="line"/>
      <point x="240" y="-10" type="line" smooth="yes"/>
      <point x="280" y="-10"/>
      <point x="330" y="0"/>
      <point x="360" y="10" type="curve"/>
      <point x="360" y="50" type="line"/>
      <point x="260" y="50" type="line" smooth="yes"/>
      <point x="175" y="50"/>
      <point x="135" y="90"/>
      <point x="135" y="250" type="curve" smooth="yes"/>
      <point x="135" y="410"/>
      <point x="175" y="450"/>
      <point x="250" y="450" type="curve" smooth="yes"/>
      <point x="350" y="450" type="line"/>
      <point x="350" y="490" type="line"/>
      <point x="320" y="500"/>
      <point x="270" y="510"/>
      <point x="230" y="510" type="curve" smooth="yes"/>
      <point x="105" y="510"/>
      <point x="45" y="450"/>
      <point x="45" y="250" type="curve" smooth="yes"/>
      <point x="45" y="82"/>
      <point x="87" y="13"/>
      <point x="180" y="-4" type="curve"/>
      <point x="180" y="-70" type="line"/>
      <point x="235" y="-70" type="line" smooth="yes"/>
      <point x="255" y="-70"/>
      <point x="265" y="-80"/>
      <point x="265" y="-95" type="curve" smooth="yes"/>
      <point x="265" y="-110"/>
      <point x="255" y="-120"/>
      <point x="225" y="-120" type="curve" smooth="yes"/>
      <point x="160" y="-120" type="line"/>
      <point x="160" y="-150" type="line"/>
      <point x="160" y="-150"/>
      <point x="190" y="-165"/>
    </contour>
  </outline>
</glyph>
<glyph name="eacute" format="2">
  <advance width="440"/>
  <unicode hex="00E9"/>
  <outline>
    <contour>
      <point x="255" y="-10" type="curve" smooth="yes"/>
      <point x="295" y="-10"/>
      <point x="345" y="0"/>
      <point x="375" y="10" type="curve"/>
      <point x="375" y="50" type="line"/>
      <point x="275" y="50" type="line" smooth="yes"/>
      <point x="175" y="50"/>
      <point x="135" y="90"/>
      <point x="135" y="220" type="curve"/>
      <point x="395" y="220" type="line"/>
      <point x="395" y="250" type="line"/>
      <point x="395" y="450"/>
      <point x="335" y="510"/>
      <point x="220" y="510" type="curve" smooth="yes"/>
      <point x="105" y="510"/>
      <point x="45" y="450"/>
      <point x="45" y="250" type="curve" smooth="yes"/>
      <point x="45" y="50"/>
      <point x="105" y="-10"/>
    </contour>
    <contour>
      <point x="135" y="280" type="line"/>
      <point x="135" y="415"/>
      <point x="175" y="455"/>
      <point x="220" y="455" type="curve" smooth="yes"/>
      <point x="265" y="455"/>
      <point x="305" y="415"/>
      <point x="305" y="280" type="curve"/>
    </contour>
    <contour>
      <point x="185" y="560" type="line"/>
      <point x="245" y="560" type="line"/>
      <point x="315" y="690" type="line"/>
      <point x="220" y="690" type="line"/>
    </contour>
  </outline>
</glyph>
<glyph name="igrave" format="2">
  <advance width="230"/>
  <unicode hex="00EC"/>
  <outline>
    <contour>
      <point x="70" y="0" type="line"/>
      <point x="160" y="0" type="line"/>
      <point x="160" y="500" type="line"/>
      <point x="70" y="500" type="line"/>
    </contour>
    <contour>
      <point x="85" y="560" type="line"/>
      <point x="145" y="560" type="line"/>
      <point x="110" y="690" type="line"/>
      <point x="15" y="690" type="line"/>
    </contour>
  </outline>
</glyph>
<glyph name="iacute" format="2">
  <advance width="230"/>
  <unicode hex="00ED"/>
  <outline>
    <contour>
      <point x="70" y="0" type="line"/>
      <point x="160" y="0" type="line"/>
      <point x="160" y="500" type="line"/>
      <point x="70" y="500" type="line"/>
    </contour>
    <contour>
      <point x="85" y="560" type="line"/>
      <point x="145" y="560" type="line"/>
      <point x="215" y="690" type="line"/>
      <point x="120" y="690" type="line"/>
    </contour>
  </outline>
</glyph>
<glyph name="icircumflex" format="2">
  <advance width="215"/>
  <unicode hex="00EE"/>
  <outline>
    <contour>
      <point x="63" y="0" type="line"/>
      <point x="153" y="0" type="line"/>
      <point x="153" y="500" type="line"/>
      <point x="63" y="500" type="line"/>
    </contour>
    <contour>
      <point x="-15" y="550" type="line"/>
      <point x="45" y="550" type="line"/>
      <point x="107" y="624" type="line"/>
      <point x="170" y="550" type="line"/>
      <point x="230" y="550" type="line"/>
      <point x="155" y="680" type="line"/>
      <point x="60" y="680" type="line"/>
    </contour>
  </outline>
</glyph>
<glyph name="idieresis" format="2">
  <advance width="230"/>
  <unicode hex="00EF"/>
  <outline>
    <contour>
      <point x="70" y="0" type="line"/>
      <point x="160" y="0" type="line"/>
      <point x="160" y="500" type="line"/>
      <point x="70" y="500" type="line"/>
    </contour>
    <contour>
      <point x="-10" y="570" type="line"/>
      <point x="80" y="570" type="line"/>
      <point x="80" y="680" type="line"/>
      <point x="-10" y="680" type="line"/>
    </contour>
    <contour>
      <point x="150" y="570" type="line"/>
      <point x="240" y="570" type="line"/>
      <point x="240" y="680" type="line"/>
      <point x="150" y="680" type="line"/>
    </contour>
  </outline>
</glyph>
<glyph name="eth" format="2">
  <advance width="455"/>
  <unicode hex="00F0"/>
  <outline>
    <contour>
      <point x="225" y="-10" type="curve" smooth="yes"/>
      <point x="350" y="-10"/>
      <point x="410" y="50"/>
      <point x="410" y="215" type="curve" smooth="yes"/>
      <point x="410" y="360" type="line" smooth="yes"/>
      <point x="410" y="466"/>
      <point x="384" y="546"/>
      <point x="333" y="603" type="curve"/>
      <point x="390" y="670" type="line"/>
      <point x="345" y="705" type="line"/>
      <point x="291" y="641" type="line"/>
      <point x="238" y="679"/>
      <point x="168" y="702"/>
      <point x="80" y="710" type="curve"/>
      <point x="75" y="670" type="line"/>
      <point x="150" y="652"/>
      <point x="207" y="625"/>
      <point x="248" y="589" type="curve"/>
      <point x="190" y="520" type="line"/>
      <point x="235" y="485" type="line"/>
      <point x="285" y="545" type="line"/>
      <point x="308" y="509"/>
      <point x="320" y="466"/>
      <point x="320" y="415" type="curve"/>
      <point x="290" y="430"/>
      <point x="260" y="440"/>
      <point x="215" y="440" type="curve" smooth="yes"/>
      <point x="100" y="440"/>
      <point x="40" y="380"/>
      <point x="40" y="215" type="curve" smooth="yes"/>
      <point x="40" y="50"/>
      <point x="100" y="-10"/>
    </contour>
    <contour>
      <point x="225" y="45" type="curve" smooth="yes"/>
      <point x="170" y="45"/>
      <point x="130" y="85"/>
      <point x="130" y="215" type="curve" smooth="yes"/>
      <point x="130" y="340"/>
      <point x="170" y="380"/>
      <point x="245" y="380" type="curve" smooth="yes"/>
      <point x="275" y="380"/>
      <point x="305" y="370"/>
      <point x="320" y="360" type="curve"/>
      <point x="320" y="215" type="line"/>
      <point x="320" y="85"/>
      <point x="280" y="45"/>
    </contour>
  </outline>
</glyph>
<glyph name="ntilde" format="2">
  <advance width="475"/>
  <unicode hex="00F1"/>
  <outline>
    <contour>
      <point x="65" y="0" type="line"/>
      <point x="155" y="0" type="line"/>
      <point x="155" y="430" type="line"/>
      <point x="170" y="440"/>
      <point x="200" y="450"/>
      <point x="225" y="450" type="curve" smooth="yes"/>
      <point x="280" y="450"/>
      <point x="320" y="430"/>
      <point x="320" y="360" type="curve" smooth="yes"/>
      <point x="320" y="0" type="line"/>
      <point x="410" y="0" type="line"/>
      <point x="410" y="360" type="line" smooth="yes"/>
      <point x="410" y="480"/>
      <point x="350" y="510"/>
      <point x="255" y="510" type="curve" smooth="yes"/>
      <point x="215" y="510"/>
      <point x="175" y="495"/>
      <point x="150" y="470" type="curve"/>
      <point x="145" y="470" type="line"/>
      <point x="140" y="500" type="line"/>
      <point x="65" y="500" type="line"/>
    </contour>
    <contour>
      <point x="195" y="565" type="curve" smooth="yes"/>
      <point x="245" y="565"/>
      <point x="260" y="625"/>
      <point x="285" y="625" type="curve" smooth="yes"/>
      <point x="300" y="625"/>
      <point x="310" y="610"/>
      <point x="310" y="580" type="curve"/>
      <point x="360" y="580" type="line"/>
      <point x="360" y="655"/>
      <point x="335" y="685"/>
      <point x="285" y="685" type="curve" smooth="yes"/>
      <point x="235" y="685"/>
      <point x="220" y="625"/>
      <point x="195" y="625" type="curve" smooth="yes"/>
      <point x="180" y="625"/>
      <point x="170" y="640"/>
      <point x="170" y="670" type="curve"/>
      <point x="120" y="670" type="line"/>
      <point x="120" y="595"/>
      <point x="145" y="565"/>
    </contour>
  </outline>
</glyph>
<glyph name="ograve" format="2">
  <advance width="470"/>
  <unicode hex="00F2"/>
  <outline>
    <contour>
      <point x="235" y="-10" type="curve" smooth="yes"/>
      <point x="355" y="-10"/>
      <point x="420" y="55"/>
      <point x="420" y="250" type="curve" smooth="yes"/>
      <point x="420" y="445"/>
      <point x="355" y="510"/>
      <point x="235" y="510" type="curve" smooth="yes"/>
      <point x="115" y="510"/>
      <point x="50" y="445"/>
      <point x="50" y="250" type="curve" smooth="yes"/>
      <point x="50" y="55"/>
      <point x="115" y="-10"/>
    </contour>
    <contour>
      <point x="235" y="45" type="curve" smooth="yes"/>
      <point x="185" y="45"/>
      <point x="140" y="90"/>
      <point x="140" y="250" type="curve" smooth="yes"/>
      <point x="140" y="410"/>
      <point x="185" y="455"/>
      <point x="235" y="455" type="curve" smooth="yes"/>
      <point x="285" y="455"/>
      <point x="330" y="410"/>
      <point x="330" y="250" type="curve" smooth="yes"/>
      <point x="330" y="90"/>
      <point x="285" y="45"/>
    </contour>
    <contour>
      <point x="210" y="560" type="line"/>
      <point x="270" y="560" type="line"/>
      <point x="235" y="690" type="line"/>
      <point x="140" y="690" type="line"/>
    </contour>
  </outline>
</glyph>
<glyph name="ocircumflex" format="2">
  <advance width="460"/>
  <unicode hex="00F4"/>
  <outline>
    <contour>
      <point x="230" y="-10" type="curve" smooth="yes"/>
      <point x="350" y="-10"/>
      <point x="415" y="55"/>
      <point x="415" y="250" type="curve" smooth="yes"/>
      <point x="415" y="445"/>
      <point x="350" y="510"/>
      <point x="230" y="510" type="curve" smooth="yes"/>
      <point x="110" y="510"/>
      <point x="45" y="445"/>
      <point x="45" y="250" type="curve" smooth="yes"/>
      <point x="45" y="55"/>
      <point x="110" y="-10"/>
    </contour>
    <contour>
      <point x="230" y="45" type="curve" smooth="yes"/>
      <point x="180" y="45"/>
      <point x="135" y="90"/>
      <point x="135" y="250" type="curve" smooth="yes"/>
      <point x="135" y="410"/>
      <point x="180" y="455"/>
      <point x="230" y="455" type="curve" smooth="yes"/>
      <point x="280" y="455"/>
      <point x="325" y="410"/>
      <point x="325" y="250" type="curve" smooth="yes"/>
      <point x="325" y="90"/>
      <point x="280" y="45"/>
    </contour>
    <contour>
      <point x="108" y="550" type="line"/>
      <point x="168" y="550" type="line"/>
      <point x="230" y="624" type="line"/>
      <point x="293" y="550" type="line"/>
      <point x="353" y="550" type="line"/>
      <point x="278" y="680" type="line"/>
      <point x="183" y="680" type="line"/>
    </contour>
  </outline>
</glyph>
<glyph name="divide" format="2">
  <advance width="430"/>
  <unicode hex="00F7"/>
  <outline>
    <contour>
      <point x="30" y="260" type="line"/>
      <point x="400" y="260" type="line"/>
      <point x="400" y="340" type="line"/>
      <point x="30" y="340" type="line"/>
    </contour>
    <contour>
      <point x="175" y="95" type="line"/>
      <point x="255" y="95" type="line"/>
      <point x="255" y="185" type="line"/>
      <point x="175" y="185" type="line"/>
    </contour>
    <contour>
      <point x="175" y="415" type="line"/>
      <point x="255" y="415" type="line"/>
      <point x="255" y="505" type="line"/>
      <point x="175" y="505" type="line"/>
    </contour>
  </outline>
</glyph>
<glyph name="oslash" format="2">
  <advance width="480"/>
  <unicode hex="00F8"/>
  <outline>
    <contour>
      <point x="240" y="-10" type="curve" smooth="yes"/>
      <point x="360" y="-10"/>
      <point x="425" y="55"/>
      <point x="425" y="250" type="curve" smooth="yes"/>
      <point x="425" y="309"/>
      <point x="418" y="356"/>
      <point x="407" y="393" type="curve"/>
      <point x="450" y="440" type="line"/>
      <point x="415" y="480" type="line"/>
      <point x="383" y="445" type="line"/>
      <point x="352" y="492"/>
      <point x="303" y="510"/>
      <point x="240" y="510" type="curve" smooth="yes"/>
      <point x="120" y="510"/>
      <point x="55" y="445"/>
      <point x="55" y="250" type="curve" smooth="yes"/>
      <point x="55" y="191"/>
      <point x="61" y="144"/>
      <point x="73" y="107" type="curve"/>
      <point x="30" y="60" type="line"/>
      <point x="65" y="20" type="line"/>
      <point x="97" y="55" type="line"/>
      <point x="128" y="8"/>
      <point x="176" y="-10"/>
    </contour>
    <contour>
      <point x="240" y="45" type="curve" smooth="yes"/>
      <point x="207" y="45"/>
      <point x="176" y="64"/>
      <point x="159" y="123" type="curve"/>
      <point x="332" y="311" type="line"/>
      <point x="334" y="293"/>
      <point x="335" y="273"/>
      <point x="335" y="250" type="curve" smooth="yes"/>
      <point x="335" y="90"/>
      <point x="290" y="45"/>
    </contour>
    <contour>
      <point x="147" y="188" type="line"/>
      <point x="146" y="207"/>
      <point x="145" y="227"/>
      <point x="145" y="250" type="curve" smooth="yes"/>
      <point x="145" y="410"/>
      <point x="190" y="455"/>
      <point x="240" y="455" type="curve" smooth="yes"/>
      <point x="273" y="455"/>
      <point x="303" y="435"/>
      <point x="320" y="377" type="curve"/>
    </contour>
  </outline>
</glyph>
<glyph name="ucircumflex" format="2">
  <advance width="475"/>
  <unicode hex="00FB"/>
  <outline>
    <contour>
      <point x="220" y="-10" type="curve" smooth="yes"/>
      <point x="260" y="-10"/>
      <point x="300" y="5"/>
      <point x="325" y="30" type="curve"/>
      <point x="330" y="30" type="line"/>
      <point x="335" y="0" type="line"/>
      <point x="410" y="0" type="line"/>
      <point x="410" y="500" type="line"/>
      <point x="320" y="500" type="line"/>
      <point x="320" y="70" type="line"/>
      <point x="305" y="60"/>
      <point x="275" y="50"/>
      <point x="250" y="50" type="curve" smooth="yes"/>
      <point x="195" y="50"/>
      <point x="155" y="70"/>
      <point x="155" y="140" type="curve" smooth="yes"/>
      <point x="155" y="500" type="line"/>
      <point x="65" y="500" type="line"/>
      <point x="65" y="140" type="line" smooth="yes"/>
      <point x="65" y="20"/>
      <point x="125" y="-10"/>
    </contour>
    <contour>
      <point x="117" y="550" type="line"/>
      <point x="177" y="550" type="line"/>
      <point x="239" y="624" type="line"/>
      <point x="302" y="550" type="line"/>
      <point x="362" y="550" type="line"/>
      <point x="287" y="680" type="line"/>
      <point x="192" y="680" type="line"/>
    </contour>
  </outline>
</glyph>
<glyph name="yacute" format="2">
  <advance width="475"/>
  <unicode hex="00FD"/>
  <outline>
    <contour>
      <point x="210" y="-210" type="curve" smooth="yes"/>
      <point x="350" y="-210"/>
      <point x="410" y="-150"/>
      <point x="410" y="40" type="curve" smooth="yes"/>
      <point x="410" y="500" type="line"/>
      <point x="320" y="500" type="line"/>
      <point x="320" y="70" type="line"/>
      <point x="305" y="60"/>
      <point x="275" y="50"/>
      <point x="250" y="50" type="curve" smooth="yes"/>
      <point x="195" y="50"/>
      <point x="155" y="70"/>
      <point x="155" y="140" type="curve" smooth="yes"/>
      <point x="155" y="500" type="line"/>
      <point x="65" y="500" type="line"/>
      <point x="65" y="140" type="line" smooth="yes"/>
      <point x="65" y="20"/>
      <point x="125" y="-10"/>
      <point x="220" y="-10" type="curve" smooth="yes"/>
      <point x="260" y="-10"/>
      <point x="290" y="0"/>
      <point x="320" y="15" type="curve"/>
      <point x="320" y="-110"/>
      <point x="280" y="-150"/>
      <point x="190" y="-150" type="curve" smooth="yes"/>
      <point x="90" y="-150" type="line"/>
      <point x="90" y="-190" type="line"/>
      <point x="120" y="-200"/>
      <point x="170" y="-210"/>
    </contour>
    <contour>
      <point x="205" y="560" type="line"/>
      <point x="265" y="560" type="line"/>
      <point x="335" y="690" type="line"/>
      <point x="240" y="690" type="line"/>
    </contour>
  </outline>
</glyph>
<glyph name="Aogonek" format="2">
  <advance width="510"/>
  <unicode hex="0104"/>
  <outline>
    <contour>
      <point x="470" y="-160" type="curve" smooth="yes"/>
      <point x="515" y="-160"/>
      <point x="545" y="-145"/>
      <point x="545" y="-145" type="curve"/>
      <point x="545" y="-104" type="line"/>
      <point x="510" y="-104" type="line" smooth="yes"/>
      <point x="465" y="-104"/>
      <point x="450" y="-90"/>
      <point x="450" y="-45" type="curve" smooth="yes"/>
      <point x="450" y="0" type="line"/>
      <point x="490" y="0" type="line"/>
      <point x="320" y="700" type="line"/>
      <point x="190" y="700" type="line"/>
      <point x="20" y="0" type="line"/>
      <point x="110" y="0" type="line"/>
      <point x="155" y="180" type="line"/>
      <point x="355" y="180" type="line"/>
      <point x="400" y="0" type="line"/>
      <point x="410" y="0" type="line"/>
      <point x="410" y="0"/>
      <point x="385" y="-35"/>
      <point x="385" y="-80" type="curve" smooth="yes"/>
      <point x="385" y="-130"/>
      <point x="415" y="-160"/>
    </contour>
    <contour>
      <point x="170" y="250" type="line"/>
      <point x="253" y="600" type="line"/>
      <point x="257" y="600" type="line"/>
      <point x="340" y="250" type="line"/>
    </contour>
  </outline>
</glyph>
<glyph name="aogonek" format="2">
  <advance width="450"/>
  <unicode hex="0105"/>
  <outline>
    <contour>
      <point x="380" y="-160" type="curve" smooth="yes"/>
      <point x="425" y="-160"/>
      <point x="455" y="-145"/>
      <point x="455" y="-145" type="curve"/>
      <point x="455" y="-104" type="line"/>
      <point x="420" y="-104" type="line" smooth="yes"/>
      <point x="375" y="-104"/>
      <point x="360" y="-90"/>
      <point x="360" y="-45" type="curve" smooth="yes"/>
      <point x="360" y="0" type="line"/>
      <point x="385" y="0" type="line"/>
      <point x="385" y="340" type="line" smooth="yes"/>
      <point x="385" y="480"/>
      <point x="325" y="510"/>
      <point x="205" y="510" type="curve" smooth="yes"/>
      <point x="165" y="510"/>
      <point x="115" y="500"/>
      <point x="85" y="490" type="curve"/>
      <point x="85" y="450" type="line"/>
      <point x="185" y="450" type="line" smooth="yes"/>
      <point x="255" y="450"/>
      <point x="295" y="430"/>
      <point x="295" y="340" type="curve" smooth="yes"/>
      <point x="295" y="295" type="line"/>
      <point x="265" y="300"/>
      <point x="225" y="305"/>
      <point x="195" y="305" type="curve" smooth="yes"/>
      <point x="105" y="305"/>
      <point x="45" y="275"/>
      <point x="45" y="150" type="curve" smooth="yes"/>
      <point x="45" y="20"/>
      <point x="105" y="-10"/>
      <point x="195" y="-10" type="curve" smooth="yes"/>
      <point x="235" y="-10"/>
      <point x="275" y="5"/>
      <point x="300" y="30" type="curve"/>
      <point x="305" y="30" type="line"/>
      <point x="310" y="0" type="line"/>
      <point x="320" y="0" type="line"/>
      <point x="320" y="0"/>
      <point x="295" y="-35"/>
      <point x="295" y="-80" type="curve" smooth="yes"/>
      <point x="295" y="-130"/>
      <point x="325" y="-160"/>
    </contour>
    <contour>
      <point x="225" y="50" type="curve" smooth="yes"/>
      <point x="175" y="50"/>
      <point x="135" y="70"/>
      <point x="135" y="150" type="curve" smooth="yes"/>
      <point x="135" y="225"/>
      <point x="175" y="245"/>
      <point x="225" y="245" type="curve" smooth="yes"/>
      <point x="295" y="245" type="line"/>
      <point x="295" y="70" type="line"/>
      <point x="280" y="60"/>
      <point x="250" y="50"/>
    </contour>
  </outline>
</glyph>
<glyph name="Emacron" format="2">
  <advance width="450"/>
  <unicode hex="0112"/>
  <outline>
    <contour>
      <point x="70" y="0" type="line"/>
      <point x="410" y="0" type="line"/>
      <point x="410" y="70" type="line"/>
      <point x="160" y="70" type="line"/>
      <point x="160" y="330" type="line"/>
      <point x="380" y="330" type="line"/>
      <point x="380" y="400" type="line"/>
      <point x="160" y="400" type="line"/>
      <point x="160" y="630" type="line"/>
      <point x="410" y="630" type="line"/>
      <point x="410" y="700" type="line"/>
      <point x="70" y="700" type="line"/>
    </contour>
    <contour>
      <point x="124" y="770" type="line"/>
      <point x="354" y="770" type="line"/>
      <point x="354" y="830" type="line"/>
      <point x="124" y="830" type="line"/>
    </contour>
  </outline>
</glyph>
<glyph name="Edotaccent" format="2">
  <advance width="450"/>
  <unicode hex="0116"/>
  <outline>
    <contour>
      <point x="70" y="0" type="line"/>
      <point x="410" y="0" type="line"/>
      <point x="410" y="70" type="line"/>
      <point x="160" y="70" type="line"/>
      <point x="160" y="330" type="line"/>
      <point x="380" y="330" type="line"/>
      <point x="380" y="400" type="line"/>
      <point x="160" y="400" type="line"/>
      <point x="160" y="630" type="line"/>
      <point x="410" y="630" type="line"/>
      <point x="410" y="700" type="line"/>
      <point x="70" y="700" type="line"/>
    </contour>
    <contour>
      <point x="200" y="770" type="line"/>
      <point x="290" y="770" type="line"/>
      <point x="290" y="880" type="line"/>
      <point x="200" y="880" type="line"/>
    </contour>
  </outline>
</glyph>
<glyph name="Eogonek" format="2">
  <advance width="450"/>
  <unicode hex="0118"/>
  <outline>
    <contour>
      <point x="385" y="-160" type="curve" smooth="yes"/>
      <point x="430" y="-160"/>
      <point x="460" y="-145"/>
      <point x="460" y="-145" type="curve"/>
      <point x="460" y="-104" type="line"/>
      <point x="425" y="-104" type="line" smooth="yes"/>
      <point x="380" y="-104"/>
      <point x="365" y="-90"/>
      <point x="365" y="-45" type="curve" smooth="yes"/>
      <point x="365" y="0" type="line"/>
      <point x="410" y="0" type="line"/>
      <point x="410" y="70" type="line"/>
      <point x="160" y="70" type="line"/>
      <point x="160" y="330" type="line"/>
      <point x="380" y="330" type="line"/>
      <point x="380" y="400" type="line"/>
      <point x="160" y="400" type="line"/>
      <point x="160" y="630" type="line"/>
      <point x="410" y="630" type="line"/>
      <point x="410" y="700" type="line"/>
      <point x="70" y="700" type="line"/>
      <point x="70" y="0" type="line"/>
      <point x="325" y="0" type="line"/>
      <point x="325" y="0"/>
      <point x="300" y="-35"/>
      <point x="300" y="-80" type="curve" smooth="yes"/>
      <point x="300" y="-130"/>
      <point x="330" y="-160"/>
    </contour>
  </outline>
</glyph>
<glyph name="imacron" format="2">
  <advance width="230"/>
  <unicode hex="012B"/>
  <outline>
    <contour>
      <point x="70" y="0" type="line"/>
      <point x="160" y="0" type="line"/>
      <point x="160" y="500" type="line"/>
      <point x="70" y="500" type="line"/>
    </contour>
    <contour>
      <point x="0" y="580" type="line"/>
      <point x="230" y="580" type="line"/>
      <point x="230" y="640" type="line"/>
      <point x="0" y="640" type="line"/>
    </contour>
  </outline>
</glyph>
<glyph name="Iogonek" format="2">
  <advance width="230"/>
  <unicode hex="012E"/>
  <outline>
    <contour>
      <point x="140" y="-160" type="curve" smooth="yes"/>
      <point x="185" y="-160"/>
      <point x="215" y="-145"/>
      <point x="215" y="-145" type="curve"/>
      <point x="215" y="-104" type="line"/>
      <point x="180" y="-104" type="line" smooth="yes"/>
      <point x="135" y="-104"/>
      <point x="120" y="-90"/>
      <point x="120" y="-45" type="curve" smooth="yes"/>
      <point x="120" y="0" type="line"/>
      <point x="160" y="0" type="line"/>
      <point x="160" y="700" type="line"/>
      <point x="70" y="700" type="line"/>
      <point x="70" y="0" type="line"/>
      <point x="80" y="0" type="line"/>
      <point x="80" y="0"/>
      <point x="55" y="-35"/>
      <point x="55" y="-80" type="curve" smooth="yes"/>
      <point x="55" y="-130"/>
      <point x="85" y="-160"/>
    </contour>
  </outline>
</glyph>
<glyph name="iogonek" format="2">
  <advance width="220"/>
  <unicode hex="012F"/>
  <outline>
    <contour>
      <point x="135" y="-160" type="curve" smooth="yes"/>
      <point x="180" y="-160"/>
      <point x="210" y="-145"/>
      <point x="210" y="-145" type="curve"/>
      <point x="210" y="-104" type="line"/>
      <point x="175" y="-104" type="line" smooth="yes"/>
      <point x="130" y="-104"/>
      <point x="115" y="-90"/>
      <point x="115" y="-45" type="curve" smooth="yes"/>
      <point x="115" y="0" type="line"/>
      <point x="155" y="0" type="line"/>
      <point x="155" y="500" type="line"/>
      <point x="65" y="500" type="line"/>
      <point x="65" y="0" type="line"/>
      <point x="75" y="0" type="line"/>
      <point x="75" y="0"/>
      <point x="50" y="-35"/>
      <point x="50" y="-80" type="curve" smooth="yes"/>
      <point x="50" y="-130"/>
      <point x="80" y="-160"/>
    </contour>
    <contour>
      <point x="65" y="560" type="line"/>
      <point x="155" y="560" type="line"/>
      <point x="155" y="680" type="line"/>
      <point x="65" y="680" type="line"/>
    </contour>
  </outline>
</glyph>
<glyph name="Idotaccent" format="2">
  <advance width="230"/>
  <unicode hex="0130"/>
  <outline>
    <contour>
      <point x="70" y="0" type="line"/>
      <point x="160" y="0" type="line"/>
      <point x="160" y="700" type="line"/>
      <point x="70" y="700" type="line"/>
    </contour>
    <contour>
      <point x="70" y="770" type="line"/>
      <point x="160" y="770" type="line"/>
      <point x="160" y="880" type="line"/>
      <point x="70" y="880" type="line"/>
    </contour>
  </outline>
</glyph>
<glyph name="ij" format="2">
  <advance width="460"/>
  <unicode hex="0133"/>
  <outline>
    <contour>
      <point x="250" y="-210" type="curve" smooth="yes"/>
      <point x="330" y="-210"/>
      <point x="390" y="-180"/>
      <point x="390" y="-40" type="curve"/>
      <point x="390" y="500" type="line"/>
      <point x="70" y="500" type="line"/>
      <point x="70" y="0" type="line"/>
      <point x="160" y="0" type="line"/>
      <point x="160" y="435" type="line"/>
      <point x="300" y="435" type="line"/>
      <point x="300" y="-40" type="line"/>
      <point x="300" y="-130"/>
      <point x="260" y="-150"/>
      <point x="230" y="-150" type="curve"/>
      <point x="160" y="-150" type="line"/>
      <point x="160" y="-190" type="line"/>
      <point x="185" y="-200"/>
      <point x="220" y="-210"/>
    </contour>
    <contour>
      <point x="70" y="570" type="line"/>
      <point x="160" y="570" type="line"/>
      <point x="160" y="680" type="line"/>
      <point x="70" y="680" type="line"/>
    </contour>
    <contour>
      <point x="300" y="570" type="line"/>
      <point x="390" y="570" type="line"/>
      <point x="390" y="680" type="line"/>
      <point x="300" y="680" type="line"/>
    </contour>
  </outline>
</glyph>
<glyph name="Jcircumflex" format="2">
  <advance width="350"/>
  <unicode hex="0134"/>
  <outline>
    <contour>
      <point x="90" y="-10" type="curve" smooth="yes"/>
      <point x="230" y="-10"/>
      <point x="290" y="50"/>
      <point x="290" y="240" type="curve" smooth="yes"/>
      <point x="290" y="700" type="line"/>
      <point x="200" y="700" type="line"/>
      <point x="200" y="240" type="line" smooth="yes"/>
      <point x="200" y="95"/>
      <point x="160" y="55"/>
      <point x="90" y="55" type="curve" smooth="yes"/>
      <point x="0" y="55" type="line"/>
      <point x="0" y="10" type="line"/>
      <point x="25" y="0"/>
      <point x="60" y="-10"/>
    </contour>
    <contour>
      <point x="123" y="740" type="line"/>
      <point x="183" y="740" type="line"/>
      <point x="245" y="814" type="line"/>
      <point x="308" y="740" type="line"/>
      <point x="368" y="740" type="line"/>
      <point x="293" y="870" type="line"/>
      <point x="198" y="870" type="line"/>
    </contour>
  </outline>
</glyph>
<glyph name="Kcommaaccent" format="2">
  <advance width="490"/>
  <unicode hex="0136"/>
  <outline>
    <contour>
      <point x="70" y="0" type="line"/>
      <point x="160" y="0" type="line"/>
      <point x="160" y="350" type="line"/>
      <point x="375" y="0" type="line"/>
      <point x="480" y="0" type="line"/>
      <point x="255" y="355" type="line"/>
      <point x="460" y="700" type="line"/>
      <point x="355" y="700" type="line"/>
      <point x="160" y="360" type="line"/>
      <point x="160" y="700" type="line"/>
      <point x="70" y="700" type="line"/>
    </contour>
    <contour>
      <point x="210" y="-200" type="line"/>
      <point x="270" y="-200" type="line"/>
      <point x="300" y="-50" type="line"/>
      <point x="210" y="-50" type="line"/>
    </contour>
  </outline>
</glyph>
<glyph name="kcommaaccent" format="2">
  <advance width="435"/>
  <unicode hex="0137"/>
  <outline>
    <contour>
      <point x="70" y="0" type="line"/>
      <point x="160" y="0" type="line"/>
      <point x="160" y="260" type="line"/>
      <point x="325" y="0" type="line"/>
      <point x="425" y="0" type="line"/>
      <point x="250" y="265" type="line"/>
      <point x="405" y="500" type="line"/>
      <point x="305" y="500" type="line"/>
      <point x="160" y="270" type="line"/>
      <point x="160" y="700" type="line"/>
      <point x="70" y="700" type="line"/>
    </contour>
    <contour>
      <point x="190" y="-210" type="line"/>
      <point x="250" y="-210" type="line"/>
      <point x="280" y="-60" type="line"/>
      <point x="190" y="-60" type="line"/>
    </contour>
  </outline>
</glyph>
<glyph name="kgreenlandic" format="2">
  <advance width="435"/>
  <unicode hex="0138"/>
  <outline>
    <contour>
      <point x="70" y="0" type="line"/>
      <point x="160" y="0" type="line"/>
      <point x="160" y="260" type="line"/>
      <point x="325" y="0" type="line"/>
      <point x="425" y="0" type="line"/>
      <point x="250" y="265" type="line"/>
      <point x="405" y="500" type="line"/>
      <point x="305" y="500" type="line"/>
      <point x="160" y="270" type="line"/>
      <point x="160" y="500" type="line"/>
      <point x="70" y="500" type="line"/>
    </contour>
  </outline>
</glyph>
<glyph name="Lcommaaccent" format="2">
  <advance width="420"/>
  <unicode hex="013B"/>
  <outline>
    <contour>
      <point x="70" y="0" type="line"/>
      <point x="410" y="0" type="line"/>
      <point x="410" y="70" type="line"/>
      <point x="160" y="70" type="line"/>
      <point x="160" y="700" type="line"/>
      <point x="70" y="700" type="line"/>
    </contour>
    <contour>
      <point x="200" y="-210" type="line"/>
      <point x="260" y="-210" type="line"/>
      <point x="290" y="-60" type="line"/>
      <point x="200" y="-60" type="line"/>
    </contour>
  </outline>
</glyph>
<glyph name="lcommaaccent" format="2">
  <advance width="230"/>
  <unicode hex="013C"/>
  <outline>
    <contour>
      <point x="70" y="0" type="line"/>
      <point x="160" y="0" type="line"/>
      <point x="160" y="700" type="line"/>
      <point x="70" y="700" type="line"/>
    </contour>
    <contour>
      <point x="70" y="-210" type="line"/>
      <point x="130" y="-210" type="line"/>
      <point x="160" y="-60" type="line"/>
      <point x="70" y="-60" type="line"/>
    </contour>
  </outline>
</glyph>
<glyph name="Lslash" format="2">
  <advance width="425"/>
  <unicode hex="0141"/>
  <outline>
    <contour>
      <point x="75" y="0" type="line"/>
      <point x="415" y="0" type="line"/>
      <point x="415" y="70" type="line"/>
      <point x="165" y="70" type="line"/>
      <point x="165" y="355" type="line"/>
      <point x="260" y="420" type="line"/>
      <point x="225" y="470" type="line"/>
      <point x="165" y="430" type="line"/>
      <point x="165" y="700" type="line"/>
      <point x="75" y="700" type="line"/>
      <point x="75" y="365" type="line"/>
      <point x="-10" y="305" type="line"/>
      <point x="25" y="255" type="line"/>
      <point x="75" y="290" type="line"/>
    </contour>
  </outline>
</glyph>
<glyph name="lslash" format="2">
  <advance width="270"/>
  <unicode hex="0142"/>
  <outline>
    <contour>
      <point x="85" y="0" type="line"/>
      <point x="175" y="0" type="line"/>
      <point x="175" y="355" type="line"/>
      <point x="270" y="420" type="line"/>
      <point x="235" y="470" type="line"/>
      <point x="175" y="430" type="line"/>
      <point x="175" y="700" type="line"/>
      <point x="85" y="700" type="line"/>
      <point x="85" y="365" type="line"/>
      <point x="0" y="305" type="line"/>
      <point x="35" y="255" type="line"/>
      <point x="85" y="290" type="line"/>
    </contour>
  </outline>
</glyph>
<glyph name="nacute" format="2">
  <advance width="475"/>
  <unicode hex="0144"/>
  <outline>
    <contour>
      <point x="65" y="0" type="line"/>
      <point x="155" y="0" type="line"/>
      <point x="155" y="430" type="line"/>
      <point x="170" y="440"/>
      <point x="200" y="450"/>
      <point x="225" y="450" type="curve" smooth="yes"/>
      <point x="280" y="450"/>
      <point x="320" y="430"/>
      <point x="320" y="360" type="curve" smooth="yes"/>
      <point x="320" y="0" type="line"/>
      <point x="410" y="0" type="line"/>
      <point x="410" y="360" type="line" smooth="yes"/>
      <point x="410" y="480"/>
      <point x="350" y="510"/>
      <point x="255" y="510" type="curve" smooth="yes"/>
      <point x="215" y="510"/>
      <point x="175" y="495"/>
      <point x="150" y="470" type="curve"/>
      <point x="145" y="470" type="line"/>
      <point x="140" y="500" type="line"/>
      <point x="65" y="500" type="line"/>
    </contour>
    <contour>
      <point x="205" y="560" type="line"/>
      <point x="265" y="560" type="line"/>
      <point x="335" y="690" type="line"/>
      <point x="240" y="690" type="line"/>
    </contour>
  </outline>
</glyph>
<glyph name="Ncommaaccent" format="2">
  <advance width="540"/>
  <unicode hex="0145"/>
  <outline>
    <contour>
      <point x="70" y="0" type="line"/>
      <point x="160" y="0" type="line"/>
      <point x="160" y="495" type="line"/>
      <point x="165" y="495" type="line"/>
      <point x="370" y="0" type="line"/>
      <point x="470" y="0" type="line"/>
      <point x="470" y="700" type="line"/>
      <point x="380" y="700" type="line"/>
      <point x="380" y="205" type="line"/>
      <point x="375" y="205" type="line"/>
      <point x="170" y="700" type="line"/>
      <point x="70" y="700" type="line"/>
    </contour>
    <contour>
      <point x="220" y="-200" type="line"/>
      <point x="280" y="-200" type="line"/>
      <point x="310" y="-50" type="line"/>
      <point x="220" y="-50" type="line"/>
    </contour>
  </outline>
</glyph>
<glyph name="ncommaaccent" format="2">
  <advance width="475"/>
  <unicode hex="0146"/>
  <outline>
    <contour>
      <point x="65" y="0" type="line"/>
      <point x="155" y="0" type="line"/>
      <point x="155" y="430" type="line"/>
      <point x="170" y="440"/>
      <point x="200" y="450"/>
      <point x="225" y="450" type="curve" smooth="yes"/>
      <point x="280" y="450"/>
      <point x="320" y="430"/>
      <point x="320" y="360" type="curve" smooth="yes"/>
      <point x="320" y="0" type="line"/>
      <point x="410" y="0" type="line"/>
      <point x="410" y="360" type="line" smooth="yes"/>
      <point x="410" y="480"/>
      <point x="350" y="510"/>
      <point x="255" y="510" type="curve" smooth="yes"/>
      <point x="215" y="510"/>
      <point x="175" y="495"/>
      <point x="150" y="470" type="curve"/>
      <point x="145" y="470" type="line"/>
      <point x="140" y="500" type="line"/>
      <point x="65" y="500" type="line"/>
    </contour>
    <contour>
      <point x="195" y="-210" type="line"/>
      <point x="255" y="-210" type="line"/>
      <point x="285" y="-60" type="line"/>
      <point x="195" y="-60" type="line"/>
    </contour>
  </outline>
</glyph>
<glyph name="oe" format="2">
  <advance width="720"/>
  <unicode hex="0153"/>
  <outline>
    <contour>
      <point x="230" y="-10" type="curve" smooth="yes"/>
      <point x="285" y="-10"/>
      <point x="339" y="20"/>
      <point x="365" y="70" type="curve"/>
      <point x="400" y="15"/>
      <point x="445" y="-10"/>
      <point x="535" y="-10" type="curve" smooth="yes"/>
      <point x="575" y="-10"/>
      <point x="625" y="0"/>
      <point x="655" y="10" type="curve"/>
      <point x="655" y="50" type="line"/>
      <point x="555" y="50" type="line" smooth="yes"/>
      <point x="455" y="50"/>
      <point x="415" y="90"/>
      <point x="415" y="220" type="curve"/>
      <point x="675" y="220" type="line"/>
      <point x="675" y="250" type="line" smooth="yes"/>
      <point x="675" y="450"/>
      <point x="615" y="510"/>
      <point x="500" y="510" type="curve" smooth="yes"/>
      <point x="445" y="510"/>
      <point x="390" y="480"/>
      <point x="365" y="430" type="curve"/>
      <point x="340" y="480"/>
      <point x="285" y="510"/>
      <point x="230" y="510" type="curve" smooth="yes"/>
      <point x="110" y="510"/>
      <point x="45" y="445"/>
      <point x="45" y="250" type="curve" smooth="yes"/>
      <point x="45" y="55"/>
      <point x="110" y="-10"/>
    </contour>
    <contour>
      <point x="230" y="45" type="curve" smooth="yes"/>
      <point x="180" y="45"/>
      <point x="135" y="90"/>
      <point x="135" y="250" type="curve" smooth="yes"/>
      <point x="135" y="410"/>
      <point x="180" y="455"/>
      <point x="230" y="455" type="curve" smooth="yes"/>
      <point x="280" y="455"/>
      <point x="325" y="410"/>
      <point x="325" y="250" type="curve" smooth="yes"/>
      <point x="325" y="90"/>
      <point x="280" y="45"/>
    </contour>
    <contour>
      <point x="415" y="280" type="line"/>
      <point x="415" y="415"/>
      <point x="455" y="455"/>
      <point x="500" y="455" type="curve" smooth="yes"/>
      <point x="545" y="455"/>
      <point x="585" y="415"/>
      <point x="585" y="280" type="curve"/>
    </contour>
  </outline>
</glyph>
<glyph name="rcommaaccent" format="2">
  <advance width="335"/>
  <unicode hex="0157"/>
  <outline>
    <contour>
      <point x="65" y="0" type="line"/>
      <point x="155" y="0" type="line"/>
      <point x="155" y="405" type="line"/>
      <point x="175" y="420"/>
      <point x="200" y="425"/>
      <point x="225" y="425" type="curve" smooth="yes"/>
      <point x="325" y="425" type="line"/>
      <point x="325" y="500" type="line"/>
      <point x="275" y="500" type="line" smooth="yes"/>
      <point x="215" y="500"/>
      <point x="175" y="480"/>
      <point x="151" y="460" type="curve"/>
      <point x="146" y="460" type="line"/>
      <point x="141" y="500" type="line"/>
      <point x="65" y="500" type="line"/>
    </contour>
    <contour>
      <point x="65" y="-210" type="line"/>
      <point x="125" y="-210" type="line"/>
      <point x="155" y="-60" type="line"/>
      <point x="65" y="-60" type="line"/>
    </contour>
  </outline>
</glyph>
<glyph name="Sacute" format="2">
  <advance width="445"/>
  <unicode hex="015A"/>
  <outline>
    <contour>
      <point x="185" y="-10" type="curve" smooth="yes"/>
      <point x="350" y="-10"/>
      <point x="410" y="50"/>
      <point x="410" y="180" type="curve" smooth="yes"/>
      <point x="410" y="425"/>
      <point x="125" y="345"/>
      <point x="125" y="530" type="curve" smooth="yes"/>
      <point x="125" y="605"/>
      <point x="165" y="645"/>
      <point x="245" y="645" type="curve" smooth="yes"/>
      <point x="375" y="645" type="line"/>
      <point x="375" y="690" type="line"/>
      <point x="345" y="700"/>
      <point x="285" y="710"/>
      <point x="225" y="710" type="curve" smooth="yes"/>
      <point x="95" y="710"/>
      <point x="35" y="650"/>
      <point x="35" y="530" type="curve" smooth="yes"/>
      <point x="35" y="275"/>
      <point x="320" y="355"/>
      <point x="320" y="180" type="curve" smooth="yes"/>
      <point x="320" y="95"/>
      <point x="280" y="55"/>
      <point x="165" y="55" type="curve" smooth="yes"/>
      <point x="35" y="55" type="line"/>
      <point x="35" y="10" type="line"/>
      <point x="65" y="0"/>
      <point x="125" y="-10"/>
    </contour>
    <contour>
      <point x="190" y="760" type="line"/>
      <point x="250" y="760" type="line"/>
      <point x="320" y="890" type="line"/>
      <point x="225" y="890" type="line"/>
    </contour>
  </outline>
</glyph>
<glyph name="Scedilla" format="2">
  <advance width="445"/>
  <unicode hex="015E"/>
  <outline>
    <contour>
      <point x="240" y="-165" type="curve" smooth="yes"/>
      <point x="305" y="-165"/>
      <point x="335" y="-135"/>
      <point x="335" y="-95" type="curve" smooth="yes"/>
      <point x="335" y="-55"/>
      <point x="305" y="-25"/>
      <point x="250" y="-25" type="curve" smooth="yes"/>
      <point x="235" y="-25" type="line"/>
      <point x="235" y="-7" type="line"/>
      <point x="362" y="4"/>
      <point x="410" y="64"/>
      <point x="410" y="180" type="curve" smooth="yes"/>
      <point x="410" y="425"/>
      <point x="125" y="345"/>
      <point x="125" y="530" type="curve" smooth="yes"/>
      <point x="125" y="605"/>
      <point x="165" y="645"/>
      <point x="245" y="645" type="curve" smooth="yes"/>
      <point x="375" y="645" type="line"/>
      <point x="375" y="690" type="line"/>
      <point x="345" y="700"/>
      <point x="285" y="710"/>
      <point x="225" y="710" type="curve" smooth="yes"/>
      <point x="95" y="710"/>
      <point x="35" y="650"/>
      <point x="35" y="530" type="curve" smooth="yes"/>
      <point x="35" y="275"/>
      <point x="320" y="355"/>
      <point x="320" y="180" type="curve" smooth="yes"/>
      <point x="320" y="95"/>
      <point x="280" y="55"/>
      <point x="165" y="55" type="curve" smooth="yes"/>
      <point x="35" y="55" type="line"/>
      <point x="35" y="10" type="line"/>
      <point x="65" y="0"/>
      <point x="125" y="-10"/>
      <point x="185" y="-10" type="curve"/>
      <point x="185" y="-70" type="line"/>
      <point x="240" y="-70" type="line" smooth="yes"/>
      <point x="260" y="-70"/>
      <point x="270" y="-80"/>
      <point x="270" y="-95" type="curve" smooth="yes"/>
      <point x="270" y="-110"/>
      <point x="260" y="-120"/>
      <point x="230" y="-120" type="curve" smooth="yes"/>
      <point x="165" y="-120" type="line"/>
      <point x="165" y="-150" type="line"/>
      <point x="165" y="-150"/>
      <point x="195" y="-165"/>
    </contour>
  </outline>
</glyph>
<glyph name="scedilla" format="2">
  <advance width="395"/>
  <unicode hex="015F"/>
  <outline>
    <contour>
      <point x="220" y="-165" type="curve" smooth="yes"/>
      <point x="285" y="-165"/>
      <point x="315" y="-135"/>
      <point x="315" y="-95" type="curve" smooth="yes"/>
      <point x="315" y="-55"/>
      <point x="285" y="-25"/>
      <point x="230" y="-25" type="curve" smooth="yes"/>
      <point x="215" y="-25" type="line"/>
      <point x="215" y="-8" type="line"/>
      <point x="316" y="0"/>
      <point x="360" y="35"/>
      <point x="360" y="130" type="curve" smooth="yes"/>
      <point x="360" y="310"/>
      <point x="125" y="260"/>
      <point x="125" y="380" type="curve" smooth="yes"/>
      <point x="125" y="430"/>
      <point x="165" y="450"/>
      <point x="235" y="450" type="curve" smooth="yes"/>
      <point x="335" y="450" type="line"/>
      <point x="335" y="490" type="line"/>
      <point x="305" y="500"/>
      <point x="255" y="510"/>
      <point x="215" y="510" type="curve" smooth="yes"/>
      <point x="95" y="510"/>
      <point x="35" y="480"/>
      <point x="35" y="380" type="curve" smooth="yes"/>
      <point x="35" y="200"/>
      <point x="270" y="250"/>
      <point x="270" y="130" type="curve" smooth="yes"/>
      <point x="270" y="70"/>
      <point x="230" y="50"/>
      <point x="140" y="50" type="curve" smooth="yes"/>
      <point x="40" y="50" type="line"/>
      <point x="40" y="10" type="line"/>
      <point x="70" y="0"/>
      <point x="120.0" y="-10.0"/>
      <point x="165" y="-10" type="curve"/>
      <point x="165" y="-70" type="line"/>
      <point x="220" y="-70" type="line" smooth="yes"/>
      <point x="240" y="-70"/>
      <point x="250" y="-80"/>
      <point x="250" y="-95" type="curve" smooth="yes"/>
      <point x="250" y="-110"/>
      <point x="240" y="-120"/>
      <point x="210" y="-120" type="curve" smooth="yes"/>
      <point x="145" y="-120" type="line"/>
      <point x="145" y="-150" type="line"/>
      <point x="145" y="-150"/>
      <point x="175" y="-165"/>
    </contour>
  </outline>
</glyph>
<glyph name="umacron" format="2">
  <advance width="475"/>
  <unicode hex="016B"/>
  <outline>
    <contour>
      <point x="220" y="-10" type="curve" smooth="yes"/>
      <point x="260" y="-10"/>
      <point x="300" y="5"/>
      <point x="325" y="30" type="curve"/>
      <point x="330" y="30" type="line"/>
      <point x="335" y="0" type="line"/>
      <point x="410" y="0" type="line"/>
      <point x="410" y="500" type="line"/>
      <point x="320" y="500" type="line"/>
      <point x="320" y="70" type="line"/>
      <point x="305" y="60"/>
      <point x="275" y="50"/>
      <point x="250" y="50" type="curve" smooth="yes"/>
      <point x="195" y="50"/>
      <point x="155" y="70"/>
      <point x="155" y="140" type="curve" smooth="yes"/>
      <point x="155" y="500" type="line"/>
      <point x="65" y="500" type="line"/>
      <point x="65" y="140" type="line" smooth="yes"/>
      <point x="65" y="20"/>
      <point x="125" y="-10"/>
    </contour>
    <contour>
      <point x="125" y="570" type="line"/>
      <point x="355" y="570" type="line"/>
      <point x="355" y="630" type="line"/>
      <point x="125" y="630" type="line"/>
    </contour>
  </outline>
</glyph>
<glyph name="Uogonek" format="2">
  <advance width="520"/>
  <unicode hex="0172"/>
  <outline>
    <contour>
      <point x="300" y="-160" type="curve" smooth="yes"/>
      <point x="345" y="-160"/>
      <point x="375" y="-145"/>
      <point x="375" y="-145" type="curve"/>
      <point x="375" y="-104" type="line"/>
      <point x="340" y="-104" type="line" smooth="yes"/>
      <point x="295" y="-104"/>
      <point x="280" y="-90"/>
      <point x="280" y="-45" type="curve" smooth="yes"/>
      <point x="280" y="-9" type="line"/>
      <point x="406" y="-4"/>
      <point x="460" y="59"/>
      <point x="460" y="240" type="curve" smooth="yes"/>
      <point x="460" y="700" type="line"/>
      <point x="370" y="700" type="line"/>
      <point x="370" y="240" type="line" smooth="yes"/>
      <point x="370" y="90"/>
      <point x="330" y="50"/>
      <point x="260" y="50" type="curve" smooth="yes"/>
      <point x="190" y="50"/>
      <point x="150" y="90"/>
      <point x="150" y="240" type="curve" smooth="yes"/>
      <point x="150" y="700" type="line"/>
      <point x="60" y="700" type="line"/>
      <point x="60" y="240" type="line" smooth="yes"/>
      <point x="60" y="61"/>
      <point x="113" y="-2"/>
      <point x="234" y="-9" type="curve"/>
      <point x="227" y="-22"/>
      <point x="215" y="-48"/>
      <point x="215" y="-80" type="curve" smooth="yes"/>
      <point x="215" y="-130"/>
      <point x="245" y="-160"/>
    </contour>
  </outline>
</glyph>
<glyph name="Ydieresis" format="2">
  <advance width="450"/>
  <unicode hex="0178"/>
  <outline>
    <contour>
      <point x="180" y="0" type="line"/>
      <point x="270" y="0" type="line"/>
      <point x="270" y="220" type="line"/>
      <point x="440" y="700" type="line"/>
      <point x="350" y="700" type="line"/>
      <point x="225" y="345" type="line"/>
      <point x="100" y="700" type="line"/>
      <point x="10" y="700" type="line"/>
      <point x="180" y="220" type="line"/>
    </contour>
    <contour>
      <point x="100" y="770" type="line"/>
      <point x="190" y="770" type="line"/>
      <point x="190" y="880" type="line"/>
      <point x="100" y="880" type="line"/>
    </contour>
    <contour>
      <point x="260" y="770" type="line"/>
      <point x="350" y="770" type="line"/>
      <point x="350" y="880" type="line"/>
      <point x="260" y="880" type="line"/>
    </contour>
  </outline>
</glyph>
<glyph name="Zacute" format="2">
  <advance width="405"/>
  <unicode hex="0179"/>
  <outline>
    <contour>
      <point x="20" y="0" type="line"/>
      <point x="380" y="0" type="line"/>
      <point x="380" y="70" type="line"/>
      <point x="125" y="70" type="line"/>
      <point x="385" y="635" type="line"/>
      <point x="385" y="700" type="line"/>
      <point x="25" y="700" type="line"/>
      <point x="25" y="630" type="line"/>
      <point x="280" y="630" type="line"/>
      <point x="20" y="65" type="line"/>
    </contour>
    <contour>
      <point x="170" y="750" type="line"/>
      <point x="230" y="750" type="line"/>
      <point x="300" y="880" type="line"/>
      <point x="205" y="880" type="line"/>
    </contour>
  </outline>
</glyph>
<glyph name="zacute" format="2">
  <advance width="370"/>
  <unicode hex="017A"/>
  <outline>
    <contour>
      <point x="20" y="0" type="line"/>
      <point x="345" y="0" type="line"/>
      <point x="345" y="65" type="line"/>
      <point x="126" y="65" type="line"/>
      <point x="350" y="440" type="line"/>
      <point x="350" y="500" type="line"/>
      <point x="30" y="500" type="line"/>
      <point x="30" y="435" type="line"/>
      <point x="245" y="435" type="line"/>
      <point x="20" y="60" type="line"/>
    </contour>
    <contour>
      <point x="150" y="560" type="line"/>
      <point x="210" y="560" type="line"/>
      <point x="280" y="690" type="line"/>
      <point x="185" y="690" type="line"/>
    </contour>
  </outline>
</glyph>
<glyph name="Zdotaccent" format="2">
  <advance width="405"/>
  <unicode hex="017B"/>
  <outline>
    <contour>
      <point x="20" y="0" type="line"/>
      <point x="380" y="0" type="line"/>
      <point x="380" y="70" type="line"/>
      <point x="125" y="70" type="line"/>
      <point x="385" y="635" type="line"/>
      <point x="385" y="700" type="line"/>
      <point x="25" y="700" type="line"/>
      <point x="25" y="630" type="line"/>
      <point x="280" y="630" type="line"/>
      <point x="20" y="65" type="line"/>
    </contour>
    <contour>
      <point x="160" y="770" type="line"/>
      <point x="250" y="770" type="line"/>
      <point x="250" y="880" type="line"/>
      <point x="160" y="880" type="line"/>
    </contour>
  </outline>
</glyph>
<glyph name="zdotaccent" format="2">
  <advance width="370"/>
  <unicode hex="017C"/>
  <outline>
    <contour>
      <point x="20" y="0" type="line"/>
      <point x="345" y="0" type="line"/>
      <point x="345" y="65" type="line"/>
      <point x="126" y="65" type="line"/>
      <point x="350" y="440" type="line"/>
      <point x="350" y="500" type="line"/>
      <point x="30" y="500" type="line"/>
      <point x="30" y="435" type="line"/>
      <point x="245" y="435" type="line"/>
      <point x="20" y="60" type="line"/>
    </contour>
    <contour>
      <point x="150" y="570" type="line"/>
      <point x="240" y="570" type="line"/>
      <point x="240" y="680" type="line"/>
      <point x="150" y="680" type="line"/>
    </contour>
  </outline>
</glyph>
<glyph name="Zcaron" format="2">
  <advance width="405"/>
  <unicode hex="017D"/>
  <outline>
    <contour>
      <point x="20" y="0" type="line"/>
      <point x="380" y="0" type="line"/>
      <point x="380" y="70" type="line"/>
      <point x="125" y="70" type="line"/>
      <point x="385" y="635" type="line"/>
      <point x="385" y="700" type="line"/>
      <point x="25" y="700" type="line"/>
      <point x="25" y="630" type="line"/>
      <point x="280" y="630" type="line"/>
      <point x="20" y="65" type="line"/>
    </contour>
    <contour>
      <point x="168" y="760" type="line"/>
      <point x="263" y="760" type="line"/>
      <point x="338" y="890" type="line"/>
      <point x="278" y="890" type="line"/>
      <point x="215" y="816" type="line"/>
      <point x="153" y="890" type="line"/>
      <point x="93" y="890" type="line"/>
    </contour>
  </outline>
</glyph>
<glyph name="zcaron" format="2">
  <advance width="370"/>
  <unicode hex="017E"/>
  <outline>
    <contour>
      <point x="20" y="0" type="line"/>
      <point x="345" y="0" type="line"/>
      <point x="345" y="65" type="line"/>
      <point x="126" y="65" type="line"/>
      <point x="350" y="440" type="line"/>
      <point x="350" y="500" type="line"/>
      <point x="30" y="500" type="line"/>
      <point x="30" y="435" type="line"/>
      <point x="245" y="435" type="line"/>
      <point x="20" y="60" type="line"/>
    </contour>
    <contour>
      <point x="148" y="560" type="line"/>
      <point x="243" y="560" type="line"/>
      <point x="318" y="690" type="line"/>
      <point x="258" y="690" type="line"/>
      <point x="195" y="616" type="line"/>
      <point x="133" y="690" type="line"/>
      <point x="73" y="690" type="line"/>
    </contour>
  </outline>
</glyph>
<glyph name="florin" format="2">
  <advance width="330"/>
  <unicode hex="0192"/>
  <outline>
    <contour>
      <point x="40" y="-210" type="curve" smooth="yes"/>
      <point x="120" y="-210"/>
      <point x="180" y="-180"/>
      <point x="180" y="-40" type="curve" smooth="yes"/>
      <point x="180" y="425" type="line"/>
      <point x="200" y="425" type="line" smooth="yes"/>
      <point x="240" y="425"/>
      <point x="290" y="435"/>
      <point x="320" y="445" type="curve"/>
      <point x="320" y="490" type="line"/>
      <point x="180" y="490" type="line"/>
      <point x="180" y="530" type="line" smooth="yes"/>
      <point x="180" y="620"/>
      <point x="220" y="640"/>
      <point x="250" y="640" type="curve" smooth="yes"/>
      <point x="340" y="640" type="line"/>
      <point x="340" y="680" type="line"/>
      <point x="315" y="690"/>
      <point x="260" y="700"/>
      <point x="230" y="700" type="curve" smooth="yes"/>
      <point x="150" y="700"/>
      <point x="90" y="670"/>
      <point x="90" y="530" type="curve" smooth="yes"/>
      <point x="90" y="490" type="line"/>
      <point x="30" y="490" type="line"/>
      <point x="30" y="425" type="line"/>
      <point x="90" y="425" type="line"/>
      <point x="90" y="-40" type="line" smooth="yes"/>
      <point x="90" y="-130"/>
      <point x="50" y="-150"/>
      <point x="20" y="-150" type="curve" smooth="yes"/>
      <point x="-70" y="-150" type="line"/>
      <point x="-70" y="-190" type="line"/>
      <point x="-45" y="-200"/>
      <point x="10" y="-210"/>
    </contour>
  </outline>
</glyph>
<glyph name="caron" format="2">
  <advance width="285"/>
  <unicode hex="02C7"/>
  <outline>
    <contour>
      <point x="95" y="560" type="line"/>
      <point x="190" y="560" type="line"/>
      <point x="265" y="690" type="line"/>
      <point x="205" y="690" type="line"/>
      <point x="142" y="616" type="line"/>
      <point x="80" y="690" type="line"/>
      <point x="20" y="690" type="line"/>
    </contour>
  </outline>
</glyph>
<glyph name="dotaccent" format="2">
  <advance width="130"/>
  <unicode hex="02D9"/>
  <outline>
    <contour>
      <point x="20" y="570" type="line"/>
      <point x="110" y="570" type="line"/>
      <point x="110" y="680" type="line"/>
      <point x="20" y="680" type="line"/>
    </contour>
  </outline>
</glyph>
<glyph name="ring" format="2">
  <advance width="270"/>
  <unicode hex="02DA"/>
  <outline>
    <contour>
      <point x="135" y="540" type="curve" smooth="yes"/>
      <point x="185" y="540"/>
      <point x="220" y="570"/>
      <point x="220" y="620" type="curve" smooth="yes"/>
      <point x="220" y="670"/>
      <point x="185" y="700"/>
      <point x="135" y="700" type="curve" smooth="yes"/>
      <point x="85" y="700"/>
      <point x="50" y="670"/>
      <point x="50" y="620" type="curve" smooth="yes"/>
      <point x="50" y="570"/>
      <point x="85" y="540"/>
    </contour>
    <contour>
      <point x="135" y="585" type="curve" smooth="yes"/>
      <point x="115" y="585"/>
      <point x="100" y="595"/>
      <point x="100" y="620" type="curve" smooth="yes"/>
      <point x="100" y="645"/>
      <point x="115" y="655"/>
      <point x="135" y="655" type="curve" smooth="yes"/>
      <point x="155" y="655"/>
      <point x="170" y="645"/>
      <point x="170" y="620" type="curve" smooth="yes"/>
      <point x="170" y="595"/>
      <point x="155" y="585"/>
    </contour>
  </outline>
</glyph>
<glyph name="ogonek" format="2">
  <advance width="200"/>
  <unicode hex="02DB"/>
  <outline>
    <contour>
      <point x="105" y="-160" type="curve" smooth="yes"/>
      <point x="150" y="-160"/>
      <point x="180" y="-145"/>
      <point x="180" y="-145" type="curve"/>
      <point x="180" y="-104" type="line"/>
      <point x="145" y="-104" type="line" smooth="yes"/>
      <point x="100" y="-104"/>
      <point x="85" y="-90"/>
      <point x="85" y="-45" type="curve" smooth="yes"/>
      <point x="85" y="0" type="line"/>
      <point x="45" y="0" type="line"/>
      <point x="45" y="0"/>
      <point x="20" y="-35"/>
      <point x="20" y="-80" type="curve" smooth="yes"/>
      <point x="20" y="-130"/>
      <point x="50" y="-160"/>
    </contour>
  </outline>
</glyph>
<glyph name="tilde" format="2">
  <advance width="280"/>
  <unicode hex="02DC"/>
  <outline>
    <contour>
      <point x="180" y="565" type="curve" smooth="yes"/>
      <point x="235" y="565"/>
      <point x="260" y="595"/>
      <point x="260" y="670" type="curve"/>
      <point x="210" y="670" type="line"/>
      <point x="210" y="640"/>
      <point x="200" y="625"/>
      <point x="185" y="625" type="curve" smooth="yes"/>
      <point x="160" y="625"/>
      <point x="150" y="685"/>
      <point x="100" y="685" type="curve" smooth="yes"/>
      <point x="45" y="685"/>
      <point x="20" y="655"/>
      <point x="20" y="580" type="curve"/>
      <point x="70" y="580" type="line"/>
      <point x="70" y="610"/>
      <point x="80" y="625"/>
      <point x="95" y="625" type="curve" smooth="yes"/>
      <point x="120" y="625"/>
      <point x="130" y="565"/>
    </contour>
  </outline>
</glyph>
<glyph name="brevecomb" format="2">
  <unicode hex="0306"/>
  <anchor x="230" y="500" name="_top"/>
  <anchor x="230" y="680" name="top"/>
  <outline>
    <contour>
      <point x="230" y="570" type="curve" smooth="yes"/>
      <point x="295" y="570"/>
      <point x="340" y="600"/>
      <point x="365" y="640" type="curve"/>
      <point x="325" y="680" type="line"/>
      <point x="305" y="660"/>
      <point x="270" y="640"/>
      <point x="230" y="640" type="curve" smooth="yes"/>
      <point x="190" y="640"/>
      <point x="155" y="660"/>
      <point x="135" y="680" type="curve"/>
      <point x="95" y="640" type="line"/>
      <point x="120" y="600"/>
      <point x="165" y="570"/>
    </contour>
  </outline>
</glyph>
<glyph name="hookabovecomb" format="2">
  <unicode hex="0309"/>
  <anchor x="176" y="500" name="_top"/>
  <anchor x="176" y="720" name="top"/>
  <outline>
    <contour>
      <point x="148" y="549" type="curve"/>
      <point x="199" y="549" type="line"/>
      <point x="199" y="580"/>
      <point x="251" y="595"/>
      <point x="251" y="632" type="curve" smooth="yes"/>
      <point x="251" y="702"/>
      <point x="203" y="720"/>
      <point x="157" y="720" type="curve" smooth="yes"/>
      <point x="134" y="720"/>
      <point x="111" y="716"/>
      <point x="100" y="712" type="curve"/>
      <point x="100" y="665" type="line"/>
      <point x="150" y="665" type="line" smooth="yes"/>
      <point x="176" y="665"/>
      <point x="192" y="654"/>
      <point x="192" y="628" type="curve" smooth="yes"/>
      <point x="192" y="602"/>
      <point x="148" y="591"/>
    </contour>
  </outline>
</glyph>
<glyph name="commaturnedabovecomb" format="2">
  <unicode hex="0312"/>
  <anchor x="82" y="500" name="_top"/>
  <outline>
    <contour>
      <point x="43" y="570" type="line"/>
      <point x="133" y="570" type="line"/>
      <point x="133" y="720" type="line"/>
      <point x="73" y="720" type="line"/>
    </contour>
  </outline>
</glyph>
<glyph name="horncomb" format="2">
  <unicode hex="031B"/>
  <anchor x="177" y="500" name="_topright"/>
  <anchor x="177" y="500" name="topright"/>
  <outline>
    <contour>
      <point x="100" y="450" type="line"/>
      <point x="179" y="450"/>
      <point x="253" y="475"/>
      <point x="253" y="574" type="curve"/>
      <point x="179" y="574" type="line"/>
      <point x="179" y="516"/>
      <point x="146" y="500"/>
      <point x="100" y="500" type="curve"/>
    </contour>
  </outline>
</glyph>
<glyph name="strokeshortcomb" format="2">
  <unicode hex="0335"/>
  <anchor x="165" y="578" name="_center"/>
  <outline>
    <contour>
      <point x="20" y="545" type="line"/>
      <point x="190" y="545" type="line"/>
      <point x="230" y="545"/>
      <point x="280" y="555"/>
      <point x="310" y="565" type="curve"/>
      <point x="310" y="610" type="line"/>
      <point x="20" y="610" type="line"/>
    </contour>
  </outline>
</glyph>
<glyph name="Io-cy" format="2">
  <advance width="450"/>
  <unicode hex="0401"/>
  <outline>
    <contour>
      <point x="70" y="0" type="line"/>
      <point x="410" y="0" type="line"/>
      <point x="410" y="70" type="line"/>
      <point x="160" y="70" type="line"/>
      <point x="160" y="330" type="line"/>
      <point x="380" y="330" type="line"/>
      <point x="380" y="400" type="line"/>
      <point x="160" y="400" type="line"/>
      <point x="160" y="630" type="line"/>
      <point x="410" y="630" type="line"/>
      <point x="410" y="700" type="line"/>
      <point x="70" y="700" type="line"/>
    </contour>
    <contour>
      <point x="110" y="770" type="line"/>
      <point x="200" y="770" type="line"/>
      <point x="200" y="880" type="line"/>
      <point x="110" y="880" type="line"/>
    </contour>
    <contour>
      <point x="270" y="770" type="line"/>
      <point x="360" y="770" type="line"/>
      <point x="360" y="880" type="line"/>
      <point x="270" y="880" type="line"/>
    </contour>
  </outline>
</glyph>
<glyph name="Gje-cy" format="2">
  <advance width="410"/>
  <unicode hex="0403"/>
  <outline>
    <contour>
      <point x="70" y="0" type="line"/>
      <point x="160" y="0" type="line"/>
      <point x="160" y="630" type="line"/>
      <point x="390" y="630" type="line"/>
      <point x="390" y="700" type="line"/>
      <point x="70" y="700" type="line"/>
    </contour>
    <contour>
      <point x="190" y="750" type="line"/>
      <point x="250" y="750" type="line"/>
      <point x="320" y="880" type="line"/>
      <point x="225" y="880" type="line"/>
    </contour>
  </outline>
</glyph>
<glyph name="Yi-cy" format="2">
  <advance width="230"/>
  <unicode hex="0407"/>
  <outline>
    <contour>
      <point x="70" y="0" type="line"/>
      <point x="160" y="0" type="line"/>
      <point x="160" y="700" type="line"/>
      <point x="70" y="700" type="line"/>
    </contour>
    <contour>
      <point x="-10" y="770" type="line"/>
      <point x="80" y="770" type="line"/>
      <point x="80" y="880" type="line"/>
      <point x="-10" y="880" type="line"/>
    </contour>
    <contour>
      <point x="150" y="770" type="line"/>
      <point x="240" y="770" type="line"/>
      <point x="240" y="880" type="line"/>
      <point x="150" y="880" type="line"/>
    </contour>
  </outline>
</glyph>
<glyph name="Lje-cy" format="2">
  <advance width="790"/>
  <unicode hex="0409"/>
  <outline>
    <contour>
      <point x="60" y="-10" type="curve" smooth="yes"/>
      <point x="125" y="-10"/>
      <point x="182" y="50"/>
      <point x="190" y="210" type="curve" smooth="yes"/>
      <point x="212" y="630" type="line"/>
      <point x="370" y="630" type="line"/>
      <point x="370" y="10" type="line"/>
      <point x="420" y="-5"/>
      <point x="470" y="-10"/>
      <point x="530" y="-10" type="curve" smooth="yes"/>
      <point x="690" y="-10"/>
      <point x="750" y="50"/>
      <point x="750" y="205" type="curve" smooth="yes"/>
      <point x="750" y="365"/>
      <point x="690" y="425"/>
      <point x="560" y="425" type="curve" smooth="yes"/>
      <point x="530" y="425"/>
      <point x="485" y="420"/>
      <point x="460" y="415" type="curve"/>
      <point x="460" y="700" type="line"/>
      <point x="125" y="700" type="line"/>
      <point x="100" y="210" type="line" smooth="yes"/>
      <point x="94" y="85"/>
      <point x="55" y="45"/>
      <point x="0" y="45" type="curve"/>
      <point x="0" y="0" type="line"/>
      <point x="0" y="0"/>
      <point x="25" y="-10"/>
    </contour>
    <contour>
      <point x="460" y="55" type="line"/>
      <point x="460" y="355" type="line"/>
      <point x="530" y="355" type="line"/>
      <point x="620" y="355"/>
      <point x="660" y="315"/>
      <point x="660" y="205" type="curve" smooth="yes"/>
      <point x="660" y="95"/>
      <point x="620" y="55"/>
      <point x="530" y="55" type="curve" smooth="yes"/>
    </contour>
  </outline>
</glyph>
<glyph name="Nje-cy" format="2">
  <advance width="790"/>
  <unicode hex="040A"/>
  <outline>
    <contour>
      <point x="530" y="-10" type="curve" smooth="yes"/>
      <point x="690" y="-10"/>
      <point x="750" y="50"/>
      <point x="750" y="195" type="curve" smooth="yes"/>
      <point x="750" y="345"/>
      <point x="690" y="405"/>
      <point x="560" y="405" type="curve" smooth="yes"/>
      <point x="530" y="405"/>
      <point x="485" y="400"/>
      <point x="460" y="395" type="curve"/>
      <point x="460" y="700" type="line"/>
      <point x="370" y="700" type="line"/>
      <point x="370" y="405" type="line"/>
      <point x="160" y="405" type="line"/>
      <point x="160" y="700" type="line"/>
      <point x="70" y="700" type="line"/>
      <point x="70" y="0" type="line"/>
      <point x="160" y="0" type="line"/>
      <point x="160" y="335" type="line"/>
      <point x="370" y="335" type="line"/>
      <point x="370" y="9" type="line"/>
      <point x="419" y="-5"/>
      <point x="470" y="-10"/>
    </contour>
    <contour>
      <point x="460" y="55" type="line"/>
      <point x="460" y="335" type="line"/>
      <point x="530" y="335" type="line" smooth="yes"/>
      <point x="620.0" y="335.0"/>
      <point x="660" y="295"/>
      <point x="660" y="195" type="curve" smooth="yes"/>
      <point x="660" y="95"/>
      <point x="620" y="55"/>
      <point x="530" y="55" type="curve" smooth="yes"/>
    </contour>
  </outline>
</glyph>
<glyph name="Tshe-cy" format="2">
  <advance width="560"/>
  <unicode hex="040B"/>
  <outline>
    <contour>
      <point x="125" y="0" type="line"/>
      <point x="215" y="0" type="line"/>
      <point x="215" y="370" type="line"/>
      <point x="285" y="370" type="line" smooth="yes"/>
      <point x="380" y="370"/>
      <point x="420" y="330"/>
      <point x="420" y="245" type="curve" smooth="yes"/>
      <point x="420" y="0" type="line"/>
      <point x="510" y="0" type="line"/>
      <point x="510" y="245" type="line" smooth="yes"/>
      <point x="510" y="380"/>
      <point x="449" y="440"/>
      <point x="325" y="440" type="curve" smooth="yes"/>
      <point x="285" y="440"/>
      <point x="240" y="435"/>
      <point x="215" y="430" type="curve"/>
      <point x="215" y="630" type="line"/>
      <point x="360" y="630" type="line"/>
      <point x="360" y="700" type="line"/>
      <point x="0" y="700" type="line"/>
      <point x="0" y="630" type="line"/>
      <point x="125" y="630" type="line"/>
    </contour>
  </outline>
</glyph>
<glyph name="Kje-cy" format="2">
  <advance width="495"/>
  <unicode hex="040C"/>
  <outline>
    <contour>
      <point x="430" y="-10" type="curve" smooth="yes"/>
      <point x="465" y="-10"/>
      <point x="490" y="0"/>
      <point x="490" y="0" type="curve"/>
      <point x="490" y="45" type="line"/>
      <point x="440" y="45"/>
      <point x="417" y="75"/>
      <point x="410" y="110" type="curve" smooth="yes"/>
      <point x="385" y="240" type="line" smooth="yes"/>
      <point x="369" y="324"/>
      <point x="335" y="350"/>
      <point x="285" y="363" type="curve"/>
      <point x="285" y="367" type="line"/>
      <point x="330" y="380"/>
      <point x="354" y="407"/>
      <point x="375" y="490" type="curve" smooth="yes"/>
      <point x="400" y="590" type="line" smooth="yes"/>
      <point x="410" y="630"/>
      <point x="430" y="655"/>
      <point x="480" y="655" type="curve"/>
      <point x="480" y="700" type="line"/>
      <point x="480" y="700"/>
      <point x="455" y="710"/>
      <point x="420" y="710" type="curve" smooth="yes"/>
      <point x="365" y="710"/>
      <point x="325" y="670"/>
      <point x="305" y="590" type="curve" smooth="yes"/>
      <point x="280" y="490" type="line" smooth="yes"/>
      <point x="263" y="421"/>
      <point x="230" y="400"/>
      <point x="195" y="400" type="curve" smooth="yes"/>
      <point x="160" y="400" type="line"/>
      <point x="160" y="700" type="line"/>
      <point x="70" y="700" type="line"/>
      <point x="70" y="0" type="line"/>
      <point x="160" y="0" type="line"/>
      <point x="160" y="330" type="line"/>
      <point x="195" y="330" type="line" smooth="yes"/>
      <point x="240" y="330"/>
      <point x="277" y="310"/>
      <point x="290" y="240" type="curve" smooth="yes"/>
      <point x="315" y="110" type="line" smooth="yes"/>
      <point x="330" y="30"/>
      <point x="370" y="-10"/>
    </contour>
    <contour>
      <point x="220" y="740" type="line"/>
      <point x="280" y="740" type="line"/>
      <point x="350" y="870" type="line"/>
      <point x="255" y="870" type="line"/>
    </contour>
  </outline>
</glyph>
<glyph name="Ushort-cy" format="2">
  <advance width="460"/>
  <unicode hex="040E"/>
  <outline>
    <contour>
      <point x="180" y="-10" type="curve" smooth="yes"/>
      <point x="270" y="-10"/>
      <point x="318" y="40"/>
      <point x="340" y="160" type="curve" smooth="yes"/>
      <point x="440" y="700" type="line"/>
      <point x="350" y="700" type="line"/>
      <point x="270" y="265" type="line"/>
      <point x="235" y="265"/>
      <point x="210" y="285"/>
      <point x="200" y="320" type="curve" smooth="yes"/>
      <point x="90" y="700" type="line"/>
      <point x="0" y="700" type="line"/>
      <point x="110" y="320" type="line" smooth="yes"/>
      <point x="132" y="245"/>
      <point x="180" y="200"/>
      <point x="257" y="200" type="curve"/>
      <point x="240" y="90"/>
      <point x="205" y="55"/>
      <point x="150" y="55" type="curve" smooth="yes"/>
      <point x="80" y="55" type="line"/>
      <point x="80" y="10" type="line"/>
      <point x="110" y="0"/>
      <point x="150" y="-10"/>
    </contour>
    <contour>
      <point x="230" y="750" type="curve" smooth="yes"/>
      <point x="295" y="750"/>
      <point x="345" y="780"/>
      <point x="370" y="825" type="curve"/>
      <point x="330" y="865" type="line"/>
      <point x="310" y="845"/>
      <point x="275" y="820"/>
      <point x="230" y="820" type="curve" smooth="yes"/>
      <point x="185" y="820"/>
      <point x="150" y="845"/>
      <point x="130" y="865" type="curve"/>
      <point x="90" y="825" type="line"/>
      <point x="115" y="780"/>
      <point x="165" y="750"/>
    </contour>
  </outline>
</glyph>
<glyph name="Dzhe-cy" format="2">
  <advance width="530"/>
  <unicode hex="040F"/>
  <outline>
    <contour>
      <point x="235" y="-150" type="line"/>
      <point x="295" y="-150" type="line"/>
      <point x="310" y="0" type="line"/>
      <point x="460" y="0" type="line"/>
      <point x="460" y="700" type="line"/>
      <point x="370" y="700" type="line"/>
      <point x="370" y="70" type="line"/>
      <point x="160" y="70" type="line"/>
      <point x="160" y="700" type="line"/>
      <point x="70" y="700" type="line"/>
      <point x="70" y="0" type="line"/>
      <point x="220" y="0" type="line"/>
    </contour>
  </outline>
</glyph>
